G04 #@! TF.GenerationSoftware,KiCad,Pcbnew,(5.0.1)-4*
G04 #@! TF.CreationDate,2021-03-19T14:51:32+02:00*
G04 #@! TF.ProjectId,Jekabs_ilja_Sumo_Test_Sensor_board,4A656B6162735F696C6A615F53756D6F,rev?*
G04 #@! TF.SameCoordinates,Original*
G04 #@! TF.FileFunction,Soldermask,Bot*
G04 #@! TF.FilePolarity,Negative*
%FSLAX46Y46*%
G04 Gerber Fmt 4.6, Leading zero omitted, Abs format (unit mm)*
G04 Created by KiCad (PCBNEW (5.0.1)-4) date 2021.03.19. 14:51:32*
%MOMM*%
%LPD*%
G01*
G04 APERTURE LIST*
%ADD10C,0.100000*%
G04 APERTURE END LIST*
D10*
G36*
X130150442Y-89605518D02*
X130216627Y-89612037D01*
X130329853Y-89646384D01*
X130386467Y-89663557D01*
X130525087Y-89737652D01*
X130542991Y-89747222D01*
X130578729Y-89776552D01*
X130680186Y-89859814D01*
X130763448Y-89961271D01*
X130792778Y-89997009D01*
X130792779Y-89997011D01*
X130876443Y-90153533D01*
X130876443Y-90153534D01*
X130927963Y-90323373D01*
X130945359Y-90500000D01*
X130927963Y-90676627D01*
X130893616Y-90789853D01*
X130876443Y-90846467D01*
X130802348Y-90985087D01*
X130792778Y-91002991D01*
X130763448Y-91038729D01*
X130680186Y-91140186D01*
X130578729Y-91223448D01*
X130542991Y-91252778D01*
X130542989Y-91252779D01*
X130386467Y-91336443D01*
X130329853Y-91353616D01*
X130216627Y-91387963D01*
X130150442Y-91394482D01*
X130084260Y-91401000D01*
X129995740Y-91401000D01*
X129929558Y-91394482D01*
X129863373Y-91387963D01*
X129750147Y-91353616D01*
X129693533Y-91336443D01*
X129537011Y-91252779D01*
X129537009Y-91252778D01*
X129501271Y-91223448D01*
X129399814Y-91140186D01*
X129316552Y-91038729D01*
X129287222Y-91002991D01*
X129277652Y-90985087D01*
X129203557Y-90846467D01*
X129186384Y-90789853D01*
X129152037Y-90676627D01*
X129134641Y-90500000D01*
X129152037Y-90323373D01*
X129203557Y-90153534D01*
X129203557Y-90153533D01*
X129287221Y-89997011D01*
X129287222Y-89997009D01*
X129316552Y-89961271D01*
X129399814Y-89859814D01*
X129501271Y-89776552D01*
X129537009Y-89747222D01*
X129554913Y-89737652D01*
X129693533Y-89663557D01*
X129750147Y-89646384D01*
X129863373Y-89612037D01*
X129929558Y-89605518D01*
X129995740Y-89599000D01*
X130084260Y-89599000D01*
X130150442Y-89605518D01*
X130150442Y-89605518D01*
G37*
G36*
X127610442Y-89605518D02*
X127676627Y-89612037D01*
X127789853Y-89646384D01*
X127846467Y-89663557D01*
X127985087Y-89737652D01*
X128002991Y-89747222D01*
X128038729Y-89776552D01*
X128140186Y-89859814D01*
X128223448Y-89961271D01*
X128252778Y-89997009D01*
X128252779Y-89997011D01*
X128336443Y-90153533D01*
X128336443Y-90153534D01*
X128387963Y-90323373D01*
X128405359Y-90500000D01*
X128387963Y-90676627D01*
X128353616Y-90789853D01*
X128336443Y-90846467D01*
X128262348Y-90985087D01*
X128252778Y-91002991D01*
X128223448Y-91038729D01*
X128140186Y-91140186D01*
X128038729Y-91223448D01*
X128002991Y-91252778D01*
X128002989Y-91252779D01*
X127846467Y-91336443D01*
X127789853Y-91353616D01*
X127676627Y-91387963D01*
X127610442Y-91394482D01*
X127544260Y-91401000D01*
X127455740Y-91401000D01*
X127389558Y-91394482D01*
X127323373Y-91387963D01*
X127210147Y-91353616D01*
X127153533Y-91336443D01*
X126997011Y-91252779D01*
X126997009Y-91252778D01*
X126961271Y-91223448D01*
X126859814Y-91140186D01*
X126776552Y-91038729D01*
X126747222Y-91002991D01*
X126737652Y-90985087D01*
X126663557Y-90846467D01*
X126646384Y-90789853D01*
X126612037Y-90676627D01*
X126594641Y-90500000D01*
X126612037Y-90323373D01*
X126663557Y-90153534D01*
X126663557Y-90153533D01*
X126747221Y-89997011D01*
X126747222Y-89997009D01*
X126776552Y-89961271D01*
X126859814Y-89859814D01*
X126961271Y-89776552D01*
X126997009Y-89747222D01*
X127014913Y-89737652D01*
X127153533Y-89663557D01*
X127210147Y-89646384D01*
X127323373Y-89612037D01*
X127389558Y-89605518D01*
X127455740Y-89599000D01*
X127544260Y-89599000D01*
X127610442Y-89605518D01*
X127610442Y-89605518D01*
G37*
G36*
X125861000Y-91401000D02*
X124059000Y-91401000D01*
X124059000Y-89599000D01*
X125861000Y-89599000D01*
X125861000Y-91401000D01*
X125861000Y-91401000D01*
G37*
M02*
