G04 #@! TF.GenerationSoftware,KiCad,Pcbnew,(5.0.1)-4*
G04 #@! TF.CreationDate,2021-03-18T15:14:48+02:00*
G04 #@! TF.ProjectId,IR_arena_edge_sensor,49525F6172656E615F656467655F7365,rev?*
G04 #@! TF.SameCoordinates,Original*
G04 #@! TF.FileFunction,Copper,L1,Top,Signal*
G04 #@! TF.FilePolarity,Positive*
%FSLAX46Y46*%
G04 Gerber Fmt 4.6, Leading zero omitted, Abs format (unit mm)*
G04 Created by KiCad (PCBNEW (5.0.1)-4) date 2021.03.18. 15:14:48*
%MOMM*%
%LPD*%
G01*
G04 APERTURE LIST*
G04 #@! TA.AperFunction,SMDPad,CuDef*
%ADD10R,2.000000X1.300000*%
G04 #@! TD*
G04 #@! TA.AperFunction,SMDPad,CuDef*
%ADD11R,2.750000X2.000000*%
G04 #@! TD*
G04 #@! TA.AperFunction,SMDPad,CuDef*
%ADD12R,1.500000X1.300000*%
G04 #@! TD*
G04 #@! TA.AperFunction,ComponentPad*
%ADD13R,1.700000X1.700000*%
G04 #@! TD*
G04 #@! TA.AperFunction,ComponentPad*
%ADD14O,1.700000X1.700000*%
G04 #@! TD*
G04 #@! TA.AperFunction,SMDPad,CuDef*
%ADD15R,2.600000X1.500000*%
G04 #@! TD*
G04 #@! TA.AperFunction,SMDPad,CuDef*
%ADD16R,1.700000X2.000000*%
G04 #@! TD*
G04 #@! TA.AperFunction,Conductor*
%ADD17C,0.500000*%
G04 #@! TD*
G04 #@! TA.AperFunction,Conductor*
%ADD18C,0.300000*%
G04 #@! TD*
G04 #@! TA.AperFunction,Conductor*
%ADD19C,0.254000*%
G04 #@! TD*
G04 APERTURE END LIST*
D10*
G04 #@! TO.P,RV3,3*
G04 #@! TO.N,IR_A2*
X191655000Y-82245000D03*
D11*
G04 #@! TO.P,RV3,2*
G04 #@! TO.N,Net-(R6-Pad2)*
X196155000Y-83395000D03*
D10*
G04 #@! TO.P,RV3,1*
X191655000Y-84545000D03*
G04 #@! TD*
D12*
G04 #@! TO.P,R5,1*
G04 #@! TO.N,+5V*
X198280000Y-78950000D03*
G04 #@! TO.P,R5,2*
G04 #@! TO.N,Net-(D3-Pad2)*
X195580000Y-78950000D03*
G04 #@! TD*
D13*
G04 #@! TO.P,J2,1*
G04 #@! TO.N,GND*
X191460000Y-88500000D03*
D14*
G04 #@! TO.P,J2,2*
G04 #@! TO.N,IR_A2*
X194000000Y-88500000D03*
G04 #@! TO.P,J2,3*
G04 #@! TO.N,+5V*
X196540000Y-88500000D03*
G04 #@! TD*
D12*
G04 #@! TO.P,R6,2*
G04 #@! TO.N,Net-(R6-Pad2)*
X190500000Y-78950000D03*
G04 #@! TO.P,R6,1*
G04 #@! TO.N,+5V*
X193200000Y-78950000D03*
G04 #@! TD*
D15*
G04 #@! TO.P,Q3,1*
G04 #@! TO.N,GND*
X192485000Y-73005000D03*
G04 #@! TO.P,Q3,2*
G04 #@! TO.N,IR_A2*
X192485000Y-76005000D03*
G04 #@! TD*
D16*
G04 #@! TO.P,D3,1*
G04 #@! TO.N,GND*
X197565000Y-72505000D03*
G04 #@! TO.P,D3,2*
G04 #@! TO.N,Net-(D3-Pad2)*
X197565000Y-76505000D03*
G04 #@! TD*
D17*
G04 #@! TO.N,GND*
X192485000Y-73005000D02*
X190685000Y-73005000D01*
X189185000Y-85810000D02*
X189310000Y-85935000D01*
X189310000Y-85935000D02*
X191850000Y-88475000D01*
X189185000Y-74505000D02*
X189185000Y-85810000D01*
X190685000Y-73005000D02*
X189185000Y-74505000D01*
X197565000Y-72505000D02*
X192985000Y-72505000D01*
X192985000Y-72505000D02*
X192485000Y-73005000D01*
G04 #@! TO.N,Net-(D3-Pad2)*
X197565000Y-76505000D02*
X197565000Y-76965000D01*
X197565000Y-76965000D02*
X195580000Y-78950000D01*
D18*
G04 #@! TO.N,IR_A2*
X191655000Y-82245000D02*
X191730000Y-82245000D01*
X191850000Y-82050000D02*
X191655000Y-82245000D01*
X192485000Y-77055000D02*
X191850000Y-77690000D01*
X192485000Y-76005000D02*
X192485000Y-77055000D01*
X191850000Y-77690000D02*
X191850000Y-82050000D01*
X191730000Y-82245000D02*
X192485000Y-81490000D01*
X192485000Y-81490000D02*
X197565000Y-81490000D01*
X198200000Y-84665000D02*
X194390000Y-88475000D01*
X198200000Y-82125000D02*
X198200000Y-84665000D01*
X197565000Y-81490000D02*
X198200000Y-82125000D01*
D17*
G04 #@! TO.N,+5V*
X198280000Y-78950000D02*
X198280000Y-79030000D01*
X198280000Y-87125000D02*
X198835000Y-86570000D01*
X198280000Y-80100000D02*
X198200000Y-80180000D01*
X198200000Y-80180000D02*
X198200000Y-80290000D01*
X198835000Y-80925000D02*
X198835000Y-86570000D01*
X198280000Y-78950000D02*
X198280000Y-80100000D01*
X193200000Y-78950000D02*
X193200000Y-79295000D01*
X198280000Y-78950000D02*
X198280000Y-79030000D01*
X198280000Y-87125000D02*
X196930000Y-88475000D01*
X198005000Y-80290000D02*
X198200000Y-80290000D01*
X193200000Y-79295000D02*
X194195000Y-80290000D01*
X198200000Y-80290000D02*
X198835000Y-80925000D01*
X194195000Y-80290000D02*
X198005000Y-80290000D01*
D18*
G04 #@! TO.N,Net-(R6-Pad2)*
X189945000Y-83185000D02*
X191305000Y-84545000D01*
X191305000Y-84545000D02*
X191655000Y-84545000D01*
X190500000Y-78950000D02*
X190500000Y-79900000D01*
X191655000Y-84545000D02*
X195005000Y-84545000D01*
X189945000Y-80455000D02*
X189945000Y-83185000D01*
X195005000Y-84545000D02*
X196155000Y-83395000D01*
X190500000Y-79900000D02*
X189945000Y-80455000D01*
G04 #@! TD*
D19*
G04 #@! TO.N,GND*
G36*
X196176673Y-71145302D02*
X196080000Y-71378691D01*
X196080000Y-72219250D01*
X196238750Y-72378000D01*
X197438000Y-72378000D01*
X197438000Y-72358000D01*
X197692000Y-72358000D01*
X197692000Y-72378000D01*
X198891250Y-72378000D01*
X199050000Y-72219250D01*
X199050000Y-71378691D01*
X198953327Y-71145302D01*
X198947017Y-71138992D01*
X199239526Y-71180883D01*
X199459799Y-71281034D01*
X199643106Y-71438982D01*
X199774714Y-71642029D01*
X199855291Y-71911458D01*
X199865001Y-72042127D01*
X199865000Y-88919140D01*
X199819117Y-89239525D01*
X199718964Y-89459800D01*
X199561019Y-89643105D01*
X199357968Y-89774716D01*
X199088543Y-89855291D01*
X198957887Y-89865000D01*
X197170062Y-89865000D01*
X197610625Y-89570625D01*
X197938839Y-89079418D01*
X198028644Y-88627934D01*
X198967424Y-87689155D01*
X198967426Y-87689152D01*
X199399153Y-87257425D01*
X199473049Y-87208049D01*
X199668652Y-86915310D01*
X199720000Y-86657165D01*
X199720000Y-86657161D01*
X199737337Y-86570000D01*
X199720000Y-86482839D01*
X199720000Y-81012161D01*
X199737337Y-80925000D01*
X199720000Y-80837839D01*
X199720000Y-80837835D01*
X199668652Y-80579690D01*
X199592655Y-80465953D01*
X199522424Y-80360845D01*
X199522423Y-80360844D01*
X199473049Y-80286951D01*
X199399156Y-80237577D01*
X199326903Y-80165324D01*
X199487809Y-80057809D01*
X199628157Y-79847765D01*
X199677440Y-79600000D01*
X199677440Y-78300000D01*
X199628157Y-78052235D01*
X199487809Y-77842191D01*
X199277765Y-77701843D01*
X199032971Y-77653151D01*
X199062440Y-77505000D01*
X199062440Y-75505000D01*
X199013157Y-75257235D01*
X198872809Y-75047191D01*
X198662765Y-74906843D01*
X198415000Y-74857560D01*
X196715000Y-74857560D01*
X196467235Y-74906843D01*
X196257191Y-75047191D01*
X196116843Y-75257235D01*
X196067560Y-75505000D01*
X196067560Y-77210861D01*
X195625862Y-77652560D01*
X194830000Y-77652560D01*
X194582235Y-77701843D01*
X194390000Y-77830291D01*
X194197765Y-77701843D01*
X193950000Y-77652560D01*
X193003650Y-77652560D01*
X193050953Y-77620953D01*
X193196960Y-77402440D01*
X193785000Y-77402440D01*
X194032765Y-77353157D01*
X194242809Y-77212809D01*
X194383157Y-77002765D01*
X194432440Y-76755000D01*
X194432440Y-75255000D01*
X194383157Y-75007235D01*
X194242809Y-74797191D01*
X194032765Y-74656843D01*
X193785000Y-74607560D01*
X191185000Y-74607560D01*
X190937235Y-74656843D01*
X190727191Y-74797191D01*
X190586843Y-75007235D01*
X190537560Y-75255000D01*
X190537560Y-76755000D01*
X190586843Y-77002765D01*
X190727191Y-77212809D01*
X190937235Y-77353157D01*
X191109796Y-77387481D01*
X191065000Y-77612685D01*
X191065000Y-77612688D01*
X191057069Y-77652560D01*
X189750000Y-77652560D01*
X189502235Y-77701843D01*
X189292191Y-77842191D01*
X189151843Y-78052235D01*
X189102560Y-78300000D01*
X189102560Y-79600000D01*
X189151843Y-79847765D01*
X189279237Y-80038422D01*
X189205546Y-80148709D01*
X189160000Y-80377685D01*
X189160000Y-80377688D01*
X189144622Y-80455000D01*
X189160000Y-80532312D01*
X189160001Y-83107683D01*
X189144622Y-83185000D01*
X189205546Y-83491291D01*
X189335251Y-83685408D01*
X189335254Y-83685411D01*
X189379048Y-83750953D01*
X189444590Y-83794747D01*
X190007560Y-84357717D01*
X190007560Y-85195000D01*
X190056843Y-85442765D01*
X190197191Y-85652809D01*
X190407235Y-85793157D01*
X190655000Y-85842440D01*
X192655000Y-85842440D01*
X192902765Y-85793157D01*
X193112809Y-85652809D01*
X193253157Y-85442765D01*
X193275587Y-85330000D01*
X194927688Y-85330000D01*
X195005000Y-85345378D01*
X195082312Y-85330000D01*
X195082316Y-85330000D01*
X195311292Y-85284454D01*
X195570953Y-85110953D01*
X195614749Y-85045408D01*
X195617717Y-85042440D01*
X196712403Y-85042440D01*
X194623936Y-87130907D01*
X194579418Y-87101161D01*
X194146256Y-87015000D01*
X193853744Y-87015000D01*
X193420582Y-87101161D01*
X192929375Y-87429375D01*
X192914904Y-87451033D01*
X192848327Y-87290302D01*
X192669699Y-87111673D01*
X192436310Y-87015000D01*
X191745750Y-87015000D01*
X191587000Y-87173750D01*
X191587000Y-88373000D01*
X191607000Y-88373000D01*
X191607000Y-88627000D01*
X191587000Y-88627000D01*
X191587000Y-88647000D01*
X191333000Y-88647000D01*
X191333000Y-88627000D01*
X190133750Y-88627000D01*
X189975000Y-88785750D01*
X189975000Y-89476309D01*
X190071673Y-89709698D01*
X190226974Y-89865000D01*
X189580860Y-89865000D01*
X189260475Y-89819117D01*
X189040200Y-89718964D01*
X188856895Y-89561019D01*
X188725284Y-89357968D01*
X188644709Y-89088543D01*
X188635000Y-88957887D01*
X188635000Y-87523691D01*
X189975000Y-87523691D01*
X189975000Y-88214250D01*
X190133750Y-88373000D01*
X191333000Y-88373000D01*
X191333000Y-87173750D01*
X191174250Y-87015000D01*
X190483690Y-87015000D01*
X190250301Y-87111673D01*
X190071673Y-87290302D01*
X189975000Y-87523691D01*
X188635000Y-87523691D01*
X188635000Y-73290750D01*
X190550000Y-73290750D01*
X190550000Y-73881309D01*
X190646673Y-74114698D01*
X190825301Y-74293327D01*
X191058690Y-74390000D01*
X192199250Y-74390000D01*
X192358000Y-74231250D01*
X192358000Y-73132000D01*
X192612000Y-73132000D01*
X192612000Y-74231250D01*
X192770750Y-74390000D01*
X193911310Y-74390000D01*
X194144699Y-74293327D01*
X194323327Y-74114698D01*
X194420000Y-73881309D01*
X194420000Y-73290750D01*
X194261250Y-73132000D01*
X192612000Y-73132000D01*
X192358000Y-73132000D01*
X190708750Y-73132000D01*
X190550000Y-73290750D01*
X188635000Y-73290750D01*
X188635000Y-72128691D01*
X190550000Y-72128691D01*
X190550000Y-72719250D01*
X190708750Y-72878000D01*
X192358000Y-72878000D01*
X192358000Y-71778750D01*
X192612000Y-71778750D01*
X192612000Y-72878000D01*
X194261250Y-72878000D01*
X194348500Y-72790750D01*
X196080000Y-72790750D01*
X196080000Y-73631309D01*
X196176673Y-73864698D01*
X196355301Y-74043327D01*
X196588690Y-74140000D01*
X197279250Y-74140000D01*
X197438000Y-73981250D01*
X197438000Y-72632000D01*
X197692000Y-72632000D01*
X197692000Y-73981250D01*
X197850750Y-74140000D01*
X198541310Y-74140000D01*
X198774699Y-74043327D01*
X198953327Y-73864698D01*
X199050000Y-73631309D01*
X199050000Y-72790750D01*
X198891250Y-72632000D01*
X197692000Y-72632000D01*
X197438000Y-72632000D01*
X196238750Y-72632000D01*
X196080000Y-72790750D01*
X194348500Y-72790750D01*
X194420000Y-72719250D01*
X194420000Y-72128691D01*
X194323327Y-71895302D01*
X194144699Y-71716673D01*
X193911310Y-71620000D01*
X192770750Y-71620000D01*
X192612000Y-71778750D01*
X192358000Y-71778750D01*
X192199250Y-71620000D01*
X191058690Y-71620000D01*
X190825301Y-71716673D01*
X190646673Y-71895302D01*
X190550000Y-72128691D01*
X188635000Y-72128691D01*
X188635000Y-72080860D01*
X188680883Y-71760474D01*
X188781034Y-71540201D01*
X188938982Y-71356894D01*
X189142029Y-71225286D01*
X189411458Y-71144709D01*
X189542113Y-71135000D01*
X196186975Y-71135000D01*
X196176673Y-71145302D01*
X196176673Y-71145302D01*
G37*
X196176673Y-71145302D02*
X196080000Y-71378691D01*
X196080000Y-72219250D01*
X196238750Y-72378000D01*
X197438000Y-72378000D01*
X197438000Y-72358000D01*
X197692000Y-72358000D01*
X197692000Y-72378000D01*
X198891250Y-72378000D01*
X199050000Y-72219250D01*
X199050000Y-71378691D01*
X198953327Y-71145302D01*
X198947017Y-71138992D01*
X199239526Y-71180883D01*
X199459799Y-71281034D01*
X199643106Y-71438982D01*
X199774714Y-71642029D01*
X199855291Y-71911458D01*
X199865001Y-72042127D01*
X199865000Y-88919140D01*
X199819117Y-89239525D01*
X199718964Y-89459800D01*
X199561019Y-89643105D01*
X199357968Y-89774716D01*
X199088543Y-89855291D01*
X198957887Y-89865000D01*
X197170062Y-89865000D01*
X197610625Y-89570625D01*
X197938839Y-89079418D01*
X198028644Y-88627934D01*
X198967424Y-87689155D01*
X198967426Y-87689152D01*
X199399153Y-87257425D01*
X199473049Y-87208049D01*
X199668652Y-86915310D01*
X199720000Y-86657165D01*
X199720000Y-86657161D01*
X199737337Y-86570000D01*
X199720000Y-86482839D01*
X199720000Y-81012161D01*
X199737337Y-80925000D01*
X199720000Y-80837839D01*
X199720000Y-80837835D01*
X199668652Y-80579690D01*
X199592655Y-80465953D01*
X199522424Y-80360845D01*
X199522423Y-80360844D01*
X199473049Y-80286951D01*
X199399156Y-80237577D01*
X199326903Y-80165324D01*
X199487809Y-80057809D01*
X199628157Y-79847765D01*
X199677440Y-79600000D01*
X199677440Y-78300000D01*
X199628157Y-78052235D01*
X199487809Y-77842191D01*
X199277765Y-77701843D01*
X199032971Y-77653151D01*
X199062440Y-77505000D01*
X199062440Y-75505000D01*
X199013157Y-75257235D01*
X198872809Y-75047191D01*
X198662765Y-74906843D01*
X198415000Y-74857560D01*
X196715000Y-74857560D01*
X196467235Y-74906843D01*
X196257191Y-75047191D01*
X196116843Y-75257235D01*
X196067560Y-75505000D01*
X196067560Y-77210861D01*
X195625862Y-77652560D01*
X194830000Y-77652560D01*
X194582235Y-77701843D01*
X194390000Y-77830291D01*
X194197765Y-77701843D01*
X193950000Y-77652560D01*
X193003650Y-77652560D01*
X193050953Y-77620953D01*
X193196960Y-77402440D01*
X193785000Y-77402440D01*
X194032765Y-77353157D01*
X194242809Y-77212809D01*
X194383157Y-77002765D01*
X194432440Y-76755000D01*
X194432440Y-75255000D01*
X194383157Y-75007235D01*
X194242809Y-74797191D01*
X194032765Y-74656843D01*
X193785000Y-74607560D01*
X191185000Y-74607560D01*
X190937235Y-74656843D01*
X190727191Y-74797191D01*
X190586843Y-75007235D01*
X190537560Y-75255000D01*
X190537560Y-76755000D01*
X190586843Y-77002765D01*
X190727191Y-77212809D01*
X190937235Y-77353157D01*
X191109796Y-77387481D01*
X191065000Y-77612685D01*
X191065000Y-77612688D01*
X191057069Y-77652560D01*
X189750000Y-77652560D01*
X189502235Y-77701843D01*
X189292191Y-77842191D01*
X189151843Y-78052235D01*
X189102560Y-78300000D01*
X189102560Y-79600000D01*
X189151843Y-79847765D01*
X189279237Y-80038422D01*
X189205546Y-80148709D01*
X189160000Y-80377685D01*
X189160000Y-80377688D01*
X189144622Y-80455000D01*
X189160000Y-80532312D01*
X189160001Y-83107683D01*
X189144622Y-83185000D01*
X189205546Y-83491291D01*
X189335251Y-83685408D01*
X189335254Y-83685411D01*
X189379048Y-83750953D01*
X189444590Y-83794747D01*
X190007560Y-84357717D01*
X190007560Y-85195000D01*
X190056843Y-85442765D01*
X190197191Y-85652809D01*
X190407235Y-85793157D01*
X190655000Y-85842440D01*
X192655000Y-85842440D01*
X192902765Y-85793157D01*
X193112809Y-85652809D01*
X193253157Y-85442765D01*
X193275587Y-85330000D01*
X194927688Y-85330000D01*
X195005000Y-85345378D01*
X195082312Y-85330000D01*
X195082316Y-85330000D01*
X195311292Y-85284454D01*
X195570953Y-85110953D01*
X195614749Y-85045408D01*
X195617717Y-85042440D01*
X196712403Y-85042440D01*
X194623936Y-87130907D01*
X194579418Y-87101161D01*
X194146256Y-87015000D01*
X193853744Y-87015000D01*
X193420582Y-87101161D01*
X192929375Y-87429375D01*
X192914904Y-87451033D01*
X192848327Y-87290302D01*
X192669699Y-87111673D01*
X192436310Y-87015000D01*
X191745750Y-87015000D01*
X191587000Y-87173750D01*
X191587000Y-88373000D01*
X191607000Y-88373000D01*
X191607000Y-88627000D01*
X191587000Y-88627000D01*
X191587000Y-88647000D01*
X191333000Y-88647000D01*
X191333000Y-88627000D01*
X190133750Y-88627000D01*
X189975000Y-88785750D01*
X189975000Y-89476309D01*
X190071673Y-89709698D01*
X190226974Y-89865000D01*
X189580860Y-89865000D01*
X189260475Y-89819117D01*
X189040200Y-89718964D01*
X188856895Y-89561019D01*
X188725284Y-89357968D01*
X188644709Y-89088543D01*
X188635000Y-88957887D01*
X188635000Y-87523691D01*
X189975000Y-87523691D01*
X189975000Y-88214250D01*
X190133750Y-88373000D01*
X191333000Y-88373000D01*
X191333000Y-87173750D01*
X191174250Y-87015000D01*
X190483690Y-87015000D01*
X190250301Y-87111673D01*
X190071673Y-87290302D01*
X189975000Y-87523691D01*
X188635000Y-87523691D01*
X188635000Y-73290750D01*
X190550000Y-73290750D01*
X190550000Y-73881309D01*
X190646673Y-74114698D01*
X190825301Y-74293327D01*
X191058690Y-74390000D01*
X192199250Y-74390000D01*
X192358000Y-74231250D01*
X192358000Y-73132000D01*
X192612000Y-73132000D01*
X192612000Y-74231250D01*
X192770750Y-74390000D01*
X193911310Y-74390000D01*
X194144699Y-74293327D01*
X194323327Y-74114698D01*
X194420000Y-73881309D01*
X194420000Y-73290750D01*
X194261250Y-73132000D01*
X192612000Y-73132000D01*
X192358000Y-73132000D01*
X190708750Y-73132000D01*
X190550000Y-73290750D01*
X188635000Y-73290750D01*
X188635000Y-72128691D01*
X190550000Y-72128691D01*
X190550000Y-72719250D01*
X190708750Y-72878000D01*
X192358000Y-72878000D01*
X192358000Y-71778750D01*
X192612000Y-71778750D01*
X192612000Y-72878000D01*
X194261250Y-72878000D01*
X194348500Y-72790750D01*
X196080000Y-72790750D01*
X196080000Y-73631309D01*
X196176673Y-73864698D01*
X196355301Y-74043327D01*
X196588690Y-74140000D01*
X197279250Y-74140000D01*
X197438000Y-73981250D01*
X197438000Y-72632000D01*
X197692000Y-72632000D01*
X197692000Y-73981250D01*
X197850750Y-74140000D01*
X198541310Y-74140000D01*
X198774699Y-74043327D01*
X198953327Y-73864698D01*
X199050000Y-73631309D01*
X199050000Y-72790750D01*
X198891250Y-72632000D01*
X197692000Y-72632000D01*
X197438000Y-72632000D01*
X196238750Y-72632000D01*
X196080000Y-72790750D01*
X194348500Y-72790750D01*
X194420000Y-72719250D01*
X194420000Y-72128691D01*
X194323327Y-71895302D01*
X194144699Y-71716673D01*
X193911310Y-71620000D01*
X192770750Y-71620000D01*
X192612000Y-71778750D01*
X192358000Y-71778750D01*
X192199250Y-71620000D01*
X191058690Y-71620000D01*
X190825301Y-71716673D01*
X190646673Y-71895302D01*
X190550000Y-72128691D01*
X188635000Y-72128691D01*
X188635000Y-72080860D01*
X188680883Y-71760474D01*
X188781034Y-71540201D01*
X188938982Y-71356894D01*
X189142029Y-71225286D01*
X189411458Y-71144709D01*
X189542113Y-71135000D01*
X196186975Y-71135000D01*
X196176673Y-71145302D01*
G04 #@! TD*
M02*
