G04 #@! TF.GenerationSoftware,KiCad,Pcbnew,(5.0.1)-4*
G04 #@! TF.CreationDate,2021-03-19T15:07:37+02:00*
G04 #@! TF.ProjectId,Jekabs_Ilja_Sumo_Test_Motherboard,4A656B6162735F496C6A615F53756D6F,rev?*
G04 #@! TF.SameCoordinates,Original*
G04 #@! TF.FileFunction,Copper,L2,Bot,Signal*
G04 #@! TF.FilePolarity,Positive*
%FSLAX46Y46*%
G04 Gerber Fmt 4.6, Leading zero omitted, Abs format (unit mm)*
G04 Created by KiCad (PCBNEW (5.0.1)-4) date 2021.03.19. 15:07:37*
%MOMM*%
%LPD*%
G01*
G04 APERTURE LIST*
G04 #@! TA.AperFunction,ComponentPad*
%ADD10O,1.700000X1.700000*%
G04 #@! TD*
G04 #@! TA.AperFunction,ComponentPad*
%ADD11R,1.700000X1.700000*%
G04 #@! TD*
G04 #@! TA.AperFunction,ComponentPad*
%ADD12C,1.524000*%
G04 #@! TD*
G04 #@! TA.AperFunction,ComponentPad*
%ADD13R,1.524000X1.524000*%
G04 #@! TD*
G04 #@! TA.AperFunction,ViaPad*
%ADD14C,1.200000*%
G04 #@! TD*
G04 #@! TA.AperFunction,ViaPad*
%ADD15C,0.800000*%
G04 #@! TD*
G04 #@! TA.AperFunction,ViaPad*
%ADD16C,1.000000*%
G04 #@! TD*
G04 #@! TA.AperFunction,Conductor*
%ADD17C,1.000000*%
G04 #@! TD*
G04 #@! TA.AperFunction,Conductor*
%ADD18C,0.500000*%
G04 #@! TD*
G04 #@! TA.AperFunction,Conductor*
%ADD19C,0.254000*%
G04 #@! TD*
G04 APERTURE END LIST*
D10*
G04 #@! TO.P,J7,3*
G04 #@! TO.N,+5V*
X167490000Y-111630000D03*
G04 #@! TO.P,J7,2*
G04 #@! TO.N,IR_A1*
X167490000Y-114170000D03*
D11*
G04 #@! TO.P,J7,1*
G04 #@! TO.N,GND*
X167490000Y-116710000D03*
G04 #@! TD*
D12*
G04 #@! TO.P,MCU1,32*
G04 #@! TO.N,/Echo*
X107800000Y-83055000D03*
G04 #@! TO.P,MCU1,31*
G04 #@! TO.N,IR_E7*
X107800000Y-85595000D03*
G04 #@! TO.P,MCU1,30*
G04 #@! TO.N,IR_A3*
X107800000Y-88135000D03*
G04 #@! TO.P,MCU1,29*
G04 #@! TO.N,IR_A2*
X107800000Y-90675000D03*
G04 #@! TO.P,MCU1,28*
G04 #@! TO.N,IR_A1*
X107800000Y-93215000D03*
G04 #@! TO.P,MCU1,27*
G04 #@! TO.N,IR_A0*
X107800000Y-95755000D03*
G04 #@! TO.P,MCU1,26*
G04 #@! TO.N,Net-(MCU1-Pad26)*
X107800000Y-100835000D03*
G04 #@! TO.P,MCU1,25*
G04 #@! TO.N,GND*
X107800000Y-103375000D03*
G04 #@! TO.P,MCU1,24*
X107800000Y-105915000D03*
G04 #@! TO.P,MCU1,23*
G04 #@! TO.N,Net-(MCU1-Pad23)*
X107800000Y-108455000D03*
G04 #@! TO.P,MCU1,22*
G04 #@! TO.N,Net-(MCU1-Pad22)*
X107800000Y-110995000D03*
G04 #@! TO.P,MCU1,21*
G04 #@! TO.N,Net-(MCU1-Pad21)*
X107800000Y-113535000D03*
G04 #@! TO.P,MCU1,20*
G04 #@! TO.N,+5V*
X107800000Y-116075000D03*
G04 #@! TO.P,MCU1,18*
G04 #@! TO.N,IR_E0*
X156060000Y-83055000D03*
G04 #@! TO.P,MCU1,17*
G04 #@! TO.N,IR_E1*
X156060000Y-85595000D03*
G04 #@! TO.P,MCU1,16*
G04 #@! TO.N,IR_E2*
X156060000Y-88135000D03*
G04 #@! TO.P,MCU1,15*
G04 #@! TO.N,IR_E3*
X156060000Y-90675000D03*
G04 #@! TO.P,MCU1,14*
G04 #@! TO.N,IR_E4*
X156060000Y-93215000D03*
G04 #@! TO.P,MCU1,13*
G04 #@! TO.N,IR_E5*
X156060000Y-95755000D03*
G04 #@! TO.P,MCU1,12*
G04 #@! TO.N,IR_E6*
X156060000Y-98295000D03*
G04 #@! TO.P,MCU1,11*
G04 #@! TO.N,/Trig*
X156060000Y-100835000D03*
G04 #@! TO.P,MCU1,10*
G04 #@! TO.N,M1*
X156060000Y-104899000D03*
G04 #@! TO.P,MCU1,9*
G04 #@! TO.N,M2*
X156060000Y-107439000D03*
G04 #@! TO.P,MCU1,8*
G04 #@! TO.N,M3*
X156060000Y-109979000D03*
G04 #@! TO.P,MCU1,7*
G04 #@! TO.N,M4*
X156060000Y-112519000D03*
G04 #@! TO.P,MCU1,6*
G04 #@! TO.N,Net-(MCU1-Pad6)*
X156060000Y-115059000D03*
G04 #@! TO.P,MCU1,5*
G04 #@! TO.N,Net-(MCU1-Pad5)*
X156060000Y-117599000D03*
G04 #@! TO.P,MCU1,4*
G04 #@! TO.N,GND*
X156060000Y-120139000D03*
G04 #@! TO.P,MCU1,3*
G04 #@! TO.N,Net-(MCU1-Pad3)*
X156060000Y-122679000D03*
G04 #@! TO.P,MCU1,2*
G04 #@! TO.N,Net-(MCU1-Pad2)*
X156060000Y-125219000D03*
D13*
G04 #@! TO.P,MCU1,1*
G04 #@! TO.N,Net-(MCU1-Pad1)*
X156060000Y-127759000D03*
G04 #@! TD*
D11*
G04 #@! TO.P,U1,1*
G04 #@! TO.N,IR_E0*
X148440000Y-69720000D03*
D10*
G04 #@! TO.P,U1,2*
G04 #@! TO.N,GND*
X145900000Y-69720000D03*
G04 #@! TO.P,U1,3*
G04 #@! TO.N,+5V*
X143360000Y-69720000D03*
G04 #@! TD*
G04 #@! TO.P,U2,3*
G04 #@! TO.N,+5V*
X154790000Y-69720000D03*
G04 #@! TO.P,U2,2*
G04 #@! TO.N,GND*
X157330000Y-69720000D03*
D11*
G04 #@! TO.P,U2,1*
G04 #@! TO.N,IR_E1*
X159870000Y-69720000D03*
G04 #@! TD*
D10*
G04 #@! TO.P,U3,3*
G04 #@! TO.N,+5V*
X167490000Y-82420000D03*
G04 #@! TO.P,U3,2*
G04 #@! TO.N,GND*
X167490000Y-79880000D03*
D11*
G04 #@! TO.P,U3,1*
G04 #@! TO.N,IR_E2*
X167490000Y-77340000D03*
G04 #@! TD*
G04 #@! TO.P,U4,1*
G04 #@! TO.N,IR_E3*
X167490000Y-88770000D03*
D10*
G04 #@! TO.P,U4,2*
G04 #@! TO.N,GND*
X167490000Y-91310000D03*
G04 #@! TO.P,U4,3*
G04 #@! TO.N,+5V*
X167490000Y-93850000D03*
G04 #@! TD*
G04 #@! TO.P,U5,3*
G04 #@! TO.N,+5V*
X110340000Y-69720000D03*
G04 #@! TO.P,U5,2*
G04 #@! TO.N,GND*
X107800000Y-69720000D03*
D11*
G04 #@! TO.P,U5,1*
G04 #@! TO.N,IR_E4*
X105260000Y-69720000D03*
G04 #@! TD*
D10*
G04 #@! TO.P,U6,3*
G04 #@! TO.N,+5V*
X95100000Y-82420000D03*
G04 #@! TO.P,U6,2*
G04 #@! TO.N,GND*
X95100000Y-79880000D03*
D11*
G04 #@! TO.P,U6,1*
G04 #@! TO.N,IR_E5*
X95100000Y-77340000D03*
G04 #@! TD*
G04 #@! TO.P,U7,1*
G04 #@! TO.N,IR_E6*
X95100000Y-88770000D03*
D10*
G04 #@! TO.P,U7,2*
G04 #@! TO.N,GND*
X95100000Y-91310000D03*
G04 #@! TO.P,U7,3*
G04 #@! TO.N,+5V*
X95100000Y-93850000D03*
G04 #@! TD*
D11*
G04 #@! TO.P,U8,1*
G04 #@! TO.N,IR_E7*
X131930000Y-69720000D03*
D10*
G04 #@! TO.P,U8,2*
G04 #@! TO.N,GND*
X134470000Y-69720000D03*
G04 #@! TO.P,U8,3*
G04 #@! TO.N,+5V*
X137010000Y-69720000D03*
G04 #@! TD*
G04 #@! TO.P,U9,4*
G04 #@! TO.N,GND*
X116690000Y-69720000D03*
G04 #@! TO.P,U9,3*
G04 #@! TO.N,/Echo*
X119230000Y-69720000D03*
G04 #@! TO.P,U9,2*
G04 #@! TO.N,/Trig*
X121770000Y-69720000D03*
D11*
G04 #@! TO.P,U9,1*
G04 #@! TO.N,+5V*
X124310000Y-69720000D03*
G04 #@! TD*
D10*
G04 #@! TO.P,U10,10*
G04 #@! TO.N,GND*
X159620000Y-139570000D03*
G04 #@! TO.P,U10,9*
G04 #@! TO.N,+5V*
X157080000Y-139570000D03*
G04 #@! TO.P,U10,4*
G04 #@! TO.N,M4*
X154540000Y-139570000D03*
G04 #@! TO.P,U10,3*
G04 #@! TO.N,M3*
X152000000Y-139570000D03*
G04 #@! TO.P,U10,2*
G04 #@! TO.N,M2*
X149460000Y-139570000D03*
D11*
G04 #@! TO.P,U10,1*
G04 #@! TO.N,M1*
X146920000Y-139570000D03*
G04 #@! TD*
D10*
G04 #@! TO.P,U11,4*
G04 #@! TO.N,GND*
X110340000Y-139570000D03*
D11*
G04 #@! TO.P,U11,3*
G04 #@! TO.N,+5V*
X107800000Y-139570000D03*
G04 #@! TD*
D10*
G04 #@! TO.P,J3,3*
G04 #@! TO.N,+5V*
X95100000Y-111630000D03*
G04 #@! TO.P,J3,2*
G04 #@! TO.N,IR_A0*
X95100000Y-114170000D03*
D11*
G04 #@! TO.P,J3,1*
G04 #@! TO.N,GND*
X95100000Y-116710000D03*
G04 #@! TD*
G04 #@! TO.P,J4,1*
G04 #@! TO.N,GND*
X167490000Y-105280000D03*
D10*
G04 #@! TO.P,J4,2*
G04 #@! TO.N,IR_A2*
X167490000Y-102740000D03*
G04 #@! TO.P,J4,3*
G04 #@! TO.N,+5V*
X167490000Y-100200000D03*
G04 #@! TD*
D11*
G04 #@! TO.P,J8,1*
G04 #@! TO.N,GND*
X95100000Y-105280000D03*
D10*
G04 #@! TO.P,J8,2*
G04 #@! TO.N,IR_A3*
X95100000Y-102740000D03*
G04 #@! TO.P,J8,3*
G04 #@! TO.N,+5V*
X95100000Y-100200000D03*
G04 #@! TD*
D14*
G04 #@! TO.N,GND*
X160505000Y-114805000D03*
X160505000Y-104645000D03*
X160505000Y-94485000D03*
X160505000Y-86230000D03*
X157965000Y-77340000D03*
X145900000Y-77340000D03*
X112880000Y-71799999D03*
X102720000Y-79880000D03*
X102720000Y-98930000D03*
X102720000Y-110995000D03*
D15*
X168000000Y-139500000D03*
X168000000Y-70000000D03*
X95000000Y-70000000D03*
D16*
G04 #@! TO.N,/Echo*
X112880000Y-73530000D03*
X105895000Y-82420000D03*
G04 #@! TO.N,IR_E7*
X130025000Y-72999999D03*
X130025000Y-82420000D03*
G04 #@! TO.N,/Trig*
X129000000Y-88000000D03*
X127485000Y-73530000D03*
G04 #@! TD*
D17*
G04 #@! TO.N,GND*
X95220000Y-80000000D02*
X95100000Y-79880000D01*
X167490000Y-118560000D02*
X167490000Y-116710000D01*
X165911000Y-120139000D02*
X167490000Y-118560000D01*
X163000000Y-120139000D02*
X165911000Y-120139000D01*
X159620000Y-120374000D02*
X159385000Y-120139000D01*
X159620000Y-139570000D02*
X159620000Y-120374000D01*
X156060000Y-120139000D02*
X159385000Y-120139000D01*
X159385000Y-120139000D02*
X163000000Y-120139000D01*
X160505000Y-119885000D02*
X160505000Y-114805000D01*
X161140000Y-105280000D02*
X160505000Y-104645000D01*
X167490000Y-105280000D02*
X161140000Y-105280000D01*
X167490000Y-91310000D02*
X163680000Y-91310000D01*
X163680000Y-91310000D02*
X160505000Y-94485000D01*
X167490000Y-79880000D02*
X166855000Y-79880000D01*
X166855000Y-79880000D02*
X160505000Y-86230000D01*
X157000000Y-70050000D02*
X157330000Y-69720000D01*
X157965000Y-70355000D02*
X157330000Y-69720000D01*
X157965000Y-77340000D02*
X157965000Y-70355000D01*
X145900000Y-70922081D02*
X145900000Y-69720000D01*
X145900000Y-72895000D02*
X145900000Y-70922081D01*
X145900000Y-77340000D02*
X145900000Y-72895000D01*
X145795000Y-73000000D02*
X145900000Y-72895000D01*
X137750000Y-73000000D02*
X145795000Y-73000000D01*
X137750000Y-73000000D02*
X134470000Y-69720000D01*
X115840001Y-70569999D02*
X116690000Y-69720000D01*
X115139999Y-71270001D02*
X115840001Y-70569999D01*
D18*
X112880000Y-71799999D02*
X112774998Y-71799999D01*
D17*
X111610000Y-71270001D02*
X112245000Y-71270001D01*
D18*
X112774998Y-71799999D02*
X112245000Y-71270001D01*
D17*
X112245000Y-71270001D02*
X115139999Y-71270001D01*
X107800000Y-69720000D02*
X107800000Y-70922081D01*
X107800000Y-70922081D02*
X108147920Y-71270001D01*
X108147920Y-71270001D02*
X111610000Y-71270001D01*
X95100000Y-79880000D02*
X102720000Y-79880000D01*
X93897919Y-91310000D02*
X95100000Y-91310000D01*
X93549999Y-90962080D02*
X93897919Y-91310000D01*
X93549999Y-86450001D02*
X93549999Y-90962080D01*
X93549999Y-86450001D02*
X96149999Y-86450001D01*
X96149999Y-86450001D02*
X102720000Y-79880000D01*
X97005000Y-116710000D02*
X95100000Y-116710000D01*
X100000000Y-100380000D02*
X95100000Y-105280000D01*
X102720000Y-98930000D02*
X101450000Y-98930000D01*
X101450000Y-98930000D02*
X100000000Y-100380000D01*
X107800000Y-103375000D02*
X107800000Y-105915000D01*
X110340000Y-108455000D02*
X107800000Y-105915000D01*
X110340000Y-139570000D02*
X110340000Y-108455000D01*
X102720000Y-110995000D02*
X97005000Y-116710000D01*
X102720000Y-110995000D02*
X107800000Y-105915000D01*
D18*
G04 #@! TO.N,/Echo*
X119000000Y-69950000D02*
X119230000Y-69720000D01*
X119230000Y-69720000D02*
X115420000Y-73530000D01*
X115420000Y-73530000D02*
X112880000Y-73530000D01*
X107800000Y-83055000D02*
X106530000Y-83055000D01*
X106530000Y-83055000D02*
X105895000Y-82420000D01*
G04 #@! TO.N,IR_E7*
X132000000Y-69790000D02*
X131930000Y-69720000D01*
X131930000Y-69720000D02*
X130660000Y-70990000D01*
X130660000Y-70990000D02*
X130025000Y-71625000D01*
X130025000Y-71625000D02*
X130025000Y-72999999D01*
X130025000Y-82420000D02*
X126850000Y-85595000D01*
X107800000Y-85595000D02*
X126850000Y-85595000D01*
G04 #@! TO.N,IR_A3*
X107800000Y-88135000D02*
X100000000Y-95935000D01*
X100000000Y-97840000D02*
X95100000Y-102740000D01*
X100000000Y-95935000D02*
X100000000Y-97840000D01*
G04 #@! TO.N,IR_A2*
X119625000Y-102500000D02*
X107800000Y-90675000D01*
X167490000Y-102740000D02*
X167250000Y-102500000D01*
X167250000Y-102500000D02*
X119625000Y-102500000D01*
G04 #@! TO.N,IR_A1*
X167490000Y-114170000D02*
X156820000Y-103500000D01*
X118085000Y-103500000D02*
X107800000Y-93215000D01*
X156820000Y-103500000D02*
X118085000Y-103500000D01*
G04 #@! TO.N,IR_A0*
X107800000Y-95755000D02*
X98000000Y-105555000D01*
X98000000Y-111270000D02*
X95100000Y-114170000D01*
X98000000Y-105555000D02*
X98000000Y-111270000D01*
D17*
G04 #@! TO.N,+5V*
X107800000Y-116075000D02*
X107800000Y-139570000D01*
X107800000Y-139570000D02*
X107800000Y-139800000D01*
X95100000Y-111630000D02*
X92000000Y-108530000D01*
X92150000Y-93850000D02*
X92000000Y-94000000D01*
X92200000Y-100200000D02*
X92000000Y-100000000D01*
X92000000Y-108530000D02*
X92000000Y-100000000D01*
X95100000Y-100200000D02*
X92200000Y-100200000D01*
X92000000Y-94000000D02*
X92000000Y-100000000D01*
X95100000Y-93850000D02*
X92150000Y-93850000D01*
X92420000Y-82420000D02*
X92000000Y-82000000D01*
X92000000Y-82000000D02*
X92000000Y-94000000D01*
X95100000Y-82420000D02*
X92420000Y-82420000D01*
X92000000Y-76000000D02*
X92000000Y-82000000D01*
X101000000Y-67000000D02*
X92000000Y-76000000D01*
X110340000Y-67340000D02*
X110000000Y-67000000D01*
X110000000Y-67000000D02*
X101000000Y-67000000D01*
X110340000Y-69720000D02*
X110340000Y-67340000D01*
X124310000Y-67310000D02*
X124000000Y-67000000D01*
X124310000Y-69720000D02*
X124310000Y-67310000D01*
X124000000Y-67000000D02*
X110000000Y-67000000D01*
X137010000Y-67010000D02*
X137000000Y-67000000D01*
X137000000Y-67000000D02*
X124000000Y-67000000D01*
X137010000Y-69720000D02*
X137010000Y-67010000D01*
X143360000Y-67360000D02*
X143000000Y-67000000D01*
X143360000Y-69720000D02*
X143360000Y-67360000D01*
X143000000Y-67000000D02*
X137000000Y-67000000D01*
X154790000Y-67210000D02*
X155000000Y-67000000D01*
X154790000Y-69720000D02*
X154790000Y-67210000D01*
X155000000Y-67000000D02*
X143000000Y-67000000D01*
X167490000Y-82420000D02*
X169580000Y-82420000D01*
X169580000Y-82420000D02*
X170000000Y-82000000D01*
X170000000Y-94000000D02*
X170000000Y-82000000D01*
X167490000Y-93850000D02*
X169850000Y-93850000D01*
X169850000Y-93850000D02*
X170000000Y-94000000D01*
X167490000Y-100200000D02*
X169800000Y-100200000D01*
X169800000Y-100200000D02*
X170000000Y-100000000D01*
X170000000Y-100000000D02*
X170000000Y-94000000D01*
X170000000Y-111000000D02*
X170000000Y-100000000D01*
X157080000Y-139570000D02*
X157080000Y-141765000D01*
X157080000Y-141765000D02*
X156845000Y-142000000D01*
X156845000Y-142000000D02*
X161530000Y-142000000D01*
X170000000Y-133530000D02*
X170000000Y-131000000D01*
X170000000Y-131000000D02*
X170000000Y-111000000D01*
X167490000Y-111630000D02*
X169370000Y-111630000D01*
X169370000Y-111630000D02*
X170000000Y-111000000D01*
X161530000Y-142000000D02*
X170000000Y-133530000D01*
X110000000Y-142000000D02*
X156845000Y-142000000D01*
X107800000Y-139800000D02*
X110000000Y-142000000D01*
X161500000Y-67000000D02*
X170000000Y-75500000D01*
X170000000Y-82000000D02*
X170000000Y-75500000D01*
X161500000Y-67000000D02*
X155000000Y-67000000D01*
D18*
G04 #@! TO.N,IR_E0*
X148720000Y-69720000D02*
X148440000Y-69720000D01*
X156060000Y-83055000D02*
X156060000Y-77060000D01*
X156060000Y-77060000D02*
X148720000Y-69720000D01*
G04 #@! TO.N,IR_E1*
X159870000Y-81785000D02*
X159870000Y-69720000D01*
X156060000Y-85595000D02*
X159870000Y-81785000D01*
G04 #@! TO.N,IR_E2*
X166855000Y-77340000D02*
X167490000Y-77340000D01*
X156060000Y-88135000D02*
X166855000Y-77340000D01*
G04 #@! TO.N,IR_E3*
X157965000Y-88770000D02*
X167490000Y-88770000D01*
X156060000Y-90675000D02*
X157965000Y-88770000D01*
G04 #@! TO.N,IR_E4*
X105260000Y-70260000D02*
X105260000Y-69720000D01*
X110000000Y-75000000D02*
X105260000Y-70260000D01*
X156060000Y-93215000D02*
X137845000Y-75000000D01*
X137845000Y-75000000D02*
X110000000Y-75000000D01*
G04 #@! TO.N,IR_E5*
X137645000Y-77340000D02*
X95100000Y-77340000D01*
X156060000Y-95755000D02*
X137645000Y-77340000D01*
G04 #@! TO.N,IR_E6*
X96450000Y-88770000D02*
X104220000Y-81000000D01*
X95100000Y-88770000D02*
X96450000Y-88770000D01*
X104220000Y-81000000D02*
X138765000Y-81000000D01*
X138765000Y-81000000D02*
X156060000Y-98295000D01*
G04 #@! TO.N,/Trig*
X141835000Y-100835000D02*
X156060000Y-100835000D01*
X129000000Y-88000000D02*
X141835000Y-100835000D01*
X121770000Y-69720000D02*
X125580000Y-73530000D01*
X125580000Y-73530000D02*
X127485000Y-73530000D01*
G04 #@! TO.N,M1*
X146920000Y-114039000D02*
X146920000Y-139570000D01*
X156060000Y-104899000D02*
X146920000Y-114039000D01*
G04 #@! TO.N,M2*
X149460000Y-114039000D02*
X149460000Y-139570000D01*
X156060000Y-107439000D02*
X149460000Y-114039000D01*
G04 #@! TO.N,M3*
X152000000Y-114039000D02*
X152000000Y-139570000D01*
X156060000Y-109979000D02*
X152000000Y-114039000D01*
G04 #@! TO.N,M4*
X154540000Y-114039000D02*
X156060000Y-112519000D01*
X154540000Y-139570000D02*
X154540000Y-114039000D01*
G04 #@! TD*
D19*
G04 #@! TO.N,GND*
G36*
X170815000Y-134976673D02*
X170741119Y-136060399D01*
X170525584Y-137101180D01*
X170170793Y-138103079D01*
X169683313Y-139047555D01*
X169072158Y-139917140D01*
X168348648Y-140695729D01*
X167526164Y-141368926D01*
X166619923Y-141924270D01*
X165646696Y-142351488D01*
X164624496Y-142642669D01*
X163561552Y-142793948D01*
X162987444Y-142815000D01*
X162350487Y-142815000D01*
X162411613Y-142723518D01*
X170723522Y-134411610D01*
X170815000Y-134350487D01*
X170815000Y-134976673D01*
X170815000Y-134976673D01*
G37*
X170815000Y-134976673D02*
X170741119Y-136060399D01*
X170525584Y-137101180D01*
X170170793Y-138103079D01*
X169683313Y-139047555D01*
X169072158Y-139917140D01*
X168348648Y-140695729D01*
X167526164Y-141368926D01*
X166619923Y-141924270D01*
X165646696Y-142351488D01*
X164624496Y-142642669D01*
X163561552Y-142793948D01*
X162987444Y-142815000D01*
X162350487Y-142815000D01*
X162411613Y-142723518D01*
X170723522Y-134411610D01*
X170815000Y-134350487D01*
X170815000Y-134976673D01*
G36*
X117397577Y-104064156D02*
X117446951Y-104138049D01*
X117520844Y-104187423D01*
X117520845Y-104187424D01*
X117630886Y-104260951D01*
X117739690Y-104333652D01*
X117997835Y-104385000D01*
X117997839Y-104385000D01*
X118084999Y-104402337D01*
X118172159Y-104385000D01*
X154760803Y-104385000D01*
X154663000Y-104621119D01*
X154663000Y-105044421D01*
X146355847Y-113351575D01*
X146281951Y-113400951D01*
X146086348Y-113693691D01*
X146035000Y-113951836D01*
X146035000Y-113951839D01*
X146017663Y-114039000D01*
X146035000Y-114126161D01*
X146035001Y-138079522D01*
X145822235Y-138121843D01*
X145612191Y-138262191D01*
X145471843Y-138472235D01*
X145422560Y-138720000D01*
X145422560Y-140420000D01*
X145471843Y-140667765D01*
X145603632Y-140865000D01*
X111050537Y-140865000D01*
X111106924Y-140841645D01*
X111535183Y-140451358D01*
X111781486Y-139926892D01*
X111660819Y-139697000D01*
X110467000Y-139697000D01*
X110467000Y-139717000D01*
X110213000Y-139717000D01*
X110213000Y-139697000D01*
X110193000Y-139697000D01*
X110193000Y-139443000D01*
X110213000Y-139443000D01*
X110213000Y-138249845D01*
X110467000Y-138249845D01*
X110467000Y-139443000D01*
X111660819Y-139443000D01*
X111781486Y-139213108D01*
X111535183Y-138688642D01*
X111106924Y-138298355D01*
X110696890Y-138128524D01*
X110467000Y-138249845D01*
X110213000Y-138249845D01*
X109983110Y-138128524D01*
X109573076Y-138298355D01*
X109268739Y-138575708D01*
X109248157Y-138472235D01*
X109107809Y-138262191D01*
X108935000Y-138146723D01*
X108935000Y-116915657D01*
X108984320Y-116866337D01*
X109197000Y-116352881D01*
X109197000Y-115797119D01*
X108984320Y-115283663D01*
X108591337Y-114890680D01*
X108384487Y-114805000D01*
X108591337Y-114719320D01*
X108984320Y-114326337D01*
X109197000Y-113812881D01*
X109197000Y-113257119D01*
X108984320Y-112743663D01*
X108591337Y-112350680D01*
X108384487Y-112265000D01*
X108591337Y-112179320D01*
X108984320Y-111786337D01*
X109197000Y-111272881D01*
X109197000Y-110717119D01*
X108984320Y-110203663D01*
X108591337Y-109810680D01*
X108384487Y-109725000D01*
X108591337Y-109639320D01*
X108984320Y-109246337D01*
X109197000Y-108732881D01*
X109197000Y-108177119D01*
X108984320Y-107663663D01*
X108591337Y-107270680D01*
X108400353Y-107191572D01*
X108531143Y-107137397D01*
X108600608Y-106895213D01*
X107800000Y-106094605D01*
X106999392Y-106895213D01*
X107068857Y-107137397D01*
X107209393Y-107187535D01*
X107008663Y-107270680D01*
X106615680Y-107663663D01*
X106403000Y-108177119D01*
X106403000Y-108732881D01*
X106615680Y-109246337D01*
X107008663Y-109639320D01*
X107215513Y-109725000D01*
X107008663Y-109810680D01*
X106615680Y-110203663D01*
X106403000Y-110717119D01*
X106403000Y-111272881D01*
X106615680Y-111786337D01*
X107008663Y-112179320D01*
X107215513Y-112265000D01*
X107008663Y-112350680D01*
X106615680Y-112743663D01*
X106403000Y-113257119D01*
X106403000Y-113812881D01*
X106615680Y-114326337D01*
X107008663Y-114719320D01*
X107215513Y-114805000D01*
X107008663Y-114890680D01*
X106615680Y-115283663D01*
X106403000Y-115797119D01*
X106403000Y-116352881D01*
X106615680Y-116866337D01*
X106665000Y-116915657D01*
X106665001Y-138146722D01*
X106492191Y-138262191D01*
X106351843Y-138472235D01*
X106302560Y-138720000D01*
X106302560Y-140420000D01*
X106351843Y-140667765D01*
X106492191Y-140877809D01*
X106702235Y-141018157D01*
X106950000Y-141067440D01*
X107462309Y-141067440D01*
X109118389Y-142723521D01*
X109179513Y-142815000D01*
X99023327Y-142815000D01*
X97939601Y-142741119D01*
X96898820Y-142525584D01*
X95896921Y-142170793D01*
X94952445Y-141683313D01*
X94082860Y-141072158D01*
X93304271Y-140348648D01*
X92631074Y-139526164D01*
X92075730Y-138619923D01*
X91648512Y-137646696D01*
X91357331Y-136624496D01*
X91206052Y-135561552D01*
X91185000Y-134987444D01*
X91185000Y-116995750D01*
X93615000Y-116995750D01*
X93615000Y-117686310D01*
X93711673Y-117919699D01*
X93890302Y-118098327D01*
X94123691Y-118195000D01*
X94814250Y-118195000D01*
X94973000Y-118036250D01*
X94973000Y-116837000D01*
X95227000Y-116837000D01*
X95227000Y-118036250D01*
X95385750Y-118195000D01*
X96076309Y-118195000D01*
X96309698Y-118098327D01*
X96488327Y-117919699D01*
X96585000Y-117686310D01*
X96585000Y-116995750D01*
X96426250Y-116837000D01*
X95227000Y-116837000D01*
X94973000Y-116837000D01*
X93773750Y-116837000D01*
X93615000Y-116995750D01*
X91185000Y-116995750D01*
X91185000Y-109350487D01*
X91276482Y-109411613D01*
X93608513Y-111743645D01*
X93701161Y-112209418D01*
X94029375Y-112700625D01*
X94327761Y-112900000D01*
X94029375Y-113099375D01*
X93701161Y-113590582D01*
X93585908Y-114170000D01*
X93701161Y-114749418D01*
X94029375Y-115240625D01*
X94051033Y-115255096D01*
X93890302Y-115321673D01*
X93711673Y-115500301D01*
X93615000Y-115733690D01*
X93615000Y-116424250D01*
X93773750Y-116583000D01*
X94973000Y-116583000D01*
X94973000Y-116563000D01*
X95227000Y-116563000D01*
X95227000Y-116583000D01*
X96426250Y-116583000D01*
X96585000Y-116424250D01*
X96585000Y-115733690D01*
X96488327Y-115500301D01*
X96309698Y-115321673D01*
X96148967Y-115255096D01*
X96170625Y-115240625D01*
X96498839Y-114749418D01*
X96614092Y-114170000D01*
X96570538Y-113951040D01*
X98564156Y-111957423D01*
X98638049Y-111908049D01*
X98833652Y-111615310D01*
X98885000Y-111357165D01*
X98885000Y-111357161D01*
X98902337Y-111270001D01*
X98885000Y-111182841D01*
X98885000Y-105921578D01*
X99099276Y-105707302D01*
X106390856Y-105707302D01*
X106418638Y-106262368D01*
X106577603Y-106646143D01*
X106819787Y-106715608D01*
X107620395Y-105915000D01*
X107979605Y-105915000D01*
X108780213Y-106715608D01*
X109022397Y-106646143D01*
X109209144Y-106122698D01*
X109181362Y-105567632D01*
X109022397Y-105183857D01*
X108780213Y-105114392D01*
X107979605Y-105915000D01*
X107620395Y-105915000D01*
X106819787Y-105114392D01*
X106577603Y-105183857D01*
X106390856Y-105707302D01*
X99099276Y-105707302D01*
X100451365Y-104355213D01*
X106999392Y-104355213D01*
X107068857Y-104597397D01*
X107192344Y-104641453D01*
X107068857Y-104692603D01*
X106999392Y-104934787D01*
X107800000Y-105735395D01*
X108600608Y-104934787D01*
X108531143Y-104692603D01*
X108407656Y-104648547D01*
X108531143Y-104597397D01*
X108600608Y-104355213D01*
X107800000Y-103554605D01*
X106999392Y-104355213D01*
X100451365Y-104355213D01*
X101639276Y-103167302D01*
X106390856Y-103167302D01*
X106418638Y-103722368D01*
X106577603Y-104106143D01*
X106819787Y-104175608D01*
X107620395Y-103375000D01*
X107979605Y-103375000D01*
X108780213Y-104175608D01*
X109022397Y-104106143D01*
X109209144Y-103582698D01*
X109181362Y-103027632D01*
X109022397Y-102643857D01*
X108780213Y-102574392D01*
X107979605Y-103375000D01*
X107620395Y-103375000D01*
X106819787Y-102574392D01*
X106577603Y-102643857D01*
X106390856Y-103167302D01*
X101639276Y-103167302D01*
X104249459Y-100557119D01*
X106403000Y-100557119D01*
X106403000Y-101112881D01*
X106615680Y-101626337D01*
X107008663Y-102019320D01*
X107199647Y-102098428D01*
X107068857Y-102152603D01*
X106999392Y-102394787D01*
X107800000Y-103195395D01*
X108600608Y-102394787D01*
X108531143Y-102152603D01*
X108390607Y-102102465D01*
X108591337Y-102019320D01*
X108984320Y-101626337D01*
X109197000Y-101112881D01*
X109197000Y-100557119D01*
X108984320Y-100043663D01*
X108591337Y-99650680D01*
X108077881Y-99438000D01*
X107522119Y-99438000D01*
X107008663Y-99650680D01*
X106615680Y-100043663D01*
X106403000Y-100557119D01*
X104249459Y-100557119D01*
X107654579Y-97152000D01*
X108077881Y-97152000D01*
X108591337Y-96939320D01*
X108984320Y-96546337D01*
X109197000Y-96032881D01*
X109197000Y-95863578D01*
X117397577Y-104064156D01*
X117397577Y-104064156D01*
G37*
X117397577Y-104064156D02*
X117446951Y-104138049D01*
X117520844Y-104187423D01*
X117520845Y-104187424D01*
X117630886Y-104260951D01*
X117739690Y-104333652D01*
X117997835Y-104385000D01*
X117997839Y-104385000D01*
X118084999Y-104402337D01*
X118172159Y-104385000D01*
X154760803Y-104385000D01*
X154663000Y-104621119D01*
X154663000Y-105044421D01*
X146355847Y-113351575D01*
X146281951Y-113400951D01*
X146086348Y-113693691D01*
X146035000Y-113951836D01*
X146035000Y-113951839D01*
X146017663Y-114039000D01*
X146035000Y-114126161D01*
X146035001Y-138079522D01*
X145822235Y-138121843D01*
X145612191Y-138262191D01*
X145471843Y-138472235D01*
X145422560Y-138720000D01*
X145422560Y-140420000D01*
X145471843Y-140667765D01*
X145603632Y-140865000D01*
X111050537Y-140865000D01*
X111106924Y-140841645D01*
X111535183Y-140451358D01*
X111781486Y-139926892D01*
X111660819Y-139697000D01*
X110467000Y-139697000D01*
X110467000Y-139717000D01*
X110213000Y-139717000D01*
X110213000Y-139697000D01*
X110193000Y-139697000D01*
X110193000Y-139443000D01*
X110213000Y-139443000D01*
X110213000Y-138249845D01*
X110467000Y-138249845D01*
X110467000Y-139443000D01*
X111660819Y-139443000D01*
X111781486Y-139213108D01*
X111535183Y-138688642D01*
X111106924Y-138298355D01*
X110696890Y-138128524D01*
X110467000Y-138249845D01*
X110213000Y-138249845D01*
X109983110Y-138128524D01*
X109573076Y-138298355D01*
X109268739Y-138575708D01*
X109248157Y-138472235D01*
X109107809Y-138262191D01*
X108935000Y-138146723D01*
X108935000Y-116915657D01*
X108984320Y-116866337D01*
X109197000Y-116352881D01*
X109197000Y-115797119D01*
X108984320Y-115283663D01*
X108591337Y-114890680D01*
X108384487Y-114805000D01*
X108591337Y-114719320D01*
X108984320Y-114326337D01*
X109197000Y-113812881D01*
X109197000Y-113257119D01*
X108984320Y-112743663D01*
X108591337Y-112350680D01*
X108384487Y-112265000D01*
X108591337Y-112179320D01*
X108984320Y-111786337D01*
X109197000Y-111272881D01*
X109197000Y-110717119D01*
X108984320Y-110203663D01*
X108591337Y-109810680D01*
X108384487Y-109725000D01*
X108591337Y-109639320D01*
X108984320Y-109246337D01*
X109197000Y-108732881D01*
X109197000Y-108177119D01*
X108984320Y-107663663D01*
X108591337Y-107270680D01*
X108400353Y-107191572D01*
X108531143Y-107137397D01*
X108600608Y-106895213D01*
X107800000Y-106094605D01*
X106999392Y-106895213D01*
X107068857Y-107137397D01*
X107209393Y-107187535D01*
X107008663Y-107270680D01*
X106615680Y-107663663D01*
X106403000Y-108177119D01*
X106403000Y-108732881D01*
X106615680Y-109246337D01*
X107008663Y-109639320D01*
X107215513Y-109725000D01*
X107008663Y-109810680D01*
X106615680Y-110203663D01*
X106403000Y-110717119D01*
X106403000Y-111272881D01*
X106615680Y-111786337D01*
X107008663Y-112179320D01*
X107215513Y-112265000D01*
X107008663Y-112350680D01*
X106615680Y-112743663D01*
X106403000Y-113257119D01*
X106403000Y-113812881D01*
X106615680Y-114326337D01*
X107008663Y-114719320D01*
X107215513Y-114805000D01*
X107008663Y-114890680D01*
X106615680Y-115283663D01*
X106403000Y-115797119D01*
X106403000Y-116352881D01*
X106615680Y-116866337D01*
X106665000Y-116915657D01*
X106665001Y-138146722D01*
X106492191Y-138262191D01*
X106351843Y-138472235D01*
X106302560Y-138720000D01*
X106302560Y-140420000D01*
X106351843Y-140667765D01*
X106492191Y-140877809D01*
X106702235Y-141018157D01*
X106950000Y-141067440D01*
X107462309Y-141067440D01*
X109118389Y-142723521D01*
X109179513Y-142815000D01*
X99023327Y-142815000D01*
X97939601Y-142741119D01*
X96898820Y-142525584D01*
X95896921Y-142170793D01*
X94952445Y-141683313D01*
X94082860Y-141072158D01*
X93304271Y-140348648D01*
X92631074Y-139526164D01*
X92075730Y-138619923D01*
X91648512Y-137646696D01*
X91357331Y-136624496D01*
X91206052Y-135561552D01*
X91185000Y-134987444D01*
X91185000Y-116995750D01*
X93615000Y-116995750D01*
X93615000Y-117686310D01*
X93711673Y-117919699D01*
X93890302Y-118098327D01*
X94123691Y-118195000D01*
X94814250Y-118195000D01*
X94973000Y-118036250D01*
X94973000Y-116837000D01*
X95227000Y-116837000D01*
X95227000Y-118036250D01*
X95385750Y-118195000D01*
X96076309Y-118195000D01*
X96309698Y-118098327D01*
X96488327Y-117919699D01*
X96585000Y-117686310D01*
X96585000Y-116995750D01*
X96426250Y-116837000D01*
X95227000Y-116837000D01*
X94973000Y-116837000D01*
X93773750Y-116837000D01*
X93615000Y-116995750D01*
X91185000Y-116995750D01*
X91185000Y-109350487D01*
X91276482Y-109411613D01*
X93608513Y-111743645D01*
X93701161Y-112209418D01*
X94029375Y-112700625D01*
X94327761Y-112900000D01*
X94029375Y-113099375D01*
X93701161Y-113590582D01*
X93585908Y-114170000D01*
X93701161Y-114749418D01*
X94029375Y-115240625D01*
X94051033Y-115255096D01*
X93890302Y-115321673D01*
X93711673Y-115500301D01*
X93615000Y-115733690D01*
X93615000Y-116424250D01*
X93773750Y-116583000D01*
X94973000Y-116583000D01*
X94973000Y-116563000D01*
X95227000Y-116563000D01*
X95227000Y-116583000D01*
X96426250Y-116583000D01*
X96585000Y-116424250D01*
X96585000Y-115733690D01*
X96488327Y-115500301D01*
X96309698Y-115321673D01*
X96148967Y-115255096D01*
X96170625Y-115240625D01*
X96498839Y-114749418D01*
X96614092Y-114170000D01*
X96570538Y-113951040D01*
X98564156Y-111957423D01*
X98638049Y-111908049D01*
X98833652Y-111615310D01*
X98885000Y-111357165D01*
X98885000Y-111357161D01*
X98902337Y-111270001D01*
X98885000Y-111182841D01*
X98885000Y-105921578D01*
X99099276Y-105707302D01*
X106390856Y-105707302D01*
X106418638Y-106262368D01*
X106577603Y-106646143D01*
X106819787Y-106715608D01*
X107620395Y-105915000D01*
X107979605Y-105915000D01*
X108780213Y-106715608D01*
X109022397Y-106646143D01*
X109209144Y-106122698D01*
X109181362Y-105567632D01*
X109022397Y-105183857D01*
X108780213Y-105114392D01*
X107979605Y-105915000D01*
X107620395Y-105915000D01*
X106819787Y-105114392D01*
X106577603Y-105183857D01*
X106390856Y-105707302D01*
X99099276Y-105707302D01*
X100451365Y-104355213D01*
X106999392Y-104355213D01*
X107068857Y-104597397D01*
X107192344Y-104641453D01*
X107068857Y-104692603D01*
X106999392Y-104934787D01*
X107800000Y-105735395D01*
X108600608Y-104934787D01*
X108531143Y-104692603D01*
X108407656Y-104648547D01*
X108531143Y-104597397D01*
X108600608Y-104355213D01*
X107800000Y-103554605D01*
X106999392Y-104355213D01*
X100451365Y-104355213D01*
X101639276Y-103167302D01*
X106390856Y-103167302D01*
X106418638Y-103722368D01*
X106577603Y-104106143D01*
X106819787Y-104175608D01*
X107620395Y-103375000D01*
X107979605Y-103375000D01*
X108780213Y-104175608D01*
X109022397Y-104106143D01*
X109209144Y-103582698D01*
X109181362Y-103027632D01*
X109022397Y-102643857D01*
X108780213Y-102574392D01*
X107979605Y-103375000D01*
X107620395Y-103375000D01*
X106819787Y-102574392D01*
X106577603Y-102643857D01*
X106390856Y-103167302D01*
X101639276Y-103167302D01*
X104249459Y-100557119D01*
X106403000Y-100557119D01*
X106403000Y-101112881D01*
X106615680Y-101626337D01*
X107008663Y-102019320D01*
X107199647Y-102098428D01*
X107068857Y-102152603D01*
X106999392Y-102394787D01*
X107800000Y-103195395D01*
X108600608Y-102394787D01*
X108531143Y-102152603D01*
X108390607Y-102102465D01*
X108591337Y-102019320D01*
X108984320Y-101626337D01*
X109197000Y-101112881D01*
X109197000Y-100557119D01*
X108984320Y-100043663D01*
X108591337Y-99650680D01*
X108077881Y-99438000D01*
X107522119Y-99438000D01*
X107008663Y-99650680D01*
X106615680Y-100043663D01*
X106403000Y-100557119D01*
X104249459Y-100557119D01*
X107654579Y-97152000D01*
X108077881Y-97152000D01*
X108591337Y-96939320D01*
X108984320Y-96546337D01*
X109197000Y-96032881D01*
X109197000Y-95863578D01*
X117397577Y-104064156D01*
G36*
X166019462Y-113951041D02*
X165975908Y-114170000D01*
X166091161Y-114749418D01*
X166419375Y-115240625D01*
X166441033Y-115255096D01*
X166280302Y-115321673D01*
X166101673Y-115500301D01*
X166005000Y-115733690D01*
X166005000Y-116424250D01*
X166163750Y-116583000D01*
X167363000Y-116583000D01*
X167363000Y-116563000D01*
X167617000Y-116563000D01*
X167617000Y-116583000D01*
X167637000Y-116583000D01*
X167637000Y-116837000D01*
X167617000Y-116837000D01*
X167617000Y-118036250D01*
X167775750Y-118195000D01*
X168466309Y-118195000D01*
X168699698Y-118098327D01*
X168865001Y-117933025D01*
X168865000Y-131111782D01*
X168865001Y-131111787D01*
X168865000Y-133059868D01*
X161059869Y-140865000D01*
X160330537Y-140865000D01*
X160386924Y-140841645D01*
X160815183Y-140451358D01*
X161061486Y-139926892D01*
X160940819Y-139697000D01*
X159747000Y-139697000D01*
X159747000Y-139717000D01*
X159493000Y-139717000D01*
X159493000Y-139697000D01*
X159473000Y-139697000D01*
X159473000Y-139443000D01*
X159493000Y-139443000D01*
X159493000Y-138249845D01*
X159747000Y-138249845D01*
X159747000Y-139443000D01*
X160940819Y-139443000D01*
X161061486Y-139213108D01*
X160815183Y-138688642D01*
X160386924Y-138298355D01*
X159976890Y-138128524D01*
X159747000Y-138249845D01*
X159493000Y-138249845D01*
X159263110Y-138128524D01*
X158853076Y-138298355D01*
X158424817Y-138688642D01*
X158363843Y-138818478D01*
X158150625Y-138499375D01*
X157659418Y-138171161D01*
X157226256Y-138085000D01*
X156933744Y-138085000D01*
X156500582Y-138171161D01*
X156009375Y-138499375D01*
X155810000Y-138797761D01*
X155610625Y-138499375D01*
X155425000Y-138375344D01*
X155425000Y-129168440D01*
X156822000Y-129168440D01*
X157069765Y-129119157D01*
X157279809Y-128978809D01*
X157420157Y-128768765D01*
X157469440Y-128521000D01*
X157469440Y-126997000D01*
X157420157Y-126749235D01*
X157279809Y-126539191D01*
X157069765Y-126398843D01*
X156891310Y-126363347D01*
X157244320Y-126010337D01*
X157457000Y-125496881D01*
X157457000Y-124941119D01*
X157244320Y-124427663D01*
X156851337Y-124034680D01*
X156644487Y-123949000D01*
X156851337Y-123863320D01*
X157244320Y-123470337D01*
X157457000Y-122956881D01*
X157457000Y-122401119D01*
X157244320Y-121887663D01*
X156851337Y-121494680D01*
X156660353Y-121415572D01*
X156791143Y-121361397D01*
X156860608Y-121119213D01*
X156060000Y-120318605D01*
X156045858Y-120332748D01*
X155866253Y-120153143D01*
X155880395Y-120139000D01*
X156239605Y-120139000D01*
X157040213Y-120939608D01*
X157282397Y-120870143D01*
X157469144Y-120346698D01*
X157441362Y-119791632D01*
X157282397Y-119407857D01*
X157040213Y-119338392D01*
X156239605Y-120139000D01*
X155880395Y-120139000D01*
X155866253Y-120124858D01*
X156045858Y-119945253D01*
X156060000Y-119959395D01*
X156860608Y-119158787D01*
X156791143Y-118916603D01*
X156650607Y-118866465D01*
X156851337Y-118783320D01*
X157244320Y-118390337D01*
X157457000Y-117876881D01*
X157457000Y-117321119D01*
X157322229Y-116995750D01*
X166005000Y-116995750D01*
X166005000Y-117686310D01*
X166101673Y-117919699D01*
X166280302Y-118098327D01*
X166513691Y-118195000D01*
X167204250Y-118195000D01*
X167363000Y-118036250D01*
X167363000Y-116837000D01*
X166163750Y-116837000D01*
X166005000Y-116995750D01*
X157322229Y-116995750D01*
X157244320Y-116807663D01*
X156851337Y-116414680D01*
X156644487Y-116329000D01*
X156851337Y-116243320D01*
X157244320Y-115850337D01*
X157457000Y-115336881D01*
X157457000Y-114781119D01*
X157244320Y-114267663D01*
X156851337Y-113874680D01*
X156644487Y-113789000D01*
X156851337Y-113703320D01*
X157244320Y-113310337D01*
X157457000Y-112796881D01*
X157457000Y-112241119D01*
X157244320Y-111727663D01*
X156851337Y-111334680D01*
X156644487Y-111249000D01*
X156851337Y-111163320D01*
X157244320Y-110770337D01*
X157457000Y-110256881D01*
X157457000Y-109701119D01*
X157244320Y-109187663D01*
X156851337Y-108794680D01*
X156644487Y-108709000D01*
X156851337Y-108623320D01*
X157244320Y-108230337D01*
X157457000Y-107716881D01*
X157457000Y-107161119D01*
X157244320Y-106647663D01*
X156851337Y-106254680D01*
X156644487Y-106169000D01*
X156851337Y-106083320D01*
X157244320Y-105690337D01*
X157394995Y-105326574D01*
X166019462Y-113951041D01*
X166019462Y-113951041D01*
G37*
X166019462Y-113951041D02*
X165975908Y-114170000D01*
X166091161Y-114749418D01*
X166419375Y-115240625D01*
X166441033Y-115255096D01*
X166280302Y-115321673D01*
X166101673Y-115500301D01*
X166005000Y-115733690D01*
X166005000Y-116424250D01*
X166163750Y-116583000D01*
X167363000Y-116583000D01*
X167363000Y-116563000D01*
X167617000Y-116563000D01*
X167617000Y-116583000D01*
X167637000Y-116583000D01*
X167637000Y-116837000D01*
X167617000Y-116837000D01*
X167617000Y-118036250D01*
X167775750Y-118195000D01*
X168466309Y-118195000D01*
X168699698Y-118098327D01*
X168865001Y-117933025D01*
X168865000Y-131111782D01*
X168865001Y-131111787D01*
X168865000Y-133059868D01*
X161059869Y-140865000D01*
X160330537Y-140865000D01*
X160386924Y-140841645D01*
X160815183Y-140451358D01*
X161061486Y-139926892D01*
X160940819Y-139697000D01*
X159747000Y-139697000D01*
X159747000Y-139717000D01*
X159493000Y-139717000D01*
X159493000Y-139697000D01*
X159473000Y-139697000D01*
X159473000Y-139443000D01*
X159493000Y-139443000D01*
X159493000Y-138249845D01*
X159747000Y-138249845D01*
X159747000Y-139443000D01*
X160940819Y-139443000D01*
X161061486Y-139213108D01*
X160815183Y-138688642D01*
X160386924Y-138298355D01*
X159976890Y-138128524D01*
X159747000Y-138249845D01*
X159493000Y-138249845D01*
X159263110Y-138128524D01*
X158853076Y-138298355D01*
X158424817Y-138688642D01*
X158363843Y-138818478D01*
X158150625Y-138499375D01*
X157659418Y-138171161D01*
X157226256Y-138085000D01*
X156933744Y-138085000D01*
X156500582Y-138171161D01*
X156009375Y-138499375D01*
X155810000Y-138797761D01*
X155610625Y-138499375D01*
X155425000Y-138375344D01*
X155425000Y-129168440D01*
X156822000Y-129168440D01*
X157069765Y-129119157D01*
X157279809Y-128978809D01*
X157420157Y-128768765D01*
X157469440Y-128521000D01*
X157469440Y-126997000D01*
X157420157Y-126749235D01*
X157279809Y-126539191D01*
X157069765Y-126398843D01*
X156891310Y-126363347D01*
X157244320Y-126010337D01*
X157457000Y-125496881D01*
X157457000Y-124941119D01*
X157244320Y-124427663D01*
X156851337Y-124034680D01*
X156644487Y-123949000D01*
X156851337Y-123863320D01*
X157244320Y-123470337D01*
X157457000Y-122956881D01*
X157457000Y-122401119D01*
X157244320Y-121887663D01*
X156851337Y-121494680D01*
X156660353Y-121415572D01*
X156791143Y-121361397D01*
X156860608Y-121119213D01*
X156060000Y-120318605D01*
X156045858Y-120332748D01*
X155866253Y-120153143D01*
X155880395Y-120139000D01*
X156239605Y-120139000D01*
X157040213Y-120939608D01*
X157282397Y-120870143D01*
X157469144Y-120346698D01*
X157441362Y-119791632D01*
X157282397Y-119407857D01*
X157040213Y-119338392D01*
X156239605Y-120139000D01*
X155880395Y-120139000D01*
X155866253Y-120124858D01*
X156045858Y-119945253D01*
X156060000Y-119959395D01*
X156860608Y-119158787D01*
X156791143Y-118916603D01*
X156650607Y-118866465D01*
X156851337Y-118783320D01*
X157244320Y-118390337D01*
X157457000Y-117876881D01*
X157457000Y-117321119D01*
X157322229Y-116995750D01*
X166005000Y-116995750D01*
X166005000Y-117686310D01*
X166101673Y-117919699D01*
X166280302Y-118098327D01*
X166513691Y-118195000D01*
X167204250Y-118195000D01*
X167363000Y-118036250D01*
X167363000Y-116837000D01*
X166163750Y-116837000D01*
X166005000Y-116995750D01*
X157322229Y-116995750D01*
X157244320Y-116807663D01*
X156851337Y-116414680D01*
X156644487Y-116329000D01*
X156851337Y-116243320D01*
X157244320Y-115850337D01*
X157457000Y-115336881D01*
X157457000Y-114781119D01*
X157244320Y-114267663D01*
X156851337Y-113874680D01*
X156644487Y-113789000D01*
X156851337Y-113703320D01*
X157244320Y-113310337D01*
X157457000Y-112796881D01*
X157457000Y-112241119D01*
X157244320Y-111727663D01*
X156851337Y-111334680D01*
X156644487Y-111249000D01*
X156851337Y-111163320D01*
X157244320Y-110770337D01*
X157457000Y-110256881D01*
X157457000Y-109701119D01*
X157244320Y-109187663D01*
X156851337Y-108794680D01*
X156644487Y-108709000D01*
X156851337Y-108623320D01*
X157244320Y-108230337D01*
X157457000Y-107716881D01*
X157457000Y-107161119D01*
X157244320Y-106647663D01*
X156851337Y-106254680D01*
X156644487Y-106169000D01*
X156851337Y-106083320D01*
X157244320Y-105690337D01*
X157394995Y-105326574D01*
X166019462Y-113951041D01*
G36*
X166419375Y-103810625D02*
X166441033Y-103825096D01*
X166280302Y-103891673D01*
X166101673Y-104070301D01*
X166005000Y-104303690D01*
X166005000Y-104994250D01*
X166163750Y-105153000D01*
X167363000Y-105153000D01*
X167363000Y-105133000D01*
X167617000Y-105133000D01*
X167617000Y-105153000D01*
X167637000Y-105153000D01*
X167637000Y-105407000D01*
X167617000Y-105407000D01*
X167617000Y-106606250D01*
X167775750Y-106765000D01*
X168466309Y-106765000D01*
X168699698Y-106668327D01*
X168865000Y-106503026D01*
X168865000Y-110495000D01*
X168464281Y-110495000D01*
X168069418Y-110231161D01*
X167636256Y-110145000D01*
X167343744Y-110145000D01*
X166910582Y-110231161D01*
X166419375Y-110559375D01*
X166091161Y-111050582D01*
X166013349Y-111441770D01*
X160137329Y-105565750D01*
X166005000Y-105565750D01*
X166005000Y-106256310D01*
X166101673Y-106489699D01*
X166280302Y-106668327D01*
X166513691Y-106765000D01*
X167204250Y-106765000D01*
X167363000Y-106606250D01*
X167363000Y-105407000D01*
X166163750Y-105407000D01*
X166005000Y-105565750D01*
X160137329Y-105565750D01*
X157956578Y-103385000D01*
X166134981Y-103385000D01*
X166419375Y-103810625D01*
X166419375Y-103810625D01*
G37*
X166419375Y-103810625D02*
X166441033Y-103825096D01*
X166280302Y-103891673D01*
X166101673Y-104070301D01*
X166005000Y-104303690D01*
X166005000Y-104994250D01*
X166163750Y-105153000D01*
X167363000Y-105153000D01*
X167363000Y-105133000D01*
X167617000Y-105133000D01*
X167617000Y-105153000D01*
X167637000Y-105153000D01*
X167637000Y-105407000D01*
X167617000Y-105407000D01*
X167617000Y-106606250D01*
X167775750Y-106765000D01*
X168466309Y-106765000D01*
X168699698Y-106668327D01*
X168865000Y-106503026D01*
X168865000Y-110495000D01*
X168464281Y-110495000D01*
X168069418Y-110231161D01*
X167636256Y-110145000D01*
X167343744Y-110145000D01*
X166910582Y-110231161D01*
X166419375Y-110559375D01*
X166091161Y-111050582D01*
X166013349Y-111441770D01*
X160137329Y-105565750D01*
X166005000Y-105565750D01*
X166005000Y-106256310D01*
X166101673Y-106489699D01*
X166280302Y-106668327D01*
X166513691Y-106765000D01*
X167204250Y-106765000D01*
X167363000Y-106606250D01*
X167363000Y-105407000D01*
X166163750Y-105407000D01*
X166005000Y-105565750D01*
X160137329Y-105565750D01*
X157956578Y-103385000D01*
X166134981Y-103385000D01*
X166419375Y-103810625D01*
G36*
X106403000Y-90952881D02*
X106615680Y-91466337D01*
X107008663Y-91859320D01*
X107215513Y-91945000D01*
X107008663Y-92030680D01*
X106615680Y-92423663D01*
X106403000Y-92937119D01*
X106403000Y-93492881D01*
X106615680Y-94006337D01*
X107008663Y-94399320D01*
X107215513Y-94485000D01*
X107008663Y-94570680D01*
X106615680Y-94963663D01*
X106403000Y-95477119D01*
X106403000Y-95900421D01*
X97435847Y-104867575D01*
X97361951Y-104916951D01*
X97166348Y-105209691D01*
X97115000Y-105467836D01*
X97115000Y-105467839D01*
X97097663Y-105555000D01*
X97115000Y-105642161D01*
X97115001Y-110903420D01*
X96576651Y-111441770D01*
X96498839Y-111050582D01*
X96170625Y-110559375D01*
X95679418Y-110231161D01*
X95246256Y-110145000D01*
X95220132Y-110145000D01*
X93135000Y-108059869D01*
X93135000Y-105565750D01*
X93615000Y-105565750D01*
X93615000Y-106256310D01*
X93711673Y-106489699D01*
X93890302Y-106668327D01*
X94123691Y-106765000D01*
X94814250Y-106765000D01*
X94973000Y-106606250D01*
X94973000Y-105407000D01*
X95227000Y-105407000D01*
X95227000Y-106606250D01*
X95385750Y-106765000D01*
X96076309Y-106765000D01*
X96309698Y-106668327D01*
X96488327Y-106489699D01*
X96585000Y-106256310D01*
X96585000Y-105565750D01*
X96426250Y-105407000D01*
X95227000Y-105407000D01*
X94973000Y-105407000D01*
X93773750Y-105407000D01*
X93615000Y-105565750D01*
X93135000Y-105565750D01*
X93135000Y-101335000D01*
X94125719Y-101335000D01*
X94327761Y-101470000D01*
X94029375Y-101669375D01*
X93701161Y-102160582D01*
X93585908Y-102740000D01*
X93701161Y-103319418D01*
X94029375Y-103810625D01*
X94051033Y-103825096D01*
X93890302Y-103891673D01*
X93711673Y-104070301D01*
X93615000Y-104303690D01*
X93615000Y-104994250D01*
X93773750Y-105153000D01*
X94973000Y-105153000D01*
X94973000Y-105133000D01*
X95227000Y-105133000D01*
X95227000Y-105153000D01*
X96426250Y-105153000D01*
X96585000Y-104994250D01*
X96585000Y-104303690D01*
X96488327Y-104070301D01*
X96309698Y-103891673D01*
X96148967Y-103825096D01*
X96170625Y-103810625D01*
X96498839Y-103319418D01*
X96614092Y-102740000D01*
X96570538Y-102521040D01*
X100564156Y-98527423D01*
X100638049Y-98478049D01*
X100833652Y-98185310D01*
X100885000Y-97927165D01*
X100885000Y-97927161D01*
X100902337Y-97840001D01*
X100885000Y-97752841D01*
X100885000Y-96301578D01*
X106403000Y-90783579D01*
X106403000Y-90952881D01*
X106403000Y-90952881D01*
G37*
X106403000Y-90952881D02*
X106615680Y-91466337D01*
X107008663Y-91859320D01*
X107215513Y-91945000D01*
X107008663Y-92030680D01*
X106615680Y-92423663D01*
X106403000Y-92937119D01*
X106403000Y-93492881D01*
X106615680Y-94006337D01*
X107008663Y-94399320D01*
X107215513Y-94485000D01*
X107008663Y-94570680D01*
X106615680Y-94963663D01*
X106403000Y-95477119D01*
X106403000Y-95900421D01*
X97435847Y-104867575D01*
X97361951Y-104916951D01*
X97166348Y-105209691D01*
X97115000Y-105467836D01*
X97115000Y-105467839D01*
X97097663Y-105555000D01*
X97115000Y-105642161D01*
X97115001Y-110903420D01*
X96576651Y-111441770D01*
X96498839Y-111050582D01*
X96170625Y-110559375D01*
X95679418Y-110231161D01*
X95246256Y-110145000D01*
X95220132Y-110145000D01*
X93135000Y-108059869D01*
X93135000Y-105565750D01*
X93615000Y-105565750D01*
X93615000Y-106256310D01*
X93711673Y-106489699D01*
X93890302Y-106668327D01*
X94123691Y-106765000D01*
X94814250Y-106765000D01*
X94973000Y-106606250D01*
X94973000Y-105407000D01*
X95227000Y-105407000D01*
X95227000Y-106606250D01*
X95385750Y-106765000D01*
X96076309Y-106765000D01*
X96309698Y-106668327D01*
X96488327Y-106489699D01*
X96585000Y-106256310D01*
X96585000Y-105565750D01*
X96426250Y-105407000D01*
X95227000Y-105407000D01*
X94973000Y-105407000D01*
X93773750Y-105407000D01*
X93615000Y-105565750D01*
X93135000Y-105565750D01*
X93135000Y-101335000D01*
X94125719Y-101335000D01*
X94327761Y-101470000D01*
X94029375Y-101669375D01*
X93701161Y-102160582D01*
X93585908Y-102740000D01*
X93701161Y-103319418D01*
X94029375Y-103810625D01*
X94051033Y-103825096D01*
X93890302Y-103891673D01*
X93711673Y-104070301D01*
X93615000Y-104303690D01*
X93615000Y-104994250D01*
X93773750Y-105153000D01*
X94973000Y-105153000D01*
X94973000Y-105133000D01*
X95227000Y-105133000D01*
X95227000Y-105153000D01*
X96426250Y-105153000D01*
X96585000Y-104994250D01*
X96585000Y-104303690D01*
X96488327Y-104070301D01*
X96309698Y-103891673D01*
X96148967Y-103825096D01*
X96170625Y-103810625D01*
X96498839Y-103319418D01*
X96614092Y-102740000D01*
X96570538Y-102521040D01*
X100564156Y-98527423D01*
X100638049Y-98478049D01*
X100833652Y-98185310D01*
X100885000Y-97927165D01*
X100885000Y-97927161D01*
X100902337Y-97840001D01*
X100885000Y-97752841D01*
X100885000Y-96301578D01*
X106403000Y-90783579D01*
X106403000Y-90952881D01*
G36*
X166041843Y-89867765D02*
X166182191Y-90077809D01*
X166392235Y-90218157D01*
X166495708Y-90238739D01*
X166218355Y-90543076D01*
X166048524Y-90953110D01*
X166169845Y-91183000D01*
X167363000Y-91183000D01*
X167363000Y-91163000D01*
X167617000Y-91163000D01*
X167617000Y-91183000D01*
X167637000Y-91183000D01*
X167637000Y-91437000D01*
X167617000Y-91437000D01*
X167617000Y-91457000D01*
X167363000Y-91457000D01*
X167363000Y-91437000D01*
X166169845Y-91437000D01*
X166048524Y-91666890D01*
X166218355Y-92076924D01*
X166608642Y-92505183D01*
X166738478Y-92566157D01*
X166419375Y-92779375D01*
X166091161Y-93270582D01*
X165975908Y-93850000D01*
X166091161Y-94429418D01*
X166419375Y-94920625D01*
X166910582Y-95248839D01*
X167343744Y-95335000D01*
X167636256Y-95335000D01*
X168069418Y-95248839D01*
X168464281Y-94985000D01*
X168865001Y-94985000D01*
X168865000Y-99065000D01*
X168464281Y-99065000D01*
X168069418Y-98801161D01*
X167636256Y-98715000D01*
X167343744Y-98715000D01*
X166910582Y-98801161D01*
X166419375Y-99129375D01*
X166091161Y-99620582D01*
X165975908Y-100200000D01*
X166091161Y-100779418D01*
X166419375Y-101270625D01*
X166717761Y-101470000D01*
X166500753Y-101615000D01*
X157249016Y-101615000D01*
X157457000Y-101112881D01*
X157457000Y-100557119D01*
X157244320Y-100043663D01*
X156851337Y-99650680D01*
X156644487Y-99565000D01*
X156851337Y-99479320D01*
X157244320Y-99086337D01*
X157457000Y-98572881D01*
X157457000Y-98017119D01*
X157244320Y-97503663D01*
X156851337Y-97110680D01*
X156644487Y-97025000D01*
X156851337Y-96939320D01*
X157244320Y-96546337D01*
X157457000Y-96032881D01*
X157457000Y-95477119D01*
X157244320Y-94963663D01*
X156851337Y-94570680D01*
X156644487Y-94485000D01*
X156851337Y-94399320D01*
X157244320Y-94006337D01*
X157457000Y-93492881D01*
X157457000Y-92937119D01*
X157244320Y-92423663D01*
X156851337Y-92030680D01*
X156644487Y-91945000D01*
X156851337Y-91859320D01*
X157244320Y-91466337D01*
X157457000Y-90952881D01*
X157457000Y-90529578D01*
X158331579Y-89655000D01*
X165999522Y-89655000D01*
X166041843Y-89867765D01*
X166041843Y-89867765D01*
G37*
X166041843Y-89867765D02*
X166182191Y-90077809D01*
X166392235Y-90218157D01*
X166495708Y-90238739D01*
X166218355Y-90543076D01*
X166048524Y-90953110D01*
X166169845Y-91183000D01*
X167363000Y-91183000D01*
X167363000Y-91163000D01*
X167617000Y-91163000D01*
X167617000Y-91183000D01*
X167637000Y-91183000D01*
X167637000Y-91437000D01*
X167617000Y-91437000D01*
X167617000Y-91457000D01*
X167363000Y-91457000D01*
X167363000Y-91437000D01*
X166169845Y-91437000D01*
X166048524Y-91666890D01*
X166218355Y-92076924D01*
X166608642Y-92505183D01*
X166738478Y-92566157D01*
X166419375Y-92779375D01*
X166091161Y-93270582D01*
X165975908Y-93850000D01*
X166091161Y-94429418D01*
X166419375Y-94920625D01*
X166910582Y-95248839D01*
X167343744Y-95335000D01*
X167636256Y-95335000D01*
X168069418Y-95248839D01*
X168464281Y-94985000D01*
X168865001Y-94985000D01*
X168865000Y-99065000D01*
X168464281Y-99065000D01*
X168069418Y-98801161D01*
X167636256Y-98715000D01*
X167343744Y-98715000D01*
X166910582Y-98801161D01*
X166419375Y-99129375D01*
X166091161Y-99620582D01*
X165975908Y-100200000D01*
X166091161Y-100779418D01*
X166419375Y-101270625D01*
X166717761Y-101470000D01*
X166500753Y-101615000D01*
X157249016Y-101615000D01*
X157457000Y-101112881D01*
X157457000Y-100557119D01*
X157244320Y-100043663D01*
X156851337Y-99650680D01*
X156644487Y-99565000D01*
X156851337Y-99479320D01*
X157244320Y-99086337D01*
X157457000Y-98572881D01*
X157457000Y-98017119D01*
X157244320Y-97503663D01*
X156851337Y-97110680D01*
X156644487Y-97025000D01*
X156851337Y-96939320D01*
X157244320Y-96546337D01*
X157457000Y-96032881D01*
X157457000Y-95477119D01*
X157244320Y-94963663D01*
X156851337Y-94570680D01*
X156644487Y-94485000D01*
X156851337Y-94399320D01*
X157244320Y-94006337D01*
X157457000Y-93492881D01*
X157457000Y-92937119D01*
X157244320Y-92423663D01*
X156851337Y-92030680D01*
X156644487Y-91945000D01*
X156851337Y-91859320D01*
X157244320Y-91466337D01*
X157457000Y-90952881D01*
X157457000Y-90529578D01*
X158331579Y-89655000D01*
X165999522Y-89655000D01*
X166041843Y-89867765D01*
G36*
X109205000Y-68745718D02*
X109056157Y-68968478D01*
X108995183Y-68838642D01*
X108566924Y-68448355D01*
X108156890Y-68278524D01*
X107927000Y-68399845D01*
X107927000Y-69593000D01*
X107947000Y-69593000D01*
X107947000Y-69847000D01*
X107927000Y-69847000D01*
X107927000Y-71040155D01*
X108156890Y-71161476D01*
X108566924Y-70991645D01*
X108995183Y-70601358D01*
X109056157Y-70471522D01*
X109269375Y-70790625D01*
X109760582Y-71118839D01*
X110193744Y-71205000D01*
X110486256Y-71205000D01*
X110919418Y-71118839D01*
X111410625Y-70790625D01*
X111738839Y-70299418D01*
X111854092Y-69720000D01*
X111783103Y-69363108D01*
X115248514Y-69363108D01*
X115369181Y-69593000D01*
X116563000Y-69593000D01*
X116563000Y-68399845D01*
X116333110Y-68278524D01*
X115923076Y-68448355D01*
X115494817Y-68838642D01*
X115248514Y-69363108D01*
X111783103Y-69363108D01*
X111738839Y-69140582D01*
X111475000Y-68745719D01*
X111475000Y-68135000D01*
X123175001Y-68135000D01*
X123175001Y-68296722D01*
X123002191Y-68412191D01*
X122861843Y-68622235D01*
X122852816Y-68667619D01*
X122840625Y-68649375D01*
X122349418Y-68321161D01*
X121916256Y-68235000D01*
X121623744Y-68235000D01*
X121190582Y-68321161D01*
X120699375Y-68649375D01*
X120500000Y-68947761D01*
X120300625Y-68649375D01*
X119809418Y-68321161D01*
X119376256Y-68235000D01*
X119083744Y-68235000D01*
X118650582Y-68321161D01*
X118159375Y-68649375D01*
X117946157Y-68968478D01*
X117885183Y-68838642D01*
X117456924Y-68448355D01*
X117046890Y-68278524D01*
X116817000Y-68399845D01*
X116817000Y-69593000D01*
X116837000Y-69593000D01*
X116837000Y-69847000D01*
X116817000Y-69847000D01*
X116817000Y-69867000D01*
X116563000Y-69867000D01*
X116563000Y-69847000D01*
X115369181Y-69847000D01*
X115248514Y-70076892D01*
X115494817Y-70601358D01*
X115923076Y-70991645D01*
X116333110Y-71161476D01*
X116562998Y-71040156D01*
X116562998Y-71135423D01*
X115053422Y-72645000D01*
X113600133Y-72645000D01*
X113522926Y-72567793D01*
X113105766Y-72395000D01*
X112654234Y-72395000D01*
X112237074Y-72567793D01*
X111917793Y-72887074D01*
X111745000Y-73304234D01*
X111745000Y-73755766D01*
X111893799Y-74115000D01*
X110366579Y-74115000D01*
X107391804Y-71140226D01*
X107443110Y-71161476D01*
X107673000Y-71040155D01*
X107673000Y-69847000D01*
X107653000Y-69847000D01*
X107653000Y-69593000D01*
X107673000Y-69593000D01*
X107673000Y-68399845D01*
X107443110Y-68278524D01*
X107033076Y-68448355D01*
X106728739Y-68725708D01*
X106708157Y-68622235D01*
X106567809Y-68412191D01*
X106357765Y-68271843D01*
X106110000Y-68222560D01*
X104410000Y-68222560D01*
X104162235Y-68271843D01*
X103952191Y-68412191D01*
X103811843Y-68622235D01*
X103762560Y-68870000D01*
X103762560Y-70570000D01*
X103811843Y-70817765D01*
X103952191Y-71027809D01*
X104162235Y-71168157D01*
X104410000Y-71217440D01*
X104965862Y-71217440D01*
X109312577Y-75564156D01*
X109361951Y-75638049D01*
X109435844Y-75687423D01*
X109435845Y-75687424D01*
X109546880Y-75761615D01*
X109654690Y-75833652D01*
X109912835Y-75885000D01*
X109912839Y-75885000D01*
X109999999Y-75902337D01*
X110087159Y-75885000D01*
X137478422Y-75885000D01*
X154663000Y-93069579D01*
X154663000Y-93106421D01*
X138332425Y-76775847D01*
X138283049Y-76701951D01*
X137990310Y-76506348D01*
X137732165Y-76455000D01*
X137732161Y-76455000D01*
X137645000Y-76437663D01*
X137557839Y-76455000D01*
X96590478Y-76455000D01*
X96548157Y-76242235D01*
X96407809Y-76032191D01*
X96197765Y-75891843D01*
X95950000Y-75842560D01*
X94250000Y-75842560D01*
X94002235Y-75891843D01*
X93792191Y-76032191D01*
X93651843Y-76242235D01*
X93602560Y-76490000D01*
X93602560Y-78190000D01*
X93651843Y-78437765D01*
X93792191Y-78647809D01*
X94002235Y-78788157D01*
X94105708Y-78808739D01*
X93828355Y-79113076D01*
X93658524Y-79523110D01*
X93779845Y-79753000D01*
X94973000Y-79753000D01*
X94973000Y-79733000D01*
X95227000Y-79733000D01*
X95227000Y-79753000D01*
X96420155Y-79753000D01*
X96541476Y-79523110D01*
X96371645Y-79113076D01*
X96094292Y-78808739D01*
X96197765Y-78788157D01*
X96407809Y-78647809D01*
X96548157Y-78437765D01*
X96590478Y-78225000D01*
X137278422Y-78225000D01*
X154663000Y-95609579D01*
X154663000Y-95646421D01*
X139452425Y-80435847D01*
X139403049Y-80361951D01*
X139110310Y-80166348D01*
X138852165Y-80115000D01*
X138852161Y-80115000D01*
X138765000Y-80097663D01*
X138677839Y-80115000D01*
X104307159Y-80115000D01*
X104219999Y-80097663D01*
X104132839Y-80115000D01*
X104132835Y-80115000D01*
X103874690Y-80166348D01*
X103874688Y-80166349D01*
X103874689Y-80166349D01*
X103655845Y-80312576D01*
X103655844Y-80312577D01*
X103581951Y-80361951D01*
X103532577Y-80435844D01*
X96447231Y-87521190D01*
X96407809Y-87462191D01*
X96197765Y-87321843D01*
X95950000Y-87272560D01*
X94250000Y-87272560D01*
X94002235Y-87321843D01*
X93792191Y-87462191D01*
X93651843Y-87672235D01*
X93602560Y-87920000D01*
X93602560Y-89620000D01*
X93651843Y-89867765D01*
X93792191Y-90077809D01*
X94002235Y-90218157D01*
X94105708Y-90238739D01*
X93828355Y-90543076D01*
X93658524Y-90953110D01*
X93779845Y-91183000D01*
X94973000Y-91183000D01*
X94973000Y-91163000D01*
X95227000Y-91163000D01*
X95227000Y-91183000D01*
X96420155Y-91183000D01*
X96541476Y-90953110D01*
X96371645Y-90543076D01*
X96094292Y-90238739D01*
X96197765Y-90218157D01*
X96407809Y-90077809D01*
X96548157Y-89867765D01*
X96592674Y-89643959D01*
X96795310Y-89603652D01*
X97088049Y-89408049D01*
X97137425Y-89334153D01*
X104586579Y-81885000D01*
X104888089Y-81885000D01*
X104760000Y-82194234D01*
X104760000Y-82645766D01*
X104932793Y-83062926D01*
X105252074Y-83382207D01*
X105669234Y-83555000D01*
X105778421Y-83555000D01*
X105842577Y-83619156D01*
X105891951Y-83693049D01*
X105965844Y-83742423D01*
X105965845Y-83742424D01*
X106080208Y-83818839D01*
X106184690Y-83888652D01*
X106442835Y-83940000D01*
X106442839Y-83940000D01*
X106530000Y-83957337D01*
X106617161Y-83940000D01*
X106709343Y-83940000D01*
X107008663Y-84239320D01*
X107215513Y-84325000D01*
X107008663Y-84410680D01*
X106615680Y-84803663D01*
X106403000Y-85317119D01*
X106403000Y-85872881D01*
X106615680Y-86386337D01*
X107008663Y-86779320D01*
X107215513Y-86865000D01*
X107008663Y-86950680D01*
X106615680Y-87343663D01*
X106403000Y-87857119D01*
X106403000Y-88280421D01*
X99435847Y-95247575D01*
X99361951Y-95296951D01*
X99166348Y-95589691D01*
X99115000Y-95847836D01*
X99115000Y-95847839D01*
X99097663Y-95935000D01*
X99115000Y-96022161D01*
X99115001Y-97473420D01*
X96576651Y-100011771D01*
X96498839Y-99620582D01*
X96170625Y-99129375D01*
X95679418Y-98801161D01*
X95246256Y-98715000D01*
X94953744Y-98715000D01*
X94520582Y-98801161D01*
X94125719Y-99065000D01*
X93135000Y-99065000D01*
X93135000Y-94985000D01*
X94125719Y-94985000D01*
X94520582Y-95248839D01*
X94953744Y-95335000D01*
X95246256Y-95335000D01*
X95679418Y-95248839D01*
X96170625Y-94920625D01*
X96498839Y-94429418D01*
X96614092Y-93850000D01*
X96498839Y-93270582D01*
X96170625Y-92779375D01*
X95851522Y-92566157D01*
X95981358Y-92505183D01*
X96371645Y-92076924D01*
X96541476Y-91666890D01*
X96420155Y-91437000D01*
X95227000Y-91437000D01*
X95227000Y-91457000D01*
X94973000Y-91457000D01*
X94973000Y-91437000D01*
X93779845Y-91437000D01*
X93658524Y-91666890D01*
X93828355Y-92076924D01*
X94218642Y-92505183D01*
X94348478Y-92566157D01*
X94125719Y-92715000D01*
X93135000Y-92715000D01*
X93135000Y-83555000D01*
X94125719Y-83555000D01*
X94520582Y-83818839D01*
X94953744Y-83905000D01*
X95246256Y-83905000D01*
X95679418Y-83818839D01*
X96170625Y-83490625D01*
X96498839Y-82999418D01*
X96614092Y-82420000D01*
X96498839Y-81840582D01*
X96170625Y-81349375D01*
X95851522Y-81136157D01*
X95981358Y-81075183D01*
X96371645Y-80646924D01*
X96541476Y-80236890D01*
X96420155Y-80007000D01*
X95227000Y-80007000D01*
X95227000Y-80027000D01*
X94973000Y-80027000D01*
X94973000Y-80007000D01*
X93779845Y-80007000D01*
X93658524Y-80236890D01*
X93828355Y-80646924D01*
X94218642Y-81075183D01*
X94348478Y-81136157D01*
X94125719Y-81285000D01*
X93135000Y-81285000D01*
X93135000Y-76470131D01*
X101470132Y-68135000D01*
X109205001Y-68135000D01*
X109205000Y-68745718D01*
X109205000Y-68745718D01*
G37*
X109205000Y-68745718D02*
X109056157Y-68968478D01*
X108995183Y-68838642D01*
X108566924Y-68448355D01*
X108156890Y-68278524D01*
X107927000Y-68399845D01*
X107927000Y-69593000D01*
X107947000Y-69593000D01*
X107947000Y-69847000D01*
X107927000Y-69847000D01*
X107927000Y-71040155D01*
X108156890Y-71161476D01*
X108566924Y-70991645D01*
X108995183Y-70601358D01*
X109056157Y-70471522D01*
X109269375Y-70790625D01*
X109760582Y-71118839D01*
X110193744Y-71205000D01*
X110486256Y-71205000D01*
X110919418Y-71118839D01*
X111410625Y-70790625D01*
X111738839Y-70299418D01*
X111854092Y-69720000D01*
X111783103Y-69363108D01*
X115248514Y-69363108D01*
X115369181Y-69593000D01*
X116563000Y-69593000D01*
X116563000Y-68399845D01*
X116333110Y-68278524D01*
X115923076Y-68448355D01*
X115494817Y-68838642D01*
X115248514Y-69363108D01*
X111783103Y-69363108D01*
X111738839Y-69140582D01*
X111475000Y-68745719D01*
X111475000Y-68135000D01*
X123175001Y-68135000D01*
X123175001Y-68296722D01*
X123002191Y-68412191D01*
X122861843Y-68622235D01*
X122852816Y-68667619D01*
X122840625Y-68649375D01*
X122349418Y-68321161D01*
X121916256Y-68235000D01*
X121623744Y-68235000D01*
X121190582Y-68321161D01*
X120699375Y-68649375D01*
X120500000Y-68947761D01*
X120300625Y-68649375D01*
X119809418Y-68321161D01*
X119376256Y-68235000D01*
X119083744Y-68235000D01*
X118650582Y-68321161D01*
X118159375Y-68649375D01*
X117946157Y-68968478D01*
X117885183Y-68838642D01*
X117456924Y-68448355D01*
X117046890Y-68278524D01*
X116817000Y-68399845D01*
X116817000Y-69593000D01*
X116837000Y-69593000D01*
X116837000Y-69847000D01*
X116817000Y-69847000D01*
X116817000Y-69867000D01*
X116563000Y-69867000D01*
X116563000Y-69847000D01*
X115369181Y-69847000D01*
X115248514Y-70076892D01*
X115494817Y-70601358D01*
X115923076Y-70991645D01*
X116333110Y-71161476D01*
X116562998Y-71040156D01*
X116562998Y-71135423D01*
X115053422Y-72645000D01*
X113600133Y-72645000D01*
X113522926Y-72567793D01*
X113105766Y-72395000D01*
X112654234Y-72395000D01*
X112237074Y-72567793D01*
X111917793Y-72887074D01*
X111745000Y-73304234D01*
X111745000Y-73755766D01*
X111893799Y-74115000D01*
X110366579Y-74115000D01*
X107391804Y-71140226D01*
X107443110Y-71161476D01*
X107673000Y-71040155D01*
X107673000Y-69847000D01*
X107653000Y-69847000D01*
X107653000Y-69593000D01*
X107673000Y-69593000D01*
X107673000Y-68399845D01*
X107443110Y-68278524D01*
X107033076Y-68448355D01*
X106728739Y-68725708D01*
X106708157Y-68622235D01*
X106567809Y-68412191D01*
X106357765Y-68271843D01*
X106110000Y-68222560D01*
X104410000Y-68222560D01*
X104162235Y-68271843D01*
X103952191Y-68412191D01*
X103811843Y-68622235D01*
X103762560Y-68870000D01*
X103762560Y-70570000D01*
X103811843Y-70817765D01*
X103952191Y-71027809D01*
X104162235Y-71168157D01*
X104410000Y-71217440D01*
X104965862Y-71217440D01*
X109312577Y-75564156D01*
X109361951Y-75638049D01*
X109435844Y-75687423D01*
X109435845Y-75687424D01*
X109546880Y-75761615D01*
X109654690Y-75833652D01*
X109912835Y-75885000D01*
X109912839Y-75885000D01*
X109999999Y-75902337D01*
X110087159Y-75885000D01*
X137478422Y-75885000D01*
X154663000Y-93069579D01*
X154663000Y-93106421D01*
X138332425Y-76775847D01*
X138283049Y-76701951D01*
X137990310Y-76506348D01*
X137732165Y-76455000D01*
X137732161Y-76455000D01*
X137645000Y-76437663D01*
X137557839Y-76455000D01*
X96590478Y-76455000D01*
X96548157Y-76242235D01*
X96407809Y-76032191D01*
X96197765Y-75891843D01*
X95950000Y-75842560D01*
X94250000Y-75842560D01*
X94002235Y-75891843D01*
X93792191Y-76032191D01*
X93651843Y-76242235D01*
X93602560Y-76490000D01*
X93602560Y-78190000D01*
X93651843Y-78437765D01*
X93792191Y-78647809D01*
X94002235Y-78788157D01*
X94105708Y-78808739D01*
X93828355Y-79113076D01*
X93658524Y-79523110D01*
X93779845Y-79753000D01*
X94973000Y-79753000D01*
X94973000Y-79733000D01*
X95227000Y-79733000D01*
X95227000Y-79753000D01*
X96420155Y-79753000D01*
X96541476Y-79523110D01*
X96371645Y-79113076D01*
X96094292Y-78808739D01*
X96197765Y-78788157D01*
X96407809Y-78647809D01*
X96548157Y-78437765D01*
X96590478Y-78225000D01*
X137278422Y-78225000D01*
X154663000Y-95609579D01*
X154663000Y-95646421D01*
X139452425Y-80435847D01*
X139403049Y-80361951D01*
X139110310Y-80166348D01*
X138852165Y-80115000D01*
X138852161Y-80115000D01*
X138765000Y-80097663D01*
X138677839Y-80115000D01*
X104307159Y-80115000D01*
X104219999Y-80097663D01*
X104132839Y-80115000D01*
X104132835Y-80115000D01*
X103874690Y-80166348D01*
X103874688Y-80166349D01*
X103874689Y-80166349D01*
X103655845Y-80312576D01*
X103655844Y-80312577D01*
X103581951Y-80361951D01*
X103532577Y-80435844D01*
X96447231Y-87521190D01*
X96407809Y-87462191D01*
X96197765Y-87321843D01*
X95950000Y-87272560D01*
X94250000Y-87272560D01*
X94002235Y-87321843D01*
X93792191Y-87462191D01*
X93651843Y-87672235D01*
X93602560Y-87920000D01*
X93602560Y-89620000D01*
X93651843Y-89867765D01*
X93792191Y-90077809D01*
X94002235Y-90218157D01*
X94105708Y-90238739D01*
X93828355Y-90543076D01*
X93658524Y-90953110D01*
X93779845Y-91183000D01*
X94973000Y-91183000D01*
X94973000Y-91163000D01*
X95227000Y-91163000D01*
X95227000Y-91183000D01*
X96420155Y-91183000D01*
X96541476Y-90953110D01*
X96371645Y-90543076D01*
X96094292Y-90238739D01*
X96197765Y-90218157D01*
X96407809Y-90077809D01*
X96548157Y-89867765D01*
X96592674Y-89643959D01*
X96795310Y-89603652D01*
X97088049Y-89408049D01*
X97137425Y-89334153D01*
X104586579Y-81885000D01*
X104888089Y-81885000D01*
X104760000Y-82194234D01*
X104760000Y-82645766D01*
X104932793Y-83062926D01*
X105252074Y-83382207D01*
X105669234Y-83555000D01*
X105778421Y-83555000D01*
X105842577Y-83619156D01*
X105891951Y-83693049D01*
X105965844Y-83742423D01*
X105965845Y-83742424D01*
X106080208Y-83818839D01*
X106184690Y-83888652D01*
X106442835Y-83940000D01*
X106442839Y-83940000D01*
X106530000Y-83957337D01*
X106617161Y-83940000D01*
X106709343Y-83940000D01*
X107008663Y-84239320D01*
X107215513Y-84325000D01*
X107008663Y-84410680D01*
X106615680Y-84803663D01*
X106403000Y-85317119D01*
X106403000Y-85872881D01*
X106615680Y-86386337D01*
X107008663Y-86779320D01*
X107215513Y-86865000D01*
X107008663Y-86950680D01*
X106615680Y-87343663D01*
X106403000Y-87857119D01*
X106403000Y-88280421D01*
X99435847Y-95247575D01*
X99361951Y-95296951D01*
X99166348Y-95589691D01*
X99115000Y-95847836D01*
X99115000Y-95847839D01*
X99097663Y-95935000D01*
X99115000Y-96022161D01*
X99115001Y-97473420D01*
X96576651Y-100011771D01*
X96498839Y-99620582D01*
X96170625Y-99129375D01*
X95679418Y-98801161D01*
X95246256Y-98715000D01*
X94953744Y-98715000D01*
X94520582Y-98801161D01*
X94125719Y-99065000D01*
X93135000Y-99065000D01*
X93135000Y-94985000D01*
X94125719Y-94985000D01*
X94520582Y-95248839D01*
X94953744Y-95335000D01*
X95246256Y-95335000D01*
X95679418Y-95248839D01*
X96170625Y-94920625D01*
X96498839Y-94429418D01*
X96614092Y-93850000D01*
X96498839Y-93270582D01*
X96170625Y-92779375D01*
X95851522Y-92566157D01*
X95981358Y-92505183D01*
X96371645Y-92076924D01*
X96541476Y-91666890D01*
X96420155Y-91437000D01*
X95227000Y-91437000D01*
X95227000Y-91457000D01*
X94973000Y-91457000D01*
X94973000Y-91437000D01*
X93779845Y-91437000D01*
X93658524Y-91666890D01*
X93828355Y-92076924D01*
X94218642Y-92505183D01*
X94348478Y-92566157D01*
X94125719Y-92715000D01*
X93135000Y-92715000D01*
X93135000Y-83555000D01*
X94125719Y-83555000D01*
X94520582Y-83818839D01*
X94953744Y-83905000D01*
X95246256Y-83905000D01*
X95679418Y-83818839D01*
X96170625Y-83490625D01*
X96498839Y-82999418D01*
X96614092Y-82420000D01*
X96498839Y-81840582D01*
X96170625Y-81349375D01*
X95851522Y-81136157D01*
X95981358Y-81075183D01*
X96371645Y-80646924D01*
X96541476Y-80236890D01*
X96420155Y-80007000D01*
X95227000Y-80007000D01*
X95227000Y-80027000D01*
X94973000Y-80027000D01*
X94973000Y-80007000D01*
X93779845Y-80007000D01*
X93658524Y-80236890D01*
X93828355Y-80646924D01*
X94218642Y-81075183D01*
X94348478Y-81136157D01*
X94125719Y-81285000D01*
X93135000Y-81285000D01*
X93135000Y-76470131D01*
X101470132Y-68135000D01*
X109205001Y-68135000D01*
X109205000Y-68745718D01*
G36*
X135875000Y-68745718D02*
X135726157Y-68968478D01*
X135665183Y-68838642D01*
X135236924Y-68448355D01*
X134826890Y-68278524D01*
X134597000Y-68399845D01*
X134597000Y-69593000D01*
X134617000Y-69593000D01*
X134617000Y-69847000D01*
X134597000Y-69847000D01*
X134597000Y-71040155D01*
X134826890Y-71161476D01*
X135236924Y-70991645D01*
X135665183Y-70601358D01*
X135726157Y-70471522D01*
X135939375Y-70790625D01*
X136430582Y-71118839D01*
X136863744Y-71205000D01*
X137156256Y-71205000D01*
X137589418Y-71118839D01*
X138080625Y-70790625D01*
X138408839Y-70299418D01*
X138524092Y-69720000D01*
X138408839Y-69140582D01*
X138145000Y-68745719D01*
X138145000Y-68135000D01*
X142225001Y-68135000D01*
X142225000Y-68745718D01*
X141961161Y-69140582D01*
X141845908Y-69720000D01*
X141961161Y-70299418D01*
X142289375Y-70790625D01*
X142780582Y-71118839D01*
X143213744Y-71205000D01*
X143506256Y-71205000D01*
X143939418Y-71118839D01*
X144430625Y-70790625D01*
X144643843Y-70471522D01*
X144704817Y-70601358D01*
X145133076Y-70991645D01*
X145543110Y-71161476D01*
X145773000Y-71040155D01*
X145773000Y-69847000D01*
X145753000Y-69847000D01*
X145753000Y-69593000D01*
X145773000Y-69593000D01*
X145773000Y-68399845D01*
X145543110Y-68278524D01*
X145133076Y-68448355D01*
X144704817Y-68838642D01*
X144643843Y-68968478D01*
X144495000Y-68745719D01*
X144495000Y-68135000D01*
X153655001Y-68135000D01*
X153655000Y-68745718D01*
X153391161Y-69140582D01*
X153275908Y-69720000D01*
X153391161Y-70299418D01*
X153719375Y-70790625D01*
X154210582Y-71118839D01*
X154643744Y-71205000D01*
X154936256Y-71205000D01*
X155369418Y-71118839D01*
X155860625Y-70790625D01*
X156073843Y-70471522D01*
X156134817Y-70601358D01*
X156563076Y-70991645D01*
X156973110Y-71161476D01*
X157203000Y-71040155D01*
X157203000Y-69847000D01*
X157183000Y-69847000D01*
X157183000Y-69593000D01*
X157203000Y-69593000D01*
X157203000Y-68399845D01*
X156973110Y-68278524D01*
X156563076Y-68448355D01*
X156134817Y-68838642D01*
X156073843Y-68968478D01*
X155925000Y-68745719D01*
X155925000Y-68135000D01*
X161029869Y-68135000D01*
X168865001Y-75970133D01*
X168865001Y-76132750D01*
X168797809Y-76032191D01*
X168587765Y-75891843D01*
X168340000Y-75842560D01*
X166640000Y-75842560D01*
X166392235Y-75891843D01*
X166182191Y-76032191D01*
X166041843Y-76242235D01*
X165992560Y-76490000D01*
X165992560Y-76950861D01*
X157457000Y-85486422D01*
X157457000Y-85449578D01*
X160434156Y-82472423D01*
X160508049Y-82423049D01*
X160703652Y-82130310D01*
X160755000Y-81872165D01*
X160755000Y-81872161D01*
X160772337Y-81785000D01*
X160755000Y-81697839D01*
X160755000Y-71210478D01*
X160967765Y-71168157D01*
X161177809Y-71027809D01*
X161318157Y-70817765D01*
X161367440Y-70570000D01*
X161367440Y-68870000D01*
X161318157Y-68622235D01*
X161177809Y-68412191D01*
X160967765Y-68271843D01*
X160720000Y-68222560D01*
X159020000Y-68222560D01*
X158772235Y-68271843D01*
X158562191Y-68412191D01*
X158421843Y-68622235D01*
X158401261Y-68725708D01*
X158096924Y-68448355D01*
X157686890Y-68278524D01*
X157457000Y-68399845D01*
X157457000Y-69593000D01*
X157477000Y-69593000D01*
X157477000Y-69847000D01*
X157457000Y-69847000D01*
X157457000Y-71040155D01*
X157686890Y-71161476D01*
X158096924Y-70991645D01*
X158401261Y-70714292D01*
X158421843Y-70817765D01*
X158562191Y-71027809D01*
X158772235Y-71168157D01*
X158985001Y-71210478D01*
X158985000Y-81418421D01*
X157457000Y-82946421D01*
X157457000Y-82777119D01*
X157244320Y-82263663D01*
X156945000Y-81964343D01*
X156945000Y-77147161D01*
X156962337Y-77060000D01*
X156945000Y-76972839D01*
X156945000Y-76972835D01*
X156893652Y-76714690D01*
X156852149Y-76652576D01*
X156747424Y-76495845D01*
X156747423Y-76495844D01*
X156698049Y-76421951D01*
X156624156Y-76372577D01*
X149937440Y-69685862D01*
X149937440Y-68870000D01*
X149888157Y-68622235D01*
X149747809Y-68412191D01*
X149537765Y-68271843D01*
X149290000Y-68222560D01*
X147590000Y-68222560D01*
X147342235Y-68271843D01*
X147132191Y-68412191D01*
X146991843Y-68622235D01*
X146971261Y-68725708D01*
X146666924Y-68448355D01*
X146256890Y-68278524D01*
X146027000Y-68399845D01*
X146027000Y-69593000D01*
X146047000Y-69593000D01*
X146047000Y-69847000D01*
X146027000Y-69847000D01*
X146027000Y-71040155D01*
X146256890Y-71161476D01*
X146666924Y-70991645D01*
X146971261Y-70714292D01*
X146991843Y-70817765D01*
X147132191Y-71027809D01*
X147342235Y-71168157D01*
X147590000Y-71217440D01*
X148965862Y-71217440D01*
X155175001Y-77426580D01*
X155175000Y-81964343D01*
X154875680Y-82263663D01*
X154663000Y-82777119D01*
X154663000Y-83332881D01*
X154875680Y-83846337D01*
X155268663Y-84239320D01*
X155475513Y-84325000D01*
X155268663Y-84410680D01*
X154875680Y-84803663D01*
X154663000Y-85317119D01*
X154663000Y-85872881D01*
X154875680Y-86386337D01*
X155268663Y-86779320D01*
X155475513Y-86865000D01*
X155268663Y-86950680D01*
X154875680Y-87343663D01*
X154663000Y-87857119D01*
X154663000Y-88412881D01*
X154875680Y-88926337D01*
X155268663Y-89319320D01*
X155475513Y-89405000D01*
X155268663Y-89490680D01*
X154875680Y-89883663D01*
X154663000Y-90397119D01*
X154663000Y-90566421D01*
X138532425Y-74435847D01*
X138483049Y-74361951D01*
X138190310Y-74166348D01*
X137932165Y-74115000D01*
X137932161Y-74115000D01*
X137845000Y-74097663D01*
X137757839Y-74115000D01*
X130299048Y-74115000D01*
X130667926Y-73962206D01*
X130987207Y-73642925D01*
X131160000Y-73225765D01*
X131160000Y-72774233D01*
X130987207Y-72357073D01*
X130910000Y-72279866D01*
X130910000Y-71991578D01*
X131347424Y-71554155D01*
X131347426Y-71554152D01*
X131684138Y-71217440D01*
X132780000Y-71217440D01*
X133027765Y-71168157D01*
X133237809Y-71027809D01*
X133378157Y-70817765D01*
X133398739Y-70714292D01*
X133703076Y-70991645D01*
X134113110Y-71161476D01*
X134343000Y-71040155D01*
X134343000Y-69847000D01*
X134323000Y-69847000D01*
X134323000Y-69593000D01*
X134343000Y-69593000D01*
X134343000Y-68399845D01*
X134113110Y-68278524D01*
X133703076Y-68448355D01*
X133398739Y-68725708D01*
X133378157Y-68622235D01*
X133237809Y-68412191D01*
X133027765Y-68271843D01*
X132780000Y-68222560D01*
X131080000Y-68222560D01*
X130832235Y-68271843D01*
X130622191Y-68412191D01*
X130481843Y-68622235D01*
X130432560Y-68870000D01*
X130432560Y-69965862D01*
X130095848Y-70302574D01*
X130095845Y-70302576D01*
X129460846Y-70937575D01*
X129386951Y-70986951D01*
X129191348Y-71279691D01*
X129140000Y-71537836D01*
X129140000Y-71537839D01*
X129122663Y-71625000D01*
X129140000Y-71712161D01*
X129140000Y-72279866D01*
X129062793Y-72357073D01*
X128890000Y-72774233D01*
X128890000Y-73225765D01*
X129062793Y-73642925D01*
X129382074Y-73962206D01*
X129750952Y-74115000D01*
X128471201Y-74115000D01*
X128620000Y-73755766D01*
X128620000Y-73304234D01*
X128447207Y-72887074D01*
X128127926Y-72567793D01*
X127710766Y-72395000D01*
X127259234Y-72395000D01*
X126842074Y-72567793D01*
X126764867Y-72645000D01*
X125946579Y-72645000D01*
X124519019Y-71217440D01*
X125160000Y-71217440D01*
X125407765Y-71168157D01*
X125617809Y-71027809D01*
X125758157Y-70817765D01*
X125807440Y-70570000D01*
X125807440Y-68870000D01*
X125758157Y-68622235D01*
X125617809Y-68412191D01*
X125445000Y-68296723D01*
X125445000Y-68135000D01*
X135875001Y-68135000D01*
X135875000Y-68745718D01*
X135875000Y-68745718D01*
G37*
X135875000Y-68745718D02*
X135726157Y-68968478D01*
X135665183Y-68838642D01*
X135236924Y-68448355D01*
X134826890Y-68278524D01*
X134597000Y-68399845D01*
X134597000Y-69593000D01*
X134617000Y-69593000D01*
X134617000Y-69847000D01*
X134597000Y-69847000D01*
X134597000Y-71040155D01*
X134826890Y-71161476D01*
X135236924Y-70991645D01*
X135665183Y-70601358D01*
X135726157Y-70471522D01*
X135939375Y-70790625D01*
X136430582Y-71118839D01*
X136863744Y-71205000D01*
X137156256Y-71205000D01*
X137589418Y-71118839D01*
X138080625Y-70790625D01*
X138408839Y-70299418D01*
X138524092Y-69720000D01*
X138408839Y-69140582D01*
X138145000Y-68745719D01*
X138145000Y-68135000D01*
X142225001Y-68135000D01*
X142225000Y-68745718D01*
X141961161Y-69140582D01*
X141845908Y-69720000D01*
X141961161Y-70299418D01*
X142289375Y-70790625D01*
X142780582Y-71118839D01*
X143213744Y-71205000D01*
X143506256Y-71205000D01*
X143939418Y-71118839D01*
X144430625Y-70790625D01*
X144643843Y-70471522D01*
X144704817Y-70601358D01*
X145133076Y-70991645D01*
X145543110Y-71161476D01*
X145773000Y-71040155D01*
X145773000Y-69847000D01*
X145753000Y-69847000D01*
X145753000Y-69593000D01*
X145773000Y-69593000D01*
X145773000Y-68399845D01*
X145543110Y-68278524D01*
X145133076Y-68448355D01*
X144704817Y-68838642D01*
X144643843Y-68968478D01*
X144495000Y-68745719D01*
X144495000Y-68135000D01*
X153655001Y-68135000D01*
X153655000Y-68745718D01*
X153391161Y-69140582D01*
X153275908Y-69720000D01*
X153391161Y-70299418D01*
X153719375Y-70790625D01*
X154210582Y-71118839D01*
X154643744Y-71205000D01*
X154936256Y-71205000D01*
X155369418Y-71118839D01*
X155860625Y-70790625D01*
X156073843Y-70471522D01*
X156134817Y-70601358D01*
X156563076Y-70991645D01*
X156973110Y-71161476D01*
X157203000Y-71040155D01*
X157203000Y-69847000D01*
X157183000Y-69847000D01*
X157183000Y-69593000D01*
X157203000Y-69593000D01*
X157203000Y-68399845D01*
X156973110Y-68278524D01*
X156563076Y-68448355D01*
X156134817Y-68838642D01*
X156073843Y-68968478D01*
X155925000Y-68745719D01*
X155925000Y-68135000D01*
X161029869Y-68135000D01*
X168865001Y-75970133D01*
X168865001Y-76132750D01*
X168797809Y-76032191D01*
X168587765Y-75891843D01*
X168340000Y-75842560D01*
X166640000Y-75842560D01*
X166392235Y-75891843D01*
X166182191Y-76032191D01*
X166041843Y-76242235D01*
X165992560Y-76490000D01*
X165992560Y-76950861D01*
X157457000Y-85486422D01*
X157457000Y-85449578D01*
X160434156Y-82472423D01*
X160508049Y-82423049D01*
X160703652Y-82130310D01*
X160755000Y-81872165D01*
X160755000Y-81872161D01*
X160772337Y-81785000D01*
X160755000Y-81697839D01*
X160755000Y-71210478D01*
X160967765Y-71168157D01*
X161177809Y-71027809D01*
X161318157Y-70817765D01*
X161367440Y-70570000D01*
X161367440Y-68870000D01*
X161318157Y-68622235D01*
X161177809Y-68412191D01*
X160967765Y-68271843D01*
X160720000Y-68222560D01*
X159020000Y-68222560D01*
X158772235Y-68271843D01*
X158562191Y-68412191D01*
X158421843Y-68622235D01*
X158401261Y-68725708D01*
X158096924Y-68448355D01*
X157686890Y-68278524D01*
X157457000Y-68399845D01*
X157457000Y-69593000D01*
X157477000Y-69593000D01*
X157477000Y-69847000D01*
X157457000Y-69847000D01*
X157457000Y-71040155D01*
X157686890Y-71161476D01*
X158096924Y-70991645D01*
X158401261Y-70714292D01*
X158421843Y-70817765D01*
X158562191Y-71027809D01*
X158772235Y-71168157D01*
X158985001Y-71210478D01*
X158985000Y-81418421D01*
X157457000Y-82946421D01*
X157457000Y-82777119D01*
X157244320Y-82263663D01*
X156945000Y-81964343D01*
X156945000Y-77147161D01*
X156962337Y-77060000D01*
X156945000Y-76972839D01*
X156945000Y-76972835D01*
X156893652Y-76714690D01*
X156852149Y-76652576D01*
X156747424Y-76495845D01*
X156747423Y-76495844D01*
X156698049Y-76421951D01*
X156624156Y-76372577D01*
X149937440Y-69685862D01*
X149937440Y-68870000D01*
X149888157Y-68622235D01*
X149747809Y-68412191D01*
X149537765Y-68271843D01*
X149290000Y-68222560D01*
X147590000Y-68222560D01*
X147342235Y-68271843D01*
X147132191Y-68412191D01*
X146991843Y-68622235D01*
X146971261Y-68725708D01*
X146666924Y-68448355D01*
X146256890Y-68278524D01*
X146027000Y-68399845D01*
X146027000Y-69593000D01*
X146047000Y-69593000D01*
X146047000Y-69847000D01*
X146027000Y-69847000D01*
X146027000Y-71040155D01*
X146256890Y-71161476D01*
X146666924Y-70991645D01*
X146971261Y-70714292D01*
X146991843Y-70817765D01*
X147132191Y-71027809D01*
X147342235Y-71168157D01*
X147590000Y-71217440D01*
X148965862Y-71217440D01*
X155175001Y-77426580D01*
X155175000Y-81964343D01*
X154875680Y-82263663D01*
X154663000Y-82777119D01*
X154663000Y-83332881D01*
X154875680Y-83846337D01*
X155268663Y-84239320D01*
X155475513Y-84325000D01*
X155268663Y-84410680D01*
X154875680Y-84803663D01*
X154663000Y-85317119D01*
X154663000Y-85872881D01*
X154875680Y-86386337D01*
X155268663Y-86779320D01*
X155475513Y-86865000D01*
X155268663Y-86950680D01*
X154875680Y-87343663D01*
X154663000Y-87857119D01*
X154663000Y-88412881D01*
X154875680Y-88926337D01*
X155268663Y-89319320D01*
X155475513Y-89405000D01*
X155268663Y-89490680D01*
X154875680Y-89883663D01*
X154663000Y-90397119D01*
X154663000Y-90566421D01*
X138532425Y-74435847D01*
X138483049Y-74361951D01*
X138190310Y-74166348D01*
X137932165Y-74115000D01*
X137932161Y-74115000D01*
X137845000Y-74097663D01*
X137757839Y-74115000D01*
X130299048Y-74115000D01*
X130667926Y-73962206D01*
X130987207Y-73642925D01*
X131160000Y-73225765D01*
X131160000Y-72774233D01*
X130987207Y-72357073D01*
X130910000Y-72279866D01*
X130910000Y-71991578D01*
X131347424Y-71554155D01*
X131347426Y-71554152D01*
X131684138Y-71217440D01*
X132780000Y-71217440D01*
X133027765Y-71168157D01*
X133237809Y-71027809D01*
X133378157Y-70817765D01*
X133398739Y-70714292D01*
X133703076Y-70991645D01*
X134113110Y-71161476D01*
X134343000Y-71040155D01*
X134343000Y-69847000D01*
X134323000Y-69847000D01*
X134323000Y-69593000D01*
X134343000Y-69593000D01*
X134343000Y-68399845D01*
X134113110Y-68278524D01*
X133703076Y-68448355D01*
X133398739Y-68725708D01*
X133378157Y-68622235D01*
X133237809Y-68412191D01*
X133027765Y-68271843D01*
X132780000Y-68222560D01*
X131080000Y-68222560D01*
X130832235Y-68271843D01*
X130622191Y-68412191D01*
X130481843Y-68622235D01*
X130432560Y-68870000D01*
X130432560Y-69965862D01*
X130095848Y-70302574D01*
X130095845Y-70302576D01*
X129460846Y-70937575D01*
X129386951Y-70986951D01*
X129191348Y-71279691D01*
X129140000Y-71537836D01*
X129140000Y-71537839D01*
X129122663Y-71625000D01*
X129140000Y-71712161D01*
X129140000Y-72279866D01*
X129062793Y-72357073D01*
X128890000Y-72774233D01*
X128890000Y-73225765D01*
X129062793Y-73642925D01*
X129382074Y-73962206D01*
X129750952Y-74115000D01*
X128471201Y-74115000D01*
X128620000Y-73755766D01*
X128620000Y-73304234D01*
X128447207Y-72887074D01*
X128127926Y-72567793D01*
X127710766Y-72395000D01*
X127259234Y-72395000D01*
X126842074Y-72567793D01*
X126764867Y-72645000D01*
X125946579Y-72645000D01*
X124519019Y-71217440D01*
X125160000Y-71217440D01*
X125407765Y-71168157D01*
X125617809Y-71027809D01*
X125758157Y-70817765D01*
X125807440Y-70570000D01*
X125807440Y-68870000D01*
X125758157Y-68622235D01*
X125617809Y-68412191D01*
X125445000Y-68296723D01*
X125445000Y-68135000D01*
X135875001Y-68135000D01*
X135875000Y-68745718D01*
G36*
X166048524Y-79523110D02*
X166169845Y-79753000D01*
X167363000Y-79753000D01*
X167363000Y-79733000D01*
X167617000Y-79733000D01*
X167617000Y-79753000D01*
X167637000Y-79753000D01*
X167637000Y-80007000D01*
X167617000Y-80007000D01*
X167617000Y-80027000D01*
X167363000Y-80027000D01*
X167363000Y-80007000D01*
X166169845Y-80007000D01*
X166048524Y-80236890D01*
X166218355Y-80646924D01*
X166608642Y-81075183D01*
X166738478Y-81136157D01*
X166419375Y-81349375D01*
X166091161Y-81840582D01*
X165975908Y-82420000D01*
X166091161Y-82999418D01*
X166419375Y-83490625D01*
X166910582Y-83818839D01*
X167343744Y-83905000D01*
X167636256Y-83905000D01*
X168069418Y-83818839D01*
X168464281Y-83555000D01*
X168865001Y-83555000D01*
X168865001Y-87562749D01*
X168797809Y-87462191D01*
X168587765Y-87321843D01*
X168340000Y-87272560D01*
X166640000Y-87272560D01*
X166392235Y-87321843D01*
X166182191Y-87462191D01*
X166041843Y-87672235D01*
X165999522Y-87885000D01*
X158052161Y-87885000D01*
X157965000Y-87867663D01*
X157877839Y-87885000D01*
X157877835Y-87885000D01*
X157619690Y-87936348D01*
X157457000Y-88045054D01*
X157457000Y-87989578D01*
X166136942Y-79309637D01*
X166048524Y-79523110D01*
X166048524Y-79523110D01*
G37*
X166048524Y-79523110D02*
X166169845Y-79753000D01*
X167363000Y-79753000D01*
X167363000Y-79733000D01*
X167617000Y-79733000D01*
X167617000Y-79753000D01*
X167637000Y-79753000D01*
X167637000Y-80007000D01*
X167617000Y-80007000D01*
X167617000Y-80027000D01*
X167363000Y-80027000D01*
X167363000Y-80007000D01*
X166169845Y-80007000D01*
X166048524Y-80236890D01*
X166218355Y-80646924D01*
X166608642Y-81075183D01*
X166738478Y-81136157D01*
X166419375Y-81349375D01*
X166091161Y-81840582D01*
X165975908Y-82420000D01*
X166091161Y-82999418D01*
X166419375Y-83490625D01*
X166910582Y-83818839D01*
X167343744Y-83905000D01*
X167636256Y-83905000D01*
X168069418Y-83818839D01*
X168464281Y-83555000D01*
X168865001Y-83555000D01*
X168865001Y-87562749D01*
X168797809Y-87462191D01*
X168587765Y-87321843D01*
X168340000Y-87272560D01*
X166640000Y-87272560D01*
X166392235Y-87321843D01*
X166182191Y-87462191D01*
X166041843Y-87672235D01*
X165999522Y-87885000D01*
X158052161Y-87885000D01*
X157965000Y-87867663D01*
X157877839Y-87885000D01*
X157877835Y-87885000D01*
X157619690Y-87936348D01*
X157457000Y-88045054D01*
X157457000Y-87989578D01*
X166136942Y-79309637D01*
X166048524Y-79523110D01*
G36*
X100118389Y-66276479D02*
X91276482Y-75118387D01*
X91185000Y-75179513D01*
X91185000Y-74023326D01*
X91258881Y-72939599D01*
X91474417Y-71898816D01*
X91829206Y-70896924D01*
X92316687Y-69952445D01*
X92927842Y-69082860D01*
X93651352Y-68304270D01*
X94473836Y-67631075D01*
X95380077Y-67075730D01*
X96353301Y-66648513D01*
X97375504Y-66357331D01*
X98438448Y-66206052D01*
X99012556Y-66185000D01*
X100179513Y-66185000D01*
X100118389Y-66276479D01*
X100118389Y-66276479D01*
G37*
X100118389Y-66276479D02*
X91276482Y-75118387D01*
X91185000Y-75179513D01*
X91185000Y-74023326D01*
X91258881Y-72939599D01*
X91474417Y-71898816D01*
X91829206Y-70896924D01*
X92316687Y-69952445D01*
X92927842Y-69082860D01*
X93651352Y-68304270D01*
X94473836Y-67631075D01*
X95380077Y-67075730D01*
X96353301Y-66648513D01*
X97375504Y-66357331D01*
X98438448Y-66206052D01*
X99012556Y-66185000D01*
X100179513Y-66185000D01*
X100118389Y-66276479D01*
G36*
X164060401Y-66258881D02*
X165101184Y-66474417D01*
X166103076Y-66829206D01*
X167047555Y-67316687D01*
X167917140Y-67927842D01*
X168695730Y-68651352D01*
X169368925Y-69473836D01*
X169924270Y-70380077D01*
X170351487Y-71353301D01*
X170642669Y-72375504D01*
X170793948Y-73438448D01*
X170815001Y-74012583D01*
X170815001Y-74679514D01*
X170723521Y-74618389D01*
X162381613Y-66276482D01*
X162320487Y-66185000D01*
X162976674Y-66185000D01*
X164060401Y-66258881D01*
X164060401Y-66258881D01*
G37*
X164060401Y-66258881D02*
X165101184Y-66474417D01*
X166103076Y-66829206D01*
X167047555Y-67316687D01*
X167917140Y-67927842D01*
X168695730Y-68651352D01*
X169368925Y-69473836D01*
X169924270Y-70380077D01*
X170351487Y-71353301D01*
X170642669Y-72375504D01*
X170793948Y-73438448D01*
X170815001Y-74012583D01*
X170815001Y-74679514D01*
X170723521Y-74618389D01*
X162381613Y-66276482D01*
X162320487Y-66185000D01*
X162976674Y-66185000D01*
X164060401Y-66258881D01*
G04 #@! TD*
M02*
