G04 #@! TF.GenerationSoftware,KiCad,Pcbnew,(5.0.1)-4*
G04 #@! TF.CreationDate,2021-03-19T14:51:55+02:00*
G04 #@! TF.ProjectId,Jekabs_ilja_Sumo_Test_Motherboard,4A656B6162735F696C6A615F53756D6F,rev?*
G04 #@! TF.SameCoordinates,Original*
G04 #@! TF.FileFunction,Soldermask,Bot*
G04 #@! TF.FilePolarity,Negative*
%FSLAX46Y46*%
G04 Gerber Fmt 4.6, Leading zero omitted, Abs format (unit mm)*
G04 Created by KiCad (PCBNEW (5.0.1)-4) date 2021.03.19. 14:51:55*
%MOMM*%
%LPD*%
G01*
G04 APERTURE LIST*
%ADD10C,0.100000*%
G04 APERTURE END LIST*
D10*
G36*
X159730442Y-138675518D02*
X159796627Y-138682037D01*
X159909853Y-138716384D01*
X159966467Y-138733557D01*
X160105087Y-138807652D01*
X160122991Y-138817222D01*
X160158729Y-138846552D01*
X160260186Y-138929814D01*
X160343448Y-139031271D01*
X160372778Y-139067009D01*
X160372779Y-139067011D01*
X160456443Y-139223533D01*
X160456443Y-139223534D01*
X160507963Y-139393373D01*
X160525359Y-139570000D01*
X160507963Y-139746627D01*
X160473616Y-139859853D01*
X160456443Y-139916467D01*
X160382348Y-140055087D01*
X160372778Y-140072991D01*
X160343448Y-140108729D01*
X160260186Y-140210186D01*
X160158729Y-140293448D01*
X160122991Y-140322778D01*
X160122989Y-140322779D01*
X159966467Y-140406443D01*
X159909853Y-140423616D01*
X159796627Y-140457963D01*
X159730442Y-140464482D01*
X159664260Y-140471000D01*
X159575740Y-140471000D01*
X159509558Y-140464482D01*
X159443373Y-140457963D01*
X159330147Y-140423616D01*
X159273533Y-140406443D01*
X159117011Y-140322779D01*
X159117009Y-140322778D01*
X159081271Y-140293448D01*
X158979814Y-140210186D01*
X158896552Y-140108729D01*
X158867222Y-140072991D01*
X158857652Y-140055087D01*
X158783557Y-139916467D01*
X158766384Y-139859853D01*
X158732037Y-139746627D01*
X158714641Y-139570000D01*
X158732037Y-139393373D01*
X158783557Y-139223534D01*
X158783557Y-139223533D01*
X158867221Y-139067011D01*
X158867222Y-139067009D01*
X158896552Y-139031271D01*
X158979814Y-138929814D01*
X159081271Y-138846552D01*
X159117009Y-138817222D01*
X159134913Y-138807652D01*
X159273533Y-138733557D01*
X159330147Y-138716384D01*
X159443373Y-138682037D01*
X159509558Y-138675518D01*
X159575740Y-138669000D01*
X159664260Y-138669000D01*
X159730442Y-138675518D01*
X159730442Y-138675518D01*
G37*
G36*
X157190442Y-138675518D02*
X157256627Y-138682037D01*
X157369853Y-138716384D01*
X157426467Y-138733557D01*
X157565087Y-138807652D01*
X157582991Y-138817222D01*
X157618729Y-138846552D01*
X157720186Y-138929814D01*
X157803448Y-139031271D01*
X157832778Y-139067009D01*
X157832779Y-139067011D01*
X157916443Y-139223533D01*
X157916443Y-139223534D01*
X157967963Y-139393373D01*
X157985359Y-139570000D01*
X157967963Y-139746627D01*
X157933616Y-139859853D01*
X157916443Y-139916467D01*
X157842348Y-140055087D01*
X157832778Y-140072991D01*
X157803448Y-140108729D01*
X157720186Y-140210186D01*
X157618729Y-140293448D01*
X157582991Y-140322778D01*
X157582989Y-140322779D01*
X157426467Y-140406443D01*
X157369853Y-140423616D01*
X157256627Y-140457963D01*
X157190442Y-140464482D01*
X157124260Y-140471000D01*
X157035740Y-140471000D01*
X156969558Y-140464482D01*
X156903373Y-140457963D01*
X156790147Y-140423616D01*
X156733533Y-140406443D01*
X156577011Y-140322779D01*
X156577009Y-140322778D01*
X156541271Y-140293448D01*
X156439814Y-140210186D01*
X156356552Y-140108729D01*
X156327222Y-140072991D01*
X156317652Y-140055087D01*
X156243557Y-139916467D01*
X156226384Y-139859853D01*
X156192037Y-139746627D01*
X156174641Y-139570000D01*
X156192037Y-139393373D01*
X156243557Y-139223534D01*
X156243557Y-139223533D01*
X156327221Y-139067011D01*
X156327222Y-139067009D01*
X156356552Y-139031271D01*
X156439814Y-138929814D01*
X156541271Y-138846552D01*
X156577009Y-138817222D01*
X156594913Y-138807652D01*
X156733533Y-138733557D01*
X156790147Y-138716384D01*
X156903373Y-138682037D01*
X156969558Y-138675518D01*
X157035740Y-138669000D01*
X157124260Y-138669000D01*
X157190442Y-138675518D01*
X157190442Y-138675518D01*
G37*
G36*
X108701000Y-140471000D02*
X106899000Y-140471000D01*
X106899000Y-138669000D01*
X108701000Y-138669000D01*
X108701000Y-140471000D01*
X108701000Y-140471000D01*
G37*
G36*
X110450442Y-138675518D02*
X110516627Y-138682037D01*
X110629853Y-138716384D01*
X110686467Y-138733557D01*
X110825087Y-138807652D01*
X110842991Y-138817222D01*
X110878729Y-138846552D01*
X110980186Y-138929814D01*
X111063448Y-139031271D01*
X111092778Y-139067009D01*
X111092779Y-139067011D01*
X111176443Y-139223533D01*
X111176443Y-139223534D01*
X111227963Y-139393373D01*
X111245359Y-139570000D01*
X111227963Y-139746627D01*
X111193616Y-139859853D01*
X111176443Y-139916467D01*
X111102348Y-140055087D01*
X111092778Y-140072991D01*
X111063448Y-140108729D01*
X110980186Y-140210186D01*
X110878729Y-140293448D01*
X110842991Y-140322778D01*
X110842989Y-140322779D01*
X110686467Y-140406443D01*
X110629853Y-140423616D01*
X110516627Y-140457963D01*
X110450442Y-140464482D01*
X110384260Y-140471000D01*
X110295740Y-140471000D01*
X110229558Y-140464482D01*
X110163373Y-140457963D01*
X110050147Y-140423616D01*
X109993533Y-140406443D01*
X109837011Y-140322779D01*
X109837009Y-140322778D01*
X109801271Y-140293448D01*
X109699814Y-140210186D01*
X109616552Y-140108729D01*
X109587222Y-140072991D01*
X109577652Y-140055087D01*
X109503557Y-139916467D01*
X109486384Y-139859853D01*
X109452037Y-139746627D01*
X109434641Y-139570000D01*
X109452037Y-139393373D01*
X109503557Y-139223534D01*
X109503557Y-139223533D01*
X109587221Y-139067011D01*
X109587222Y-139067009D01*
X109616552Y-139031271D01*
X109699814Y-138929814D01*
X109801271Y-138846552D01*
X109837009Y-138817222D01*
X109854913Y-138807652D01*
X109993533Y-138733557D01*
X110050147Y-138716384D01*
X110163373Y-138682037D01*
X110229558Y-138675518D01*
X110295740Y-138669000D01*
X110384260Y-138669000D01*
X110450442Y-138675518D01*
X110450442Y-138675518D01*
G37*
G36*
X147821000Y-140471000D02*
X146019000Y-140471000D01*
X146019000Y-138669000D01*
X147821000Y-138669000D01*
X147821000Y-140471000D01*
X147821000Y-140471000D01*
G37*
G36*
X152110442Y-138675518D02*
X152176627Y-138682037D01*
X152289853Y-138716384D01*
X152346467Y-138733557D01*
X152485087Y-138807652D01*
X152502991Y-138817222D01*
X152538729Y-138846552D01*
X152640186Y-138929814D01*
X152723448Y-139031271D01*
X152752778Y-139067009D01*
X152752779Y-139067011D01*
X152836443Y-139223533D01*
X152836443Y-139223534D01*
X152887963Y-139393373D01*
X152905359Y-139570000D01*
X152887963Y-139746627D01*
X152853616Y-139859853D01*
X152836443Y-139916467D01*
X152762348Y-140055087D01*
X152752778Y-140072991D01*
X152723448Y-140108729D01*
X152640186Y-140210186D01*
X152538729Y-140293448D01*
X152502991Y-140322778D01*
X152502989Y-140322779D01*
X152346467Y-140406443D01*
X152289853Y-140423616D01*
X152176627Y-140457963D01*
X152110442Y-140464482D01*
X152044260Y-140471000D01*
X151955740Y-140471000D01*
X151889558Y-140464482D01*
X151823373Y-140457963D01*
X151710147Y-140423616D01*
X151653533Y-140406443D01*
X151497011Y-140322779D01*
X151497009Y-140322778D01*
X151461271Y-140293448D01*
X151359814Y-140210186D01*
X151276552Y-140108729D01*
X151247222Y-140072991D01*
X151237652Y-140055087D01*
X151163557Y-139916467D01*
X151146384Y-139859853D01*
X151112037Y-139746627D01*
X151094641Y-139570000D01*
X151112037Y-139393373D01*
X151163557Y-139223534D01*
X151163557Y-139223533D01*
X151247221Y-139067011D01*
X151247222Y-139067009D01*
X151276552Y-139031271D01*
X151359814Y-138929814D01*
X151461271Y-138846552D01*
X151497009Y-138817222D01*
X151514913Y-138807652D01*
X151653533Y-138733557D01*
X151710147Y-138716384D01*
X151823373Y-138682037D01*
X151889558Y-138675518D01*
X151955740Y-138669000D01*
X152044260Y-138669000D01*
X152110442Y-138675518D01*
X152110442Y-138675518D01*
G37*
G36*
X149570442Y-138675518D02*
X149636627Y-138682037D01*
X149749853Y-138716384D01*
X149806467Y-138733557D01*
X149945087Y-138807652D01*
X149962991Y-138817222D01*
X149998729Y-138846552D01*
X150100186Y-138929814D01*
X150183448Y-139031271D01*
X150212778Y-139067009D01*
X150212779Y-139067011D01*
X150296443Y-139223533D01*
X150296443Y-139223534D01*
X150347963Y-139393373D01*
X150365359Y-139570000D01*
X150347963Y-139746627D01*
X150313616Y-139859853D01*
X150296443Y-139916467D01*
X150222348Y-140055087D01*
X150212778Y-140072991D01*
X150183448Y-140108729D01*
X150100186Y-140210186D01*
X149998729Y-140293448D01*
X149962991Y-140322778D01*
X149962989Y-140322779D01*
X149806467Y-140406443D01*
X149749853Y-140423616D01*
X149636627Y-140457963D01*
X149570442Y-140464482D01*
X149504260Y-140471000D01*
X149415740Y-140471000D01*
X149349558Y-140464482D01*
X149283373Y-140457963D01*
X149170147Y-140423616D01*
X149113533Y-140406443D01*
X148957011Y-140322779D01*
X148957009Y-140322778D01*
X148921271Y-140293448D01*
X148819814Y-140210186D01*
X148736552Y-140108729D01*
X148707222Y-140072991D01*
X148697652Y-140055087D01*
X148623557Y-139916467D01*
X148606384Y-139859853D01*
X148572037Y-139746627D01*
X148554641Y-139570000D01*
X148572037Y-139393373D01*
X148623557Y-139223534D01*
X148623557Y-139223533D01*
X148707221Y-139067011D01*
X148707222Y-139067009D01*
X148736552Y-139031271D01*
X148819814Y-138929814D01*
X148921271Y-138846552D01*
X148957009Y-138817222D01*
X148974913Y-138807652D01*
X149113533Y-138733557D01*
X149170147Y-138716384D01*
X149283373Y-138682037D01*
X149349558Y-138675518D01*
X149415740Y-138669000D01*
X149504260Y-138669000D01*
X149570442Y-138675518D01*
X149570442Y-138675518D01*
G37*
G36*
X154650442Y-138675518D02*
X154716627Y-138682037D01*
X154829853Y-138716384D01*
X154886467Y-138733557D01*
X155025087Y-138807652D01*
X155042991Y-138817222D01*
X155078729Y-138846552D01*
X155180186Y-138929814D01*
X155263448Y-139031271D01*
X155292778Y-139067009D01*
X155292779Y-139067011D01*
X155376443Y-139223533D01*
X155376443Y-139223534D01*
X155427963Y-139393373D01*
X155445359Y-139570000D01*
X155427963Y-139746627D01*
X155393616Y-139859853D01*
X155376443Y-139916467D01*
X155302348Y-140055087D01*
X155292778Y-140072991D01*
X155263448Y-140108729D01*
X155180186Y-140210186D01*
X155078729Y-140293448D01*
X155042991Y-140322778D01*
X155042989Y-140322779D01*
X154886467Y-140406443D01*
X154829853Y-140423616D01*
X154716627Y-140457963D01*
X154650442Y-140464482D01*
X154584260Y-140471000D01*
X154495740Y-140471000D01*
X154429558Y-140464482D01*
X154363373Y-140457963D01*
X154250147Y-140423616D01*
X154193533Y-140406443D01*
X154037011Y-140322779D01*
X154037009Y-140322778D01*
X154001271Y-140293448D01*
X153899814Y-140210186D01*
X153816552Y-140108729D01*
X153787222Y-140072991D01*
X153777652Y-140055087D01*
X153703557Y-139916467D01*
X153686384Y-139859853D01*
X153652037Y-139746627D01*
X153634641Y-139570000D01*
X153652037Y-139393373D01*
X153703557Y-139223534D01*
X153703557Y-139223533D01*
X153787221Y-139067011D01*
X153787222Y-139067009D01*
X153816552Y-139031271D01*
X153899814Y-138929814D01*
X154001271Y-138846552D01*
X154037009Y-138817222D01*
X154054913Y-138807652D01*
X154193533Y-138733557D01*
X154250147Y-138716384D01*
X154363373Y-138682037D01*
X154429558Y-138675518D01*
X154495740Y-138669000D01*
X154584260Y-138669000D01*
X154650442Y-138675518D01*
X154650442Y-138675518D01*
G37*
G36*
X156873000Y-128572000D02*
X155247000Y-128572000D01*
X155247000Y-126946000D01*
X156873000Y-126946000D01*
X156873000Y-128572000D01*
X156873000Y-128572000D01*
G37*
G36*
X156297142Y-124437242D02*
X156445102Y-124498530D01*
X156578258Y-124587502D01*
X156691498Y-124700742D01*
X156780470Y-124833898D01*
X156841758Y-124981858D01*
X156873000Y-125138925D01*
X156873000Y-125299075D01*
X156841758Y-125456142D01*
X156780470Y-125604102D01*
X156691498Y-125737258D01*
X156578258Y-125850498D01*
X156445102Y-125939470D01*
X156297142Y-126000758D01*
X156140075Y-126032000D01*
X155979925Y-126032000D01*
X155822858Y-126000758D01*
X155674898Y-125939470D01*
X155541742Y-125850498D01*
X155428502Y-125737258D01*
X155339530Y-125604102D01*
X155278242Y-125456142D01*
X155247000Y-125299075D01*
X155247000Y-125138925D01*
X155278242Y-124981858D01*
X155339530Y-124833898D01*
X155428502Y-124700742D01*
X155541742Y-124587502D01*
X155674898Y-124498530D01*
X155822858Y-124437242D01*
X155979925Y-124406000D01*
X156140075Y-124406000D01*
X156297142Y-124437242D01*
X156297142Y-124437242D01*
G37*
G36*
X156297142Y-121897242D02*
X156445102Y-121958530D01*
X156578258Y-122047502D01*
X156691498Y-122160742D01*
X156780470Y-122293898D01*
X156841758Y-122441858D01*
X156873000Y-122598925D01*
X156873000Y-122759075D01*
X156841758Y-122916142D01*
X156780470Y-123064102D01*
X156691498Y-123197258D01*
X156578258Y-123310498D01*
X156445102Y-123399470D01*
X156297142Y-123460758D01*
X156140075Y-123492000D01*
X155979925Y-123492000D01*
X155822858Y-123460758D01*
X155674898Y-123399470D01*
X155541742Y-123310498D01*
X155428502Y-123197258D01*
X155339530Y-123064102D01*
X155278242Y-122916142D01*
X155247000Y-122759075D01*
X155247000Y-122598925D01*
X155278242Y-122441858D01*
X155339530Y-122293898D01*
X155428502Y-122160742D01*
X155541742Y-122047502D01*
X155674898Y-121958530D01*
X155822858Y-121897242D01*
X155979925Y-121866000D01*
X156140075Y-121866000D01*
X156297142Y-121897242D01*
X156297142Y-121897242D01*
G37*
G36*
X156297142Y-119357242D02*
X156445102Y-119418530D01*
X156578258Y-119507502D01*
X156691498Y-119620742D01*
X156780470Y-119753898D01*
X156841758Y-119901858D01*
X156873000Y-120058925D01*
X156873000Y-120219075D01*
X156841758Y-120376142D01*
X156780470Y-120524102D01*
X156691498Y-120657258D01*
X156578258Y-120770498D01*
X156445102Y-120859470D01*
X156297142Y-120920758D01*
X156140075Y-120952000D01*
X155979925Y-120952000D01*
X155822858Y-120920758D01*
X155674898Y-120859470D01*
X155541742Y-120770498D01*
X155428502Y-120657258D01*
X155339530Y-120524102D01*
X155278242Y-120376142D01*
X155247000Y-120219075D01*
X155247000Y-120058925D01*
X155278242Y-119901858D01*
X155339530Y-119753898D01*
X155428502Y-119620742D01*
X155541742Y-119507502D01*
X155674898Y-119418530D01*
X155822858Y-119357242D01*
X155979925Y-119326000D01*
X156140075Y-119326000D01*
X156297142Y-119357242D01*
X156297142Y-119357242D01*
G37*
G36*
X156297142Y-116817242D02*
X156445102Y-116878530D01*
X156578258Y-116967502D01*
X156691498Y-117080742D01*
X156780470Y-117213898D01*
X156841758Y-117361858D01*
X156873000Y-117518925D01*
X156873000Y-117679075D01*
X156841758Y-117836142D01*
X156780470Y-117984102D01*
X156691498Y-118117258D01*
X156578258Y-118230498D01*
X156445102Y-118319470D01*
X156297142Y-118380758D01*
X156140075Y-118412000D01*
X155979925Y-118412000D01*
X155822858Y-118380758D01*
X155674898Y-118319470D01*
X155541742Y-118230498D01*
X155428502Y-118117258D01*
X155339530Y-117984102D01*
X155278242Y-117836142D01*
X155247000Y-117679075D01*
X155247000Y-117518925D01*
X155278242Y-117361858D01*
X155339530Y-117213898D01*
X155428502Y-117080742D01*
X155541742Y-116967502D01*
X155674898Y-116878530D01*
X155822858Y-116817242D01*
X155979925Y-116786000D01*
X156140075Y-116786000D01*
X156297142Y-116817242D01*
X156297142Y-116817242D01*
G37*
G36*
X96001000Y-117611000D02*
X94199000Y-117611000D01*
X94199000Y-115809000D01*
X96001000Y-115809000D01*
X96001000Y-117611000D01*
X96001000Y-117611000D01*
G37*
G36*
X168391000Y-117611000D02*
X166589000Y-117611000D01*
X166589000Y-115809000D01*
X168391000Y-115809000D01*
X168391000Y-117611000D01*
X168391000Y-117611000D01*
G37*
G36*
X108037142Y-115293242D02*
X108185102Y-115354530D01*
X108252130Y-115399317D01*
X108318257Y-115443501D01*
X108431499Y-115556743D01*
X108475683Y-115622870D01*
X108520470Y-115689898D01*
X108581758Y-115837858D01*
X108613000Y-115994925D01*
X108613000Y-116155075D01*
X108581758Y-116312142D01*
X108520470Y-116460102D01*
X108431498Y-116593258D01*
X108318258Y-116706498D01*
X108185102Y-116795470D01*
X108037142Y-116856758D01*
X107880075Y-116888000D01*
X107719925Y-116888000D01*
X107562858Y-116856758D01*
X107414898Y-116795470D01*
X107281742Y-116706498D01*
X107168502Y-116593258D01*
X107079530Y-116460102D01*
X107018242Y-116312142D01*
X106987000Y-116155075D01*
X106987000Y-115994925D01*
X107018242Y-115837858D01*
X107079530Y-115689898D01*
X107124317Y-115622870D01*
X107168501Y-115556743D01*
X107281743Y-115443501D01*
X107347870Y-115399317D01*
X107414898Y-115354530D01*
X107562858Y-115293242D01*
X107719925Y-115262000D01*
X107880075Y-115262000D01*
X108037142Y-115293242D01*
X108037142Y-115293242D01*
G37*
G36*
X156297142Y-114277242D02*
X156445102Y-114338530D01*
X156578258Y-114427502D01*
X156691498Y-114540742D01*
X156780470Y-114673898D01*
X156841758Y-114821858D01*
X156873000Y-114978925D01*
X156873000Y-115139075D01*
X156841758Y-115296142D01*
X156794354Y-115410583D01*
X156780471Y-115444100D01*
X156705207Y-115556742D01*
X156691498Y-115577258D01*
X156578258Y-115690498D01*
X156445102Y-115779470D01*
X156297142Y-115840758D01*
X156140075Y-115872000D01*
X155979925Y-115872000D01*
X155822858Y-115840758D01*
X155674898Y-115779470D01*
X155541742Y-115690498D01*
X155428502Y-115577258D01*
X155414794Y-115556742D01*
X155339529Y-115444100D01*
X155325646Y-115410583D01*
X155278242Y-115296142D01*
X155247000Y-115139075D01*
X155247000Y-114978925D01*
X155278242Y-114821858D01*
X155339530Y-114673898D01*
X155428502Y-114540742D01*
X155541742Y-114427502D01*
X155674898Y-114338530D01*
X155822858Y-114277242D01*
X155979925Y-114246000D01*
X156140075Y-114246000D01*
X156297142Y-114277242D01*
X156297142Y-114277242D01*
G37*
G36*
X95210443Y-113275519D02*
X95276627Y-113282037D01*
X95389853Y-113316384D01*
X95446467Y-113333557D01*
X95585087Y-113407652D01*
X95602991Y-113417222D01*
X95638729Y-113446552D01*
X95740186Y-113529814D01*
X95810156Y-113615074D01*
X95852778Y-113667009D01*
X95852779Y-113667011D01*
X95936443Y-113823533D01*
X95936443Y-113823534D01*
X95987963Y-113993373D01*
X96005359Y-114170000D01*
X95987963Y-114346627D01*
X95963430Y-114427501D01*
X95936443Y-114516467D01*
X95923467Y-114540743D01*
X95852778Y-114672991D01*
X95823448Y-114708729D01*
X95740186Y-114810186D01*
X95638729Y-114893448D01*
X95602991Y-114922778D01*
X95602989Y-114922779D01*
X95446467Y-115006443D01*
X95389853Y-115023616D01*
X95276627Y-115057963D01*
X95210443Y-115064481D01*
X95144260Y-115071000D01*
X95055740Y-115071000D01*
X94989557Y-115064481D01*
X94923373Y-115057963D01*
X94810147Y-115023616D01*
X94753533Y-115006443D01*
X94597011Y-114922779D01*
X94597009Y-114922778D01*
X94561271Y-114893448D01*
X94459814Y-114810186D01*
X94376552Y-114708729D01*
X94347222Y-114672991D01*
X94276533Y-114540743D01*
X94263557Y-114516467D01*
X94236570Y-114427501D01*
X94212037Y-114346627D01*
X94194641Y-114170000D01*
X94212037Y-113993373D01*
X94263557Y-113823534D01*
X94263557Y-113823533D01*
X94347221Y-113667011D01*
X94347222Y-113667009D01*
X94389844Y-113615074D01*
X94459814Y-113529814D01*
X94561271Y-113446552D01*
X94597009Y-113417222D01*
X94614913Y-113407652D01*
X94753533Y-113333557D01*
X94810147Y-113316384D01*
X94923373Y-113282037D01*
X94989557Y-113275519D01*
X95055740Y-113269000D01*
X95144260Y-113269000D01*
X95210443Y-113275519D01*
X95210443Y-113275519D01*
G37*
G36*
X167600443Y-113275519D02*
X167666627Y-113282037D01*
X167779853Y-113316384D01*
X167836467Y-113333557D01*
X167975087Y-113407652D01*
X167992991Y-113417222D01*
X168028729Y-113446552D01*
X168130186Y-113529814D01*
X168200156Y-113615074D01*
X168242778Y-113667009D01*
X168242779Y-113667011D01*
X168326443Y-113823533D01*
X168326443Y-113823534D01*
X168377963Y-113993373D01*
X168395359Y-114170000D01*
X168377963Y-114346627D01*
X168353430Y-114427501D01*
X168326443Y-114516467D01*
X168313467Y-114540743D01*
X168242778Y-114672991D01*
X168213448Y-114708729D01*
X168130186Y-114810186D01*
X168028729Y-114893448D01*
X167992991Y-114922778D01*
X167992989Y-114922779D01*
X167836467Y-115006443D01*
X167779853Y-115023616D01*
X167666627Y-115057963D01*
X167600443Y-115064481D01*
X167534260Y-115071000D01*
X167445740Y-115071000D01*
X167379557Y-115064481D01*
X167313373Y-115057963D01*
X167200147Y-115023616D01*
X167143533Y-115006443D01*
X166987011Y-114922779D01*
X166987009Y-114922778D01*
X166951271Y-114893448D01*
X166849814Y-114810186D01*
X166766552Y-114708729D01*
X166737222Y-114672991D01*
X166666533Y-114540743D01*
X166653557Y-114516467D01*
X166626570Y-114427501D01*
X166602037Y-114346627D01*
X166584641Y-114170000D01*
X166602037Y-113993373D01*
X166653557Y-113823534D01*
X166653557Y-113823533D01*
X166737221Y-113667011D01*
X166737222Y-113667009D01*
X166779844Y-113615074D01*
X166849814Y-113529814D01*
X166951271Y-113446552D01*
X166987009Y-113417222D01*
X167004913Y-113407652D01*
X167143533Y-113333557D01*
X167200147Y-113316384D01*
X167313373Y-113282037D01*
X167379557Y-113275519D01*
X167445740Y-113269000D01*
X167534260Y-113269000D01*
X167600443Y-113275519D01*
X167600443Y-113275519D01*
G37*
G36*
X108037142Y-112753242D02*
X108185102Y-112814530D01*
X108252130Y-112859317D01*
X108318257Y-112903501D01*
X108431499Y-113016743D01*
X108475683Y-113082870D01*
X108520470Y-113149898D01*
X108581758Y-113297858D01*
X108613000Y-113454925D01*
X108613000Y-113615075D01*
X108581758Y-113772142D01*
X108520470Y-113920102D01*
X108431498Y-114053258D01*
X108318258Y-114166498D01*
X108185102Y-114255470D01*
X108037142Y-114316758D01*
X107880075Y-114348000D01*
X107719925Y-114348000D01*
X107562858Y-114316758D01*
X107414898Y-114255470D01*
X107281742Y-114166498D01*
X107168502Y-114053258D01*
X107079530Y-113920102D01*
X107018242Y-113772142D01*
X106987000Y-113615075D01*
X106987000Y-113454925D01*
X107018242Y-113297858D01*
X107079530Y-113149898D01*
X107124317Y-113082870D01*
X107168501Y-113016743D01*
X107281743Y-112903501D01*
X107347870Y-112859317D01*
X107414898Y-112814530D01*
X107562858Y-112753242D01*
X107719925Y-112722000D01*
X107880075Y-112722000D01*
X108037142Y-112753242D01*
X108037142Y-112753242D01*
G37*
G36*
X156297142Y-111737242D02*
X156445102Y-111798530D01*
X156578258Y-111887502D01*
X156691498Y-112000742D01*
X156780470Y-112133898D01*
X156841758Y-112281858D01*
X156873000Y-112438925D01*
X156873000Y-112599075D01*
X156841758Y-112756142D01*
X156794354Y-112870583D01*
X156780471Y-112904100D01*
X156705207Y-113016742D01*
X156691498Y-113037258D01*
X156578258Y-113150498D01*
X156445102Y-113239470D01*
X156297142Y-113300758D01*
X156140075Y-113332000D01*
X155979925Y-113332000D01*
X155822858Y-113300758D01*
X155674898Y-113239470D01*
X155541742Y-113150498D01*
X155428502Y-113037258D01*
X155414794Y-113016742D01*
X155339529Y-112904100D01*
X155325646Y-112870583D01*
X155278242Y-112756142D01*
X155247000Y-112599075D01*
X155247000Y-112438925D01*
X155278242Y-112281858D01*
X155339530Y-112133898D01*
X155428502Y-112000742D01*
X155541742Y-111887502D01*
X155674898Y-111798530D01*
X155822858Y-111737242D01*
X155979925Y-111706000D01*
X156140075Y-111706000D01*
X156297142Y-111737242D01*
X156297142Y-111737242D01*
G37*
G36*
X167600443Y-110735519D02*
X167666627Y-110742037D01*
X167779853Y-110776384D01*
X167836467Y-110793557D01*
X167975087Y-110867652D01*
X167992991Y-110877222D01*
X168028729Y-110906552D01*
X168130186Y-110989814D01*
X168200156Y-111075074D01*
X168242778Y-111127009D01*
X168242779Y-111127011D01*
X168326443Y-111283533D01*
X168326443Y-111283534D01*
X168377963Y-111453373D01*
X168395359Y-111630000D01*
X168377963Y-111806627D01*
X168353430Y-111887501D01*
X168326443Y-111976467D01*
X168313467Y-112000743D01*
X168242778Y-112132991D01*
X168213448Y-112168729D01*
X168130186Y-112270186D01*
X168028729Y-112353448D01*
X167992991Y-112382778D01*
X167992989Y-112382779D01*
X167836467Y-112466443D01*
X167779853Y-112483616D01*
X167666627Y-112517963D01*
X167600443Y-112524481D01*
X167534260Y-112531000D01*
X167445740Y-112531000D01*
X167379557Y-112524481D01*
X167313373Y-112517963D01*
X167200147Y-112483616D01*
X167143533Y-112466443D01*
X166987011Y-112382779D01*
X166987009Y-112382778D01*
X166951271Y-112353448D01*
X166849814Y-112270186D01*
X166766552Y-112168729D01*
X166737222Y-112132991D01*
X166666533Y-112000743D01*
X166653557Y-111976467D01*
X166626570Y-111887501D01*
X166602037Y-111806627D01*
X166584641Y-111630000D01*
X166602037Y-111453373D01*
X166653557Y-111283534D01*
X166653557Y-111283533D01*
X166737221Y-111127011D01*
X166737222Y-111127009D01*
X166779844Y-111075074D01*
X166849814Y-110989814D01*
X166951271Y-110906552D01*
X166987009Y-110877222D01*
X167004913Y-110867652D01*
X167143533Y-110793557D01*
X167200147Y-110776384D01*
X167313373Y-110742037D01*
X167379557Y-110735519D01*
X167445740Y-110729000D01*
X167534260Y-110729000D01*
X167600443Y-110735519D01*
X167600443Y-110735519D01*
G37*
G36*
X95210443Y-110735519D02*
X95276627Y-110742037D01*
X95389853Y-110776384D01*
X95446467Y-110793557D01*
X95585087Y-110867652D01*
X95602991Y-110877222D01*
X95638729Y-110906552D01*
X95740186Y-110989814D01*
X95810156Y-111075074D01*
X95852778Y-111127009D01*
X95852779Y-111127011D01*
X95936443Y-111283533D01*
X95936443Y-111283534D01*
X95987963Y-111453373D01*
X96005359Y-111630000D01*
X95987963Y-111806627D01*
X95963430Y-111887501D01*
X95936443Y-111976467D01*
X95923467Y-112000743D01*
X95852778Y-112132991D01*
X95823448Y-112168729D01*
X95740186Y-112270186D01*
X95638729Y-112353448D01*
X95602991Y-112382778D01*
X95602989Y-112382779D01*
X95446467Y-112466443D01*
X95389853Y-112483616D01*
X95276627Y-112517963D01*
X95210443Y-112524481D01*
X95144260Y-112531000D01*
X95055740Y-112531000D01*
X94989557Y-112524481D01*
X94923373Y-112517963D01*
X94810147Y-112483616D01*
X94753533Y-112466443D01*
X94597011Y-112382779D01*
X94597009Y-112382778D01*
X94561271Y-112353448D01*
X94459814Y-112270186D01*
X94376552Y-112168729D01*
X94347222Y-112132991D01*
X94276533Y-112000743D01*
X94263557Y-111976467D01*
X94236570Y-111887501D01*
X94212037Y-111806627D01*
X94194641Y-111630000D01*
X94212037Y-111453373D01*
X94263557Y-111283534D01*
X94263557Y-111283533D01*
X94347221Y-111127011D01*
X94347222Y-111127009D01*
X94389844Y-111075074D01*
X94459814Y-110989814D01*
X94561271Y-110906552D01*
X94597009Y-110877222D01*
X94614913Y-110867652D01*
X94753533Y-110793557D01*
X94810147Y-110776384D01*
X94923373Y-110742037D01*
X94989557Y-110735519D01*
X95055740Y-110729000D01*
X95144260Y-110729000D01*
X95210443Y-110735519D01*
X95210443Y-110735519D01*
G37*
G36*
X108037142Y-110213242D02*
X108185102Y-110274530D01*
X108252130Y-110319317D01*
X108318257Y-110363501D01*
X108431499Y-110476743D01*
X108475683Y-110542870D01*
X108520470Y-110609898D01*
X108581758Y-110757858D01*
X108613000Y-110914925D01*
X108613000Y-111075075D01*
X108581758Y-111232142D01*
X108520470Y-111380102D01*
X108431498Y-111513258D01*
X108318258Y-111626498D01*
X108185102Y-111715470D01*
X108037142Y-111776758D01*
X107880075Y-111808000D01*
X107719925Y-111808000D01*
X107562858Y-111776758D01*
X107414898Y-111715470D01*
X107281742Y-111626498D01*
X107168502Y-111513258D01*
X107079530Y-111380102D01*
X107018242Y-111232142D01*
X106987000Y-111075075D01*
X106987000Y-110914925D01*
X107018242Y-110757858D01*
X107079530Y-110609898D01*
X107124317Y-110542870D01*
X107168501Y-110476743D01*
X107281743Y-110363501D01*
X107347870Y-110319317D01*
X107414898Y-110274530D01*
X107562858Y-110213242D01*
X107719925Y-110182000D01*
X107880075Y-110182000D01*
X108037142Y-110213242D01*
X108037142Y-110213242D01*
G37*
G36*
X156297142Y-109197242D02*
X156445102Y-109258530D01*
X156578258Y-109347502D01*
X156691498Y-109460742D01*
X156780470Y-109593898D01*
X156841758Y-109741858D01*
X156873000Y-109898925D01*
X156873000Y-110059075D01*
X156841758Y-110216142D01*
X156794354Y-110330583D01*
X156780471Y-110364100D01*
X156705207Y-110476742D01*
X156691498Y-110497258D01*
X156578258Y-110610498D01*
X156445102Y-110699470D01*
X156297142Y-110760758D01*
X156140075Y-110792000D01*
X155979925Y-110792000D01*
X155822858Y-110760758D01*
X155674898Y-110699470D01*
X155541742Y-110610498D01*
X155428502Y-110497258D01*
X155414794Y-110476742D01*
X155339529Y-110364100D01*
X155325646Y-110330583D01*
X155278242Y-110216142D01*
X155247000Y-110059075D01*
X155247000Y-109898925D01*
X155278242Y-109741858D01*
X155339530Y-109593898D01*
X155428502Y-109460742D01*
X155541742Y-109347502D01*
X155674898Y-109258530D01*
X155822858Y-109197242D01*
X155979925Y-109166000D01*
X156140075Y-109166000D01*
X156297142Y-109197242D01*
X156297142Y-109197242D01*
G37*
G36*
X108037142Y-107673242D02*
X108185102Y-107734530D01*
X108252130Y-107779317D01*
X108318257Y-107823501D01*
X108431499Y-107936743D01*
X108475683Y-108002870D01*
X108520470Y-108069898D01*
X108581758Y-108217858D01*
X108613000Y-108374925D01*
X108613000Y-108535075D01*
X108581758Y-108692142D01*
X108520470Y-108840102D01*
X108431498Y-108973258D01*
X108318258Y-109086498D01*
X108185102Y-109175470D01*
X108037142Y-109236758D01*
X107880075Y-109268000D01*
X107719925Y-109268000D01*
X107562858Y-109236758D01*
X107414898Y-109175470D01*
X107281742Y-109086498D01*
X107168502Y-108973258D01*
X107079530Y-108840102D01*
X107018242Y-108692142D01*
X106987000Y-108535075D01*
X106987000Y-108374925D01*
X107018242Y-108217858D01*
X107079530Y-108069898D01*
X107124317Y-108002870D01*
X107168501Y-107936743D01*
X107281743Y-107823501D01*
X107347870Y-107779317D01*
X107414898Y-107734530D01*
X107562858Y-107673242D01*
X107719925Y-107642000D01*
X107880075Y-107642000D01*
X108037142Y-107673242D01*
X108037142Y-107673242D01*
G37*
G36*
X156297142Y-106657242D02*
X156445102Y-106718530D01*
X156578258Y-106807502D01*
X156691498Y-106920742D01*
X156780470Y-107053898D01*
X156841758Y-107201858D01*
X156873000Y-107358925D01*
X156873000Y-107519075D01*
X156841758Y-107676142D01*
X156794354Y-107790583D01*
X156780471Y-107824100D01*
X156705207Y-107936742D01*
X156691498Y-107957258D01*
X156578258Y-108070498D01*
X156445102Y-108159470D01*
X156297142Y-108220758D01*
X156140075Y-108252000D01*
X155979925Y-108252000D01*
X155822858Y-108220758D01*
X155674898Y-108159470D01*
X155541742Y-108070498D01*
X155428502Y-107957258D01*
X155414794Y-107936742D01*
X155339529Y-107824100D01*
X155325646Y-107790583D01*
X155278242Y-107676142D01*
X155247000Y-107519075D01*
X155247000Y-107358925D01*
X155278242Y-107201858D01*
X155339530Y-107053898D01*
X155428502Y-106920742D01*
X155541742Y-106807502D01*
X155674898Y-106718530D01*
X155822858Y-106657242D01*
X155979925Y-106626000D01*
X156140075Y-106626000D01*
X156297142Y-106657242D01*
X156297142Y-106657242D01*
G37*
G36*
X108037142Y-105133242D02*
X108185102Y-105194530D01*
X108252130Y-105239317D01*
X108318257Y-105283501D01*
X108431499Y-105396743D01*
X108475683Y-105462870D01*
X108520470Y-105529898D01*
X108581758Y-105677858D01*
X108613000Y-105834925D01*
X108613000Y-105995075D01*
X108581758Y-106152142D01*
X108520470Y-106300102D01*
X108431498Y-106433258D01*
X108318258Y-106546498D01*
X108185102Y-106635470D01*
X108037142Y-106696758D01*
X107880075Y-106728000D01*
X107719925Y-106728000D01*
X107562858Y-106696758D01*
X107414898Y-106635470D01*
X107281742Y-106546498D01*
X107168502Y-106433258D01*
X107079530Y-106300102D01*
X107018242Y-106152142D01*
X106987000Y-105995075D01*
X106987000Y-105834925D01*
X107018242Y-105677858D01*
X107079530Y-105529898D01*
X107124317Y-105462870D01*
X107168501Y-105396743D01*
X107281743Y-105283501D01*
X107347870Y-105239317D01*
X107414898Y-105194530D01*
X107562858Y-105133242D01*
X107719925Y-105102000D01*
X107880075Y-105102000D01*
X108037142Y-105133242D01*
X108037142Y-105133242D01*
G37*
G36*
X168391000Y-106181000D02*
X166589000Y-106181000D01*
X166589000Y-104379000D01*
X168391000Y-104379000D01*
X168391000Y-106181000D01*
X168391000Y-106181000D01*
G37*
G36*
X96001000Y-106181000D02*
X94199000Y-106181000D01*
X94199000Y-104379000D01*
X96001000Y-104379000D01*
X96001000Y-106181000D01*
X96001000Y-106181000D01*
G37*
G36*
X156297142Y-104117242D02*
X156445102Y-104178530D01*
X156578258Y-104267502D01*
X156691498Y-104380742D01*
X156780470Y-104513898D01*
X156841758Y-104661858D01*
X156873000Y-104818925D01*
X156873000Y-104979075D01*
X156841758Y-105136142D01*
X156794354Y-105250583D01*
X156780471Y-105284100D01*
X156705207Y-105396742D01*
X156691498Y-105417258D01*
X156578258Y-105530498D01*
X156445102Y-105619470D01*
X156297142Y-105680758D01*
X156140075Y-105712000D01*
X155979925Y-105712000D01*
X155822858Y-105680758D01*
X155674898Y-105619470D01*
X155541742Y-105530498D01*
X155428502Y-105417258D01*
X155414794Y-105396742D01*
X155339529Y-105284100D01*
X155325646Y-105250583D01*
X155278242Y-105136142D01*
X155247000Y-104979075D01*
X155247000Y-104818925D01*
X155278242Y-104661858D01*
X155339530Y-104513898D01*
X155428502Y-104380742D01*
X155541742Y-104267502D01*
X155674898Y-104178530D01*
X155822858Y-104117242D01*
X155979925Y-104086000D01*
X156140075Y-104086000D01*
X156297142Y-104117242D01*
X156297142Y-104117242D01*
G37*
G36*
X108037142Y-102593242D02*
X108185102Y-102654530D01*
X108318258Y-102743502D01*
X108431498Y-102856742D01*
X108520470Y-102989898D01*
X108581758Y-103137858D01*
X108613000Y-103294925D01*
X108613000Y-103455075D01*
X108581758Y-103612142D01*
X108520470Y-103760102D01*
X108431498Y-103893258D01*
X108318258Y-104006498D01*
X108185102Y-104095470D01*
X108037142Y-104156758D01*
X107880075Y-104188000D01*
X107719925Y-104188000D01*
X107562858Y-104156758D01*
X107414898Y-104095470D01*
X107281742Y-104006498D01*
X107168502Y-103893258D01*
X107079530Y-103760102D01*
X107018242Y-103612142D01*
X106987000Y-103455075D01*
X106987000Y-103294925D01*
X107018242Y-103137858D01*
X107079530Y-102989898D01*
X107168502Y-102856742D01*
X107281742Y-102743502D01*
X107414898Y-102654530D01*
X107562858Y-102593242D01*
X107719925Y-102562000D01*
X107880075Y-102562000D01*
X108037142Y-102593242D01*
X108037142Y-102593242D01*
G37*
G36*
X167600443Y-101845519D02*
X167666627Y-101852037D01*
X167779853Y-101886384D01*
X167836467Y-101903557D01*
X167975087Y-101977652D01*
X167992991Y-101987222D01*
X168028729Y-102016552D01*
X168130186Y-102099814D01*
X168213448Y-102201271D01*
X168242778Y-102237009D01*
X168242779Y-102237011D01*
X168326443Y-102393533D01*
X168326443Y-102393534D01*
X168377963Y-102563373D01*
X168395359Y-102740000D01*
X168377963Y-102916627D01*
X168355736Y-102989900D01*
X168326443Y-103086467D01*
X168252348Y-103225087D01*
X168242778Y-103242991D01*
X168213448Y-103278729D01*
X168130186Y-103380186D01*
X168038933Y-103455074D01*
X167992991Y-103492778D01*
X167992989Y-103492779D01*
X167836467Y-103576443D01*
X167779853Y-103593616D01*
X167666627Y-103627963D01*
X167600443Y-103634481D01*
X167534260Y-103641000D01*
X167445740Y-103641000D01*
X167379558Y-103634482D01*
X167313373Y-103627963D01*
X167200147Y-103593616D01*
X167143533Y-103576443D01*
X166987011Y-103492779D01*
X166987009Y-103492778D01*
X166941067Y-103455074D01*
X166849814Y-103380186D01*
X166766552Y-103278729D01*
X166737222Y-103242991D01*
X166727652Y-103225087D01*
X166653557Y-103086467D01*
X166624264Y-102989900D01*
X166602037Y-102916627D01*
X166584641Y-102740000D01*
X166602037Y-102563373D01*
X166653557Y-102393534D01*
X166653557Y-102393533D01*
X166737221Y-102237011D01*
X166737222Y-102237009D01*
X166766552Y-102201271D01*
X166849814Y-102099814D01*
X166951271Y-102016552D01*
X166987009Y-101987222D01*
X167004913Y-101977652D01*
X167143533Y-101903557D01*
X167200147Y-101886384D01*
X167313373Y-101852037D01*
X167379557Y-101845519D01*
X167445740Y-101839000D01*
X167534260Y-101839000D01*
X167600443Y-101845519D01*
X167600443Y-101845519D01*
G37*
G36*
X95210443Y-101845519D02*
X95276627Y-101852037D01*
X95389853Y-101886384D01*
X95446467Y-101903557D01*
X95585087Y-101977652D01*
X95602991Y-101987222D01*
X95638729Y-102016552D01*
X95740186Y-102099814D01*
X95823448Y-102201271D01*
X95852778Y-102237009D01*
X95852779Y-102237011D01*
X95936443Y-102393533D01*
X95936443Y-102393534D01*
X95987963Y-102563373D01*
X96005359Y-102740000D01*
X95987963Y-102916627D01*
X95965736Y-102989900D01*
X95936443Y-103086467D01*
X95862348Y-103225087D01*
X95852778Y-103242991D01*
X95823448Y-103278729D01*
X95740186Y-103380186D01*
X95648933Y-103455074D01*
X95602991Y-103492778D01*
X95602989Y-103492779D01*
X95446467Y-103576443D01*
X95389853Y-103593616D01*
X95276627Y-103627963D01*
X95210443Y-103634481D01*
X95144260Y-103641000D01*
X95055740Y-103641000D01*
X94989558Y-103634482D01*
X94923373Y-103627963D01*
X94810147Y-103593616D01*
X94753533Y-103576443D01*
X94597011Y-103492779D01*
X94597009Y-103492778D01*
X94551067Y-103455074D01*
X94459814Y-103380186D01*
X94376552Y-103278729D01*
X94347222Y-103242991D01*
X94337652Y-103225087D01*
X94263557Y-103086467D01*
X94234264Y-102989900D01*
X94212037Y-102916627D01*
X94194641Y-102740000D01*
X94212037Y-102563373D01*
X94263557Y-102393534D01*
X94263557Y-102393533D01*
X94347221Y-102237011D01*
X94347222Y-102237009D01*
X94376552Y-102201271D01*
X94459814Y-102099814D01*
X94561271Y-102016552D01*
X94597009Y-101987222D01*
X94614913Y-101977652D01*
X94753533Y-101903557D01*
X94810147Y-101886384D01*
X94923373Y-101852037D01*
X94989557Y-101845519D01*
X95055740Y-101839000D01*
X95144260Y-101839000D01*
X95210443Y-101845519D01*
X95210443Y-101845519D01*
G37*
G36*
X108037142Y-100053242D02*
X108185102Y-100114530D01*
X108318258Y-100203502D01*
X108431498Y-100316742D01*
X108520470Y-100449898D01*
X108581758Y-100597858D01*
X108613000Y-100754925D01*
X108613000Y-100915075D01*
X108581758Y-101072142D01*
X108520470Y-101220102D01*
X108431498Y-101353258D01*
X108318258Y-101466498D01*
X108185102Y-101555470D01*
X108037142Y-101616758D01*
X107880075Y-101648000D01*
X107719925Y-101648000D01*
X107562858Y-101616758D01*
X107414898Y-101555470D01*
X107281742Y-101466498D01*
X107168502Y-101353258D01*
X107079530Y-101220102D01*
X107018242Y-101072142D01*
X106987000Y-100915075D01*
X106987000Y-100754925D01*
X107018242Y-100597858D01*
X107079530Y-100449898D01*
X107168502Y-100316742D01*
X107281742Y-100203502D01*
X107414898Y-100114530D01*
X107562858Y-100053242D01*
X107719925Y-100022000D01*
X107880075Y-100022000D01*
X108037142Y-100053242D01*
X108037142Y-100053242D01*
G37*
G36*
X156297142Y-100053242D02*
X156445102Y-100114530D01*
X156578258Y-100203502D01*
X156691498Y-100316742D01*
X156780470Y-100449898D01*
X156841758Y-100597858D01*
X156873000Y-100754925D01*
X156873000Y-100915075D01*
X156841758Y-101072142D01*
X156780470Y-101220102D01*
X156691498Y-101353258D01*
X156578258Y-101466498D01*
X156445102Y-101555470D01*
X156297142Y-101616758D01*
X156140075Y-101648000D01*
X155979925Y-101648000D01*
X155822858Y-101616758D01*
X155674898Y-101555470D01*
X155541742Y-101466498D01*
X155428502Y-101353258D01*
X155339530Y-101220102D01*
X155278242Y-101072142D01*
X155247000Y-100915075D01*
X155247000Y-100754925D01*
X155278242Y-100597858D01*
X155339530Y-100449898D01*
X155428502Y-100316742D01*
X155541742Y-100203502D01*
X155674898Y-100114530D01*
X155822858Y-100053242D01*
X155979925Y-100022000D01*
X156140075Y-100022000D01*
X156297142Y-100053242D01*
X156297142Y-100053242D01*
G37*
G36*
X95210443Y-99305519D02*
X95276627Y-99312037D01*
X95389853Y-99346384D01*
X95446467Y-99363557D01*
X95585087Y-99437652D01*
X95602991Y-99447222D01*
X95638729Y-99476552D01*
X95740186Y-99559814D01*
X95823448Y-99661271D01*
X95852778Y-99697009D01*
X95852779Y-99697011D01*
X95936443Y-99853533D01*
X95936443Y-99853534D01*
X95987963Y-100023373D01*
X96005359Y-100200000D01*
X95987963Y-100376627D01*
X95965736Y-100449900D01*
X95936443Y-100546467D01*
X95862348Y-100685087D01*
X95852778Y-100702991D01*
X95823448Y-100738729D01*
X95740186Y-100840186D01*
X95648933Y-100915074D01*
X95602991Y-100952778D01*
X95602989Y-100952779D01*
X95446467Y-101036443D01*
X95389853Y-101053616D01*
X95276627Y-101087963D01*
X95210442Y-101094482D01*
X95144260Y-101101000D01*
X95055740Y-101101000D01*
X94989558Y-101094482D01*
X94923373Y-101087963D01*
X94810147Y-101053616D01*
X94753533Y-101036443D01*
X94597011Y-100952779D01*
X94597009Y-100952778D01*
X94551067Y-100915074D01*
X94459814Y-100840186D01*
X94376552Y-100738729D01*
X94347222Y-100702991D01*
X94337652Y-100685087D01*
X94263557Y-100546467D01*
X94234264Y-100449900D01*
X94212037Y-100376627D01*
X94194641Y-100200000D01*
X94212037Y-100023373D01*
X94263557Y-99853534D01*
X94263557Y-99853533D01*
X94347221Y-99697011D01*
X94347222Y-99697009D01*
X94376552Y-99661271D01*
X94459814Y-99559814D01*
X94561271Y-99476552D01*
X94597009Y-99447222D01*
X94614913Y-99437652D01*
X94753533Y-99363557D01*
X94810147Y-99346384D01*
X94923373Y-99312037D01*
X94989558Y-99305518D01*
X95055740Y-99299000D01*
X95144260Y-99299000D01*
X95210443Y-99305519D01*
X95210443Y-99305519D01*
G37*
G36*
X167600443Y-99305519D02*
X167666627Y-99312037D01*
X167779853Y-99346384D01*
X167836467Y-99363557D01*
X167975087Y-99437652D01*
X167992991Y-99447222D01*
X168028729Y-99476552D01*
X168130186Y-99559814D01*
X168213448Y-99661271D01*
X168242778Y-99697009D01*
X168242779Y-99697011D01*
X168326443Y-99853533D01*
X168326443Y-99853534D01*
X168377963Y-100023373D01*
X168395359Y-100200000D01*
X168377963Y-100376627D01*
X168355736Y-100449900D01*
X168326443Y-100546467D01*
X168252348Y-100685087D01*
X168242778Y-100702991D01*
X168213448Y-100738729D01*
X168130186Y-100840186D01*
X168038933Y-100915074D01*
X167992991Y-100952778D01*
X167992989Y-100952779D01*
X167836467Y-101036443D01*
X167779853Y-101053616D01*
X167666627Y-101087963D01*
X167600442Y-101094482D01*
X167534260Y-101101000D01*
X167445740Y-101101000D01*
X167379558Y-101094482D01*
X167313373Y-101087963D01*
X167200147Y-101053616D01*
X167143533Y-101036443D01*
X166987011Y-100952779D01*
X166987009Y-100952778D01*
X166941067Y-100915074D01*
X166849814Y-100840186D01*
X166766552Y-100738729D01*
X166737222Y-100702991D01*
X166727652Y-100685087D01*
X166653557Y-100546467D01*
X166624264Y-100449900D01*
X166602037Y-100376627D01*
X166584641Y-100200000D01*
X166602037Y-100023373D01*
X166653557Y-99853534D01*
X166653557Y-99853533D01*
X166737221Y-99697011D01*
X166737222Y-99697009D01*
X166766552Y-99661271D01*
X166849814Y-99559814D01*
X166951271Y-99476552D01*
X166987009Y-99447222D01*
X167004913Y-99437652D01*
X167143533Y-99363557D01*
X167200147Y-99346384D01*
X167313373Y-99312037D01*
X167379558Y-99305518D01*
X167445740Y-99299000D01*
X167534260Y-99299000D01*
X167600443Y-99305519D01*
X167600443Y-99305519D01*
G37*
G36*
X156297142Y-97513242D02*
X156445102Y-97574530D01*
X156578258Y-97663502D01*
X156691498Y-97776742D01*
X156780470Y-97909898D01*
X156841758Y-98057858D01*
X156873000Y-98214925D01*
X156873000Y-98375075D01*
X156841758Y-98532142D01*
X156780470Y-98680102D01*
X156691498Y-98813258D01*
X156578258Y-98926498D01*
X156445102Y-99015470D01*
X156297142Y-99076758D01*
X156140075Y-99108000D01*
X155979925Y-99108000D01*
X155822858Y-99076758D01*
X155674898Y-99015470D01*
X155541742Y-98926498D01*
X155428502Y-98813258D01*
X155339530Y-98680102D01*
X155278242Y-98532142D01*
X155247000Y-98375075D01*
X155247000Y-98214925D01*
X155278242Y-98057858D01*
X155339530Y-97909898D01*
X155428502Y-97776742D01*
X155541742Y-97663502D01*
X155674898Y-97574530D01*
X155822858Y-97513242D01*
X155979925Y-97482000D01*
X156140075Y-97482000D01*
X156297142Y-97513242D01*
X156297142Y-97513242D01*
G37*
G36*
X108037142Y-94973242D02*
X108185102Y-95034530D01*
X108318258Y-95123502D01*
X108431498Y-95236742D01*
X108520470Y-95369898D01*
X108581758Y-95517858D01*
X108613000Y-95674925D01*
X108613000Y-95835075D01*
X108581758Y-95992142D01*
X108520470Y-96140102D01*
X108431498Y-96273258D01*
X108318258Y-96386498D01*
X108185102Y-96475470D01*
X108037142Y-96536758D01*
X107880075Y-96568000D01*
X107719925Y-96568000D01*
X107562858Y-96536758D01*
X107414898Y-96475470D01*
X107281742Y-96386498D01*
X107168502Y-96273258D01*
X107079530Y-96140102D01*
X107018242Y-95992142D01*
X106987000Y-95835075D01*
X106987000Y-95674925D01*
X107018242Y-95517858D01*
X107079530Y-95369898D01*
X107168502Y-95236742D01*
X107281742Y-95123502D01*
X107414898Y-95034530D01*
X107562858Y-94973242D01*
X107719925Y-94942000D01*
X107880075Y-94942000D01*
X108037142Y-94973242D01*
X108037142Y-94973242D01*
G37*
G36*
X156297142Y-94973242D02*
X156445102Y-95034530D01*
X156578258Y-95123502D01*
X156691498Y-95236742D01*
X156780470Y-95369898D01*
X156841758Y-95517858D01*
X156873000Y-95674925D01*
X156873000Y-95835075D01*
X156841758Y-95992142D01*
X156780470Y-96140102D01*
X156691498Y-96273258D01*
X156578258Y-96386498D01*
X156445102Y-96475470D01*
X156297142Y-96536758D01*
X156140075Y-96568000D01*
X155979925Y-96568000D01*
X155822858Y-96536758D01*
X155674898Y-96475470D01*
X155541742Y-96386498D01*
X155428502Y-96273258D01*
X155339530Y-96140102D01*
X155278242Y-95992142D01*
X155247000Y-95835075D01*
X155247000Y-95674925D01*
X155278242Y-95517858D01*
X155339530Y-95369898D01*
X155428502Y-95236742D01*
X155541742Y-95123502D01*
X155674898Y-95034530D01*
X155822858Y-94973242D01*
X155979925Y-94942000D01*
X156140075Y-94942000D01*
X156297142Y-94973242D01*
X156297142Y-94973242D01*
G37*
G36*
X95210442Y-92955518D02*
X95276627Y-92962037D01*
X95389853Y-92996384D01*
X95446467Y-93013557D01*
X95585087Y-93087652D01*
X95602991Y-93097222D01*
X95638729Y-93126552D01*
X95740186Y-93209814D01*
X95810156Y-93295074D01*
X95852778Y-93347009D01*
X95852779Y-93347011D01*
X95936443Y-93503533D01*
X95936443Y-93503534D01*
X95987963Y-93673373D01*
X96005359Y-93850000D01*
X95987963Y-94026627D01*
X95953616Y-94139853D01*
X95936443Y-94196467D01*
X95862348Y-94335087D01*
X95852778Y-94352991D01*
X95823448Y-94388729D01*
X95740186Y-94490186D01*
X95638729Y-94573448D01*
X95602991Y-94602778D01*
X95602989Y-94602779D01*
X95446467Y-94686443D01*
X95389853Y-94703616D01*
X95276627Y-94737963D01*
X95210443Y-94744481D01*
X95144260Y-94751000D01*
X95055740Y-94751000D01*
X94989557Y-94744481D01*
X94923373Y-94737963D01*
X94810147Y-94703616D01*
X94753533Y-94686443D01*
X94597011Y-94602779D01*
X94597009Y-94602778D01*
X94561271Y-94573448D01*
X94459814Y-94490186D01*
X94376552Y-94388729D01*
X94347222Y-94352991D01*
X94337652Y-94335087D01*
X94263557Y-94196467D01*
X94246384Y-94139853D01*
X94212037Y-94026627D01*
X94194641Y-93850000D01*
X94212037Y-93673373D01*
X94263557Y-93503534D01*
X94263557Y-93503533D01*
X94347221Y-93347011D01*
X94347222Y-93347009D01*
X94389844Y-93295074D01*
X94459814Y-93209814D01*
X94561271Y-93126552D01*
X94597009Y-93097222D01*
X94614913Y-93087652D01*
X94753533Y-93013557D01*
X94810147Y-92996384D01*
X94923373Y-92962037D01*
X94989558Y-92955518D01*
X95055740Y-92949000D01*
X95144260Y-92949000D01*
X95210442Y-92955518D01*
X95210442Y-92955518D01*
G37*
G36*
X167600442Y-92955518D02*
X167666627Y-92962037D01*
X167779853Y-92996384D01*
X167836467Y-93013557D01*
X167975087Y-93087652D01*
X167992991Y-93097222D01*
X168028729Y-93126552D01*
X168130186Y-93209814D01*
X168200156Y-93295074D01*
X168242778Y-93347009D01*
X168242779Y-93347011D01*
X168326443Y-93503533D01*
X168326443Y-93503534D01*
X168377963Y-93673373D01*
X168395359Y-93850000D01*
X168377963Y-94026627D01*
X168343616Y-94139853D01*
X168326443Y-94196467D01*
X168252348Y-94335087D01*
X168242778Y-94352991D01*
X168213448Y-94388729D01*
X168130186Y-94490186D01*
X168028729Y-94573448D01*
X167992991Y-94602778D01*
X167992989Y-94602779D01*
X167836467Y-94686443D01*
X167779853Y-94703616D01*
X167666627Y-94737963D01*
X167600442Y-94744482D01*
X167534260Y-94751000D01*
X167445740Y-94751000D01*
X167379557Y-94744481D01*
X167313373Y-94737963D01*
X167200147Y-94703616D01*
X167143533Y-94686443D01*
X166987011Y-94602779D01*
X166987009Y-94602778D01*
X166951271Y-94573448D01*
X166849814Y-94490186D01*
X166766552Y-94388729D01*
X166737222Y-94352991D01*
X166727652Y-94335087D01*
X166653557Y-94196467D01*
X166636384Y-94139853D01*
X166602037Y-94026627D01*
X166584641Y-93850000D01*
X166602037Y-93673373D01*
X166653557Y-93503534D01*
X166653557Y-93503533D01*
X166737221Y-93347011D01*
X166737222Y-93347009D01*
X166779844Y-93295074D01*
X166849814Y-93209814D01*
X166951271Y-93126552D01*
X166987009Y-93097222D01*
X167004913Y-93087652D01*
X167143533Y-93013557D01*
X167200147Y-92996384D01*
X167313373Y-92962037D01*
X167379558Y-92955518D01*
X167445740Y-92949000D01*
X167534260Y-92949000D01*
X167600442Y-92955518D01*
X167600442Y-92955518D01*
G37*
G36*
X156297142Y-92433242D02*
X156445102Y-92494530D01*
X156578258Y-92583502D01*
X156691498Y-92696742D01*
X156780470Y-92829898D01*
X156841758Y-92977858D01*
X156873000Y-93134925D01*
X156873000Y-93295075D01*
X156841758Y-93452142D01*
X156780470Y-93600102D01*
X156691498Y-93733258D01*
X156578258Y-93846498D01*
X156445102Y-93935470D01*
X156297142Y-93996758D01*
X156140075Y-94028000D01*
X155979925Y-94028000D01*
X155822858Y-93996758D01*
X155674898Y-93935470D01*
X155541742Y-93846498D01*
X155428502Y-93733258D01*
X155339530Y-93600102D01*
X155278242Y-93452142D01*
X155247000Y-93295075D01*
X155247000Y-93134925D01*
X155278242Y-92977858D01*
X155339530Y-92829898D01*
X155428502Y-92696742D01*
X155541742Y-92583502D01*
X155674898Y-92494530D01*
X155822858Y-92433242D01*
X155979925Y-92402000D01*
X156140075Y-92402000D01*
X156297142Y-92433242D01*
X156297142Y-92433242D01*
G37*
G36*
X108037142Y-92433242D02*
X108185102Y-92494530D01*
X108318258Y-92583502D01*
X108431498Y-92696742D01*
X108520470Y-92829898D01*
X108581758Y-92977858D01*
X108613000Y-93134925D01*
X108613000Y-93295075D01*
X108581758Y-93452142D01*
X108520470Y-93600102D01*
X108431498Y-93733258D01*
X108318258Y-93846498D01*
X108185102Y-93935470D01*
X108037142Y-93996758D01*
X107880075Y-94028000D01*
X107719925Y-94028000D01*
X107562858Y-93996758D01*
X107414898Y-93935470D01*
X107281742Y-93846498D01*
X107168502Y-93733258D01*
X107079530Y-93600102D01*
X107018242Y-93452142D01*
X106987000Y-93295075D01*
X106987000Y-93134925D01*
X107018242Y-92977858D01*
X107079530Y-92829898D01*
X107168502Y-92696742D01*
X107281742Y-92583502D01*
X107414898Y-92494530D01*
X107562858Y-92433242D01*
X107719925Y-92402000D01*
X107880075Y-92402000D01*
X108037142Y-92433242D01*
X108037142Y-92433242D01*
G37*
G36*
X167600442Y-90415518D02*
X167666627Y-90422037D01*
X167779853Y-90456384D01*
X167836467Y-90473557D01*
X167975087Y-90547652D01*
X167992991Y-90557222D01*
X168028729Y-90586552D01*
X168130186Y-90669814D01*
X168200156Y-90755074D01*
X168242778Y-90807009D01*
X168242779Y-90807011D01*
X168326443Y-90963533D01*
X168326443Y-90963534D01*
X168377963Y-91133373D01*
X168395359Y-91310000D01*
X168377963Y-91486627D01*
X168343616Y-91599853D01*
X168326443Y-91656467D01*
X168252348Y-91795087D01*
X168242778Y-91812991D01*
X168213448Y-91848729D01*
X168130186Y-91950186D01*
X168028729Y-92033448D01*
X167992991Y-92062778D01*
X167992989Y-92062779D01*
X167836467Y-92146443D01*
X167779853Y-92163616D01*
X167666627Y-92197963D01*
X167600443Y-92204481D01*
X167534260Y-92211000D01*
X167445740Y-92211000D01*
X167379558Y-92204482D01*
X167313373Y-92197963D01*
X167200147Y-92163616D01*
X167143533Y-92146443D01*
X166987011Y-92062779D01*
X166987009Y-92062778D01*
X166951271Y-92033448D01*
X166849814Y-91950186D01*
X166766552Y-91848729D01*
X166737222Y-91812991D01*
X166727652Y-91795087D01*
X166653557Y-91656467D01*
X166636384Y-91599853D01*
X166602037Y-91486627D01*
X166584641Y-91310000D01*
X166602037Y-91133373D01*
X166653557Y-90963534D01*
X166653557Y-90963533D01*
X166737221Y-90807011D01*
X166737222Y-90807009D01*
X166779844Y-90755074D01*
X166849814Y-90669814D01*
X166951271Y-90586552D01*
X166987009Y-90557222D01*
X167004913Y-90547652D01*
X167143533Y-90473557D01*
X167200147Y-90456384D01*
X167313373Y-90422037D01*
X167379557Y-90415519D01*
X167445740Y-90409000D01*
X167534260Y-90409000D01*
X167600442Y-90415518D01*
X167600442Y-90415518D01*
G37*
G36*
X95210442Y-90415518D02*
X95276627Y-90422037D01*
X95389853Y-90456384D01*
X95446467Y-90473557D01*
X95585087Y-90547652D01*
X95602991Y-90557222D01*
X95638729Y-90586552D01*
X95740186Y-90669814D01*
X95810156Y-90755074D01*
X95852778Y-90807009D01*
X95852779Y-90807011D01*
X95936443Y-90963533D01*
X95936443Y-90963534D01*
X95987963Y-91133373D01*
X96005359Y-91310000D01*
X95987963Y-91486627D01*
X95953616Y-91599853D01*
X95936443Y-91656467D01*
X95862348Y-91795087D01*
X95852778Y-91812991D01*
X95823448Y-91848729D01*
X95740186Y-91950186D01*
X95638729Y-92033448D01*
X95602991Y-92062778D01*
X95602989Y-92062779D01*
X95446467Y-92146443D01*
X95389853Y-92163616D01*
X95276627Y-92197963D01*
X95210442Y-92204482D01*
X95144260Y-92211000D01*
X95055740Y-92211000D01*
X94989558Y-92204482D01*
X94923373Y-92197963D01*
X94810147Y-92163616D01*
X94753533Y-92146443D01*
X94597011Y-92062779D01*
X94597009Y-92062778D01*
X94561271Y-92033448D01*
X94459814Y-91950186D01*
X94376552Y-91848729D01*
X94347222Y-91812991D01*
X94337652Y-91795087D01*
X94263557Y-91656467D01*
X94246384Y-91599853D01*
X94212037Y-91486627D01*
X94194641Y-91310000D01*
X94212037Y-91133373D01*
X94263557Y-90963534D01*
X94263557Y-90963533D01*
X94347221Y-90807011D01*
X94347222Y-90807009D01*
X94389844Y-90755074D01*
X94459814Y-90669814D01*
X94561271Y-90586552D01*
X94597009Y-90557222D01*
X94614913Y-90547652D01*
X94753533Y-90473557D01*
X94810147Y-90456384D01*
X94923373Y-90422037D01*
X94989558Y-90415518D01*
X95055740Y-90409000D01*
X95144260Y-90409000D01*
X95210442Y-90415518D01*
X95210442Y-90415518D01*
G37*
G36*
X108037142Y-89893242D02*
X108185102Y-89954530D01*
X108318258Y-90043502D01*
X108431498Y-90156742D01*
X108520470Y-90289898D01*
X108581758Y-90437858D01*
X108613000Y-90594925D01*
X108613000Y-90755075D01*
X108581758Y-90912142D01*
X108520470Y-91060102D01*
X108431498Y-91193258D01*
X108318258Y-91306498D01*
X108185102Y-91395470D01*
X108037142Y-91456758D01*
X107880075Y-91488000D01*
X107719925Y-91488000D01*
X107562858Y-91456758D01*
X107414898Y-91395470D01*
X107281742Y-91306498D01*
X107168502Y-91193258D01*
X107079530Y-91060102D01*
X107018242Y-90912142D01*
X106987000Y-90755075D01*
X106987000Y-90594925D01*
X107018242Y-90437858D01*
X107079530Y-90289898D01*
X107168502Y-90156742D01*
X107281742Y-90043502D01*
X107414898Y-89954530D01*
X107562858Y-89893242D01*
X107719925Y-89862000D01*
X107880075Y-89862000D01*
X108037142Y-89893242D01*
X108037142Y-89893242D01*
G37*
G36*
X156297142Y-89893242D02*
X156445102Y-89954530D01*
X156578258Y-90043502D01*
X156691498Y-90156742D01*
X156780470Y-90289898D01*
X156841758Y-90437858D01*
X156873000Y-90594925D01*
X156873000Y-90755075D01*
X156841758Y-90912142D01*
X156780470Y-91060102D01*
X156691498Y-91193258D01*
X156578258Y-91306498D01*
X156445102Y-91395470D01*
X156297142Y-91456758D01*
X156140075Y-91488000D01*
X155979925Y-91488000D01*
X155822858Y-91456758D01*
X155674898Y-91395470D01*
X155541742Y-91306498D01*
X155428502Y-91193258D01*
X155339530Y-91060102D01*
X155278242Y-90912142D01*
X155247000Y-90755075D01*
X155247000Y-90594925D01*
X155278242Y-90437858D01*
X155339530Y-90289898D01*
X155428502Y-90156742D01*
X155541742Y-90043502D01*
X155674898Y-89954530D01*
X155822858Y-89893242D01*
X155979925Y-89862000D01*
X156140075Y-89862000D01*
X156297142Y-89893242D01*
X156297142Y-89893242D01*
G37*
G36*
X168391000Y-89671000D02*
X166589000Y-89671000D01*
X166589000Y-87869000D01*
X168391000Y-87869000D01*
X168391000Y-89671000D01*
X168391000Y-89671000D01*
G37*
G36*
X96001000Y-89671000D02*
X94199000Y-89671000D01*
X94199000Y-87869000D01*
X96001000Y-87869000D01*
X96001000Y-89671000D01*
X96001000Y-89671000D01*
G37*
G36*
X108037142Y-87353242D02*
X108185102Y-87414530D01*
X108318258Y-87503502D01*
X108431498Y-87616742D01*
X108520470Y-87749898D01*
X108581758Y-87897858D01*
X108613000Y-88054925D01*
X108613000Y-88215075D01*
X108581758Y-88372142D01*
X108520470Y-88520102D01*
X108431498Y-88653258D01*
X108318258Y-88766498D01*
X108185102Y-88855470D01*
X108037142Y-88916758D01*
X107880075Y-88948000D01*
X107719925Y-88948000D01*
X107562858Y-88916758D01*
X107414898Y-88855470D01*
X107281742Y-88766498D01*
X107168502Y-88653258D01*
X107079530Y-88520102D01*
X107018242Y-88372142D01*
X106987000Y-88215075D01*
X106987000Y-88054925D01*
X107018242Y-87897858D01*
X107079530Y-87749898D01*
X107168502Y-87616742D01*
X107281742Y-87503502D01*
X107414898Y-87414530D01*
X107562858Y-87353242D01*
X107719925Y-87322000D01*
X107880075Y-87322000D01*
X108037142Y-87353242D01*
X108037142Y-87353242D01*
G37*
G36*
X156297142Y-87353242D02*
X156445102Y-87414530D01*
X156578258Y-87503502D01*
X156691498Y-87616742D01*
X156780470Y-87749898D01*
X156841758Y-87897858D01*
X156873000Y-88054925D01*
X156873000Y-88215075D01*
X156841758Y-88372142D01*
X156780470Y-88520102D01*
X156691498Y-88653258D01*
X156578258Y-88766498D01*
X156445102Y-88855470D01*
X156297142Y-88916758D01*
X156140075Y-88948000D01*
X155979925Y-88948000D01*
X155822858Y-88916758D01*
X155674898Y-88855470D01*
X155541742Y-88766498D01*
X155428502Y-88653258D01*
X155339530Y-88520102D01*
X155278242Y-88372142D01*
X155247000Y-88215075D01*
X155247000Y-88054925D01*
X155278242Y-87897858D01*
X155339530Y-87749898D01*
X155428502Y-87616742D01*
X155541742Y-87503502D01*
X155674898Y-87414530D01*
X155822858Y-87353242D01*
X155979925Y-87322000D01*
X156140075Y-87322000D01*
X156297142Y-87353242D01*
X156297142Y-87353242D01*
G37*
G36*
X156297142Y-84813242D02*
X156445102Y-84874530D01*
X156578258Y-84963502D01*
X156691498Y-85076742D01*
X156780470Y-85209898D01*
X156841758Y-85357858D01*
X156873000Y-85514925D01*
X156873000Y-85675075D01*
X156841758Y-85832142D01*
X156780470Y-85980102D01*
X156691498Y-86113258D01*
X156578258Y-86226498D01*
X156445102Y-86315470D01*
X156297142Y-86376758D01*
X156140075Y-86408000D01*
X155979925Y-86408000D01*
X155822858Y-86376758D01*
X155674898Y-86315470D01*
X155541742Y-86226498D01*
X155428502Y-86113258D01*
X155339530Y-85980102D01*
X155278242Y-85832142D01*
X155247000Y-85675075D01*
X155247000Y-85514925D01*
X155278242Y-85357858D01*
X155339530Y-85209898D01*
X155428502Y-85076742D01*
X155541742Y-84963502D01*
X155674898Y-84874530D01*
X155822858Y-84813242D01*
X155979925Y-84782000D01*
X156140075Y-84782000D01*
X156297142Y-84813242D01*
X156297142Y-84813242D01*
G37*
G36*
X108037142Y-84813242D02*
X108185102Y-84874530D01*
X108318258Y-84963502D01*
X108431498Y-85076742D01*
X108520470Y-85209898D01*
X108581758Y-85357858D01*
X108613000Y-85514925D01*
X108613000Y-85675075D01*
X108581758Y-85832142D01*
X108520470Y-85980102D01*
X108431498Y-86113258D01*
X108318258Y-86226498D01*
X108185102Y-86315470D01*
X108037142Y-86376758D01*
X107880075Y-86408000D01*
X107719925Y-86408000D01*
X107562858Y-86376758D01*
X107414898Y-86315470D01*
X107281742Y-86226498D01*
X107168502Y-86113258D01*
X107079530Y-85980102D01*
X107018242Y-85832142D01*
X106987000Y-85675075D01*
X106987000Y-85514925D01*
X107018242Y-85357858D01*
X107079530Y-85209898D01*
X107168502Y-85076742D01*
X107281742Y-84963502D01*
X107414898Y-84874530D01*
X107562858Y-84813242D01*
X107719925Y-84782000D01*
X107880075Y-84782000D01*
X108037142Y-84813242D01*
X108037142Y-84813242D01*
G37*
G36*
X156297142Y-82273242D02*
X156445102Y-82334530D01*
X156578258Y-82423502D01*
X156691498Y-82536742D01*
X156780470Y-82669898D01*
X156841758Y-82817858D01*
X156873000Y-82974925D01*
X156873000Y-83135075D01*
X156841758Y-83292142D01*
X156780470Y-83440102D01*
X156691498Y-83573258D01*
X156578258Y-83686498D01*
X156445102Y-83775470D01*
X156297142Y-83836758D01*
X156140075Y-83868000D01*
X155979925Y-83868000D01*
X155822858Y-83836758D01*
X155674898Y-83775470D01*
X155541742Y-83686498D01*
X155428502Y-83573258D01*
X155339530Y-83440102D01*
X155278242Y-83292142D01*
X155247000Y-83135075D01*
X155247000Y-82974925D01*
X155278242Y-82817858D01*
X155339530Y-82669898D01*
X155428502Y-82536742D01*
X155541742Y-82423502D01*
X155674898Y-82334530D01*
X155822858Y-82273242D01*
X155979925Y-82242000D01*
X156140075Y-82242000D01*
X156297142Y-82273242D01*
X156297142Y-82273242D01*
G37*
G36*
X108037142Y-82273242D02*
X108185102Y-82334530D01*
X108318258Y-82423502D01*
X108431498Y-82536742D01*
X108520470Y-82669898D01*
X108581758Y-82817858D01*
X108613000Y-82974925D01*
X108613000Y-83135075D01*
X108581758Y-83292142D01*
X108520470Y-83440102D01*
X108431498Y-83573258D01*
X108318258Y-83686498D01*
X108185102Y-83775470D01*
X108037142Y-83836758D01*
X107880075Y-83868000D01*
X107719925Y-83868000D01*
X107562858Y-83836758D01*
X107414898Y-83775470D01*
X107281742Y-83686498D01*
X107168502Y-83573258D01*
X107079530Y-83440102D01*
X107018242Y-83292142D01*
X106987000Y-83135075D01*
X106987000Y-82974925D01*
X107018242Y-82817858D01*
X107079530Y-82669898D01*
X107168502Y-82536742D01*
X107281742Y-82423502D01*
X107414898Y-82334530D01*
X107562858Y-82273242D01*
X107719925Y-82242000D01*
X107880075Y-82242000D01*
X108037142Y-82273242D01*
X108037142Y-82273242D01*
G37*
G36*
X167600443Y-81525519D02*
X167666627Y-81532037D01*
X167779853Y-81566384D01*
X167836467Y-81583557D01*
X167975087Y-81657652D01*
X167992991Y-81667222D01*
X168028729Y-81696552D01*
X168130186Y-81779814D01*
X168213448Y-81881271D01*
X168242778Y-81917009D01*
X168242779Y-81917011D01*
X168326443Y-82073533D01*
X168326443Y-82073534D01*
X168377963Y-82243373D01*
X168395359Y-82420000D01*
X168377963Y-82596627D01*
X168355736Y-82669900D01*
X168326443Y-82766467D01*
X168252348Y-82905087D01*
X168242778Y-82922991D01*
X168213448Y-82958729D01*
X168130186Y-83060186D01*
X168038933Y-83135074D01*
X167992991Y-83172778D01*
X167992989Y-83172779D01*
X167836467Y-83256443D01*
X167779853Y-83273616D01*
X167666627Y-83307963D01*
X167600442Y-83314482D01*
X167534260Y-83321000D01*
X167445740Y-83321000D01*
X167379558Y-83314482D01*
X167313373Y-83307963D01*
X167200147Y-83273616D01*
X167143533Y-83256443D01*
X166987011Y-83172779D01*
X166987009Y-83172778D01*
X166941067Y-83135074D01*
X166849814Y-83060186D01*
X166766552Y-82958729D01*
X166737222Y-82922991D01*
X166727652Y-82905087D01*
X166653557Y-82766467D01*
X166624264Y-82669900D01*
X166602037Y-82596627D01*
X166584641Y-82420000D01*
X166602037Y-82243373D01*
X166653557Y-82073534D01*
X166653557Y-82073533D01*
X166737221Y-81917011D01*
X166737222Y-81917009D01*
X166766552Y-81881271D01*
X166849814Y-81779814D01*
X166951271Y-81696552D01*
X166987009Y-81667222D01*
X167004913Y-81657652D01*
X167143533Y-81583557D01*
X167200147Y-81566384D01*
X167313373Y-81532037D01*
X167379557Y-81525519D01*
X167445740Y-81519000D01*
X167534260Y-81519000D01*
X167600443Y-81525519D01*
X167600443Y-81525519D01*
G37*
G36*
X95210443Y-81525519D02*
X95276627Y-81532037D01*
X95389853Y-81566384D01*
X95446467Y-81583557D01*
X95585087Y-81657652D01*
X95602991Y-81667222D01*
X95638729Y-81696552D01*
X95740186Y-81779814D01*
X95823448Y-81881271D01*
X95852778Y-81917009D01*
X95852779Y-81917011D01*
X95936443Y-82073533D01*
X95936443Y-82073534D01*
X95987963Y-82243373D01*
X96005359Y-82420000D01*
X95987963Y-82596627D01*
X95965736Y-82669900D01*
X95936443Y-82766467D01*
X95862348Y-82905087D01*
X95852778Y-82922991D01*
X95823448Y-82958729D01*
X95740186Y-83060186D01*
X95648933Y-83135074D01*
X95602991Y-83172778D01*
X95602989Y-83172779D01*
X95446467Y-83256443D01*
X95389853Y-83273616D01*
X95276627Y-83307963D01*
X95210442Y-83314482D01*
X95144260Y-83321000D01*
X95055740Y-83321000D01*
X94989558Y-83314482D01*
X94923373Y-83307963D01*
X94810147Y-83273616D01*
X94753533Y-83256443D01*
X94597011Y-83172779D01*
X94597009Y-83172778D01*
X94551067Y-83135074D01*
X94459814Y-83060186D01*
X94376552Y-82958729D01*
X94347222Y-82922991D01*
X94337652Y-82905087D01*
X94263557Y-82766467D01*
X94234264Y-82669900D01*
X94212037Y-82596627D01*
X94194641Y-82420000D01*
X94212037Y-82243373D01*
X94263557Y-82073534D01*
X94263557Y-82073533D01*
X94347221Y-81917011D01*
X94347222Y-81917009D01*
X94376552Y-81881271D01*
X94459814Y-81779814D01*
X94561271Y-81696552D01*
X94597009Y-81667222D01*
X94614913Y-81657652D01*
X94753533Y-81583557D01*
X94810147Y-81566384D01*
X94923373Y-81532037D01*
X94989557Y-81525519D01*
X95055740Y-81519000D01*
X95144260Y-81519000D01*
X95210443Y-81525519D01*
X95210443Y-81525519D01*
G37*
G36*
X167600442Y-78985518D02*
X167666627Y-78992037D01*
X167779853Y-79026384D01*
X167836467Y-79043557D01*
X167975087Y-79117652D01*
X167992991Y-79127222D01*
X168028729Y-79156552D01*
X168130186Y-79239814D01*
X168213448Y-79341271D01*
X168242778Y-79377009D01*
X168242779Y-79377011D01*
X168326443Y-79533533D01*
X168326443Y-79533534D01*
X168377963Y-79703373D01*
X168395359Y-79880000D01*
X168377963Y-80056627D01*
X168343616Y-80169853D01*
X168326443Y-80226467D01*
X168252348Y-80365087D01*
X168242778Y-80382991D01*
X168213448Y-80418729D01*
X168130186Y-80520186D01*
X168028729Y-80603448D01*
X167992991Y-80632778D01*
X167992989Y-80632779D01*
X167836467Y-80716443D01*
X167779853Y-80733616D01*
X167666627Y-80767963D01*
X167600443Y-80774481D01*
X167534260Y-80781000D01*
X167445740Y-80781000D01*
X167379557Y-80774481D01*
X167313373Y-80767963D01*
X167200147Y-80733616D01*
X167143533Y-80716443D01*
X166987011Y-80632779D01*
X166987009Y-80632778D01*
X166951271Y-80603448D01*
X166849814Y-80520186D01*
X166766552Y-80418729D01*
X166737222Y-80382991D01*
X166727652Y-80365087D01*
X166653557Y-80226467D01*
X166636384Y-80169853D01*
X166602037Y-80056627D01*
X166584641Y-79880000D01*
X166602037Y-79703373D01*
X166653557Y-79533534D01*
X166653557Y-79533533D01*
X166737221Y-79377011D01*
X166737222Y-79377009D01*
X166766552Y-79341271D01*
X166849814Y-79239814D01*
X166951271Y-79156552D01*
X166987009Y-79127222D01*
X167004913Y-79117652D01*
X167143533Y-79043557D01*
X167200147Y-79026384D01*
X167313373Y-78992037D01*
X167379558Y-78985518D01*
X167445740Y-78979000D01*
X167534260Y-78979000D01*
X167600442Y-78985518D01*
X167600442Y-78985518D01*
G37*
G36*
X95210442Y-78985518D02*
X95276627Y-78992037D01*
X95389853Y-79026384D01*
X95446467Y-79043557D01*
X95585087Y-79117652D01*
X95602991Y-79127222D01*
X95638729Y-79156552D01*
X95740186Y-79239814D01*
X95823448Y-79341271D01*
X95852778Y-79377009D01*
X95852779Y-79377011D01*
X95936443Y-79533533D01*
X95936443Y-79533534D01*
X95987963Y-79703373D01*
X96005359Y-79880000D01*
X95987963Y-80056627D01*
X95953616Y-80169853D01*
X95936443Y-80226467D01*
X95862348Y-80365087D01*
X95852778Y-80382991D01*
X95823448Y-80418729D01*
X95740186Y-80520186D01*
X95638729Y-80603448D01*
X95602991Y-80632778D01*
X95602989Y-80632779D01*
X95446467Y-80716443D01*
X95389853Y-80733616D01*
X95276627Y-80767963D01*
X95210443Y-80774481D01*
X95144260Y-80781000D01*
X95055740Y-80781000D01*
X94989557Y-80774481D01*
X94923373Y-80767963D01*
X94810147Y-80733616D01*
X94753533Y-80716443D01*
X94597011Y-80632779D01*
X94597009Y-80632778D01*
X94561271Y-80603448D01*
X94459814Y-80520186D01*
X94376552Y-80418729D01*
X94347222Y-80382991D01*
X94337652Y-80365087D01*
X94263557Y-80226467D01*
X94246384Y-80169853D01*
X94212037Y-80056627D01*
X94194641Y-79880000D01*
X94212037Y-79703373D01*
X94263557Y-79533534D01*
X94263557Y-79533533D01*
X94347221Y-79377011D01*
X94347222Y-79377009D01*
X94376552Y-79341271D01*
X94459814Y-79239814D01*
X94561271Y-79156552D01*
X94597009Y-79127222D01*
X94614913Y-79117652D01*
X94753533Y-79043557D01*
X94810147Y-79026384D01*
X94923373Y-78992037D01*
X94989558Y-78985518D01*
X95055740Y-78979000D01*
X95144260Y-78979000D01*
X95210442Y-78985518D01*
X95210442Y-78985518D01*
G37*
G36*
X96001000Y-78241000D02*
X94199000Y-78241000D01*
X94199000Y-76439000D01*
X96001000Y-76439000D01*
X96001000Y-78241000D01*
X96001000Y-78241000D01*
G37*
G36*
X168391000Y-78241000D02*
X166589000Y-78241000D01*
X166589000Y-76439000D01*
X168391000Y-76439000D01*
X168391000Y-78241000D01*
X168391000Y-78241000D01*
G37*
G36*
X107910442Y-68825518D02*
X107976627Y-68832037D01*
X108089853Y-68866384D01*
X108146467Y-68883557D01*
X108285087Y-68957652D01*
X108302991Y-68967222D01*
X108338729Y-68996552D01*
X108440186Y-69079814D01*
X108523448Y-69181271D01*
X108552778Y-69217009D01*
X108552779Y-69217011D01*
X108636443Y-69373533D01*
X108636443Y-69373534D01*
X108687963Y-69543373D01*
X108705359Y-69720000D01*
X108687963Y-69896627D01*
X108653616Y-70009853D01*
X108636443Y-70066467D01*
X108562348Y-70205087D01*
X108552778Y-70222991D01*
X108523448Y-70258729D01*
X108440186Y-70360186D01*
X108338729Y-70443448D01*
X108302991Y-70472778D01*
X108302989Y-70472779D01*
X108146467Y-70556443D01*
X108089853Y-70573616D01*
X107976627Y-70607963D01*
X107910442Y-70614482D01*
X107844260Y-70621000D01*
X107755740Y-70621000D01*
X107689558Y-70614482D01*
X107623373Y-70607963D01*
X107510147Y-70573616D01*
X107453533Y-70556443D01*
X107297011Y-70472779D01*
X107297009Y-70472778D01*
X107261271Y-70443448D01*
X107159814Y-70360186D01*
X107076552Y-70258729D01*
X107047222Y-70222991D01*
X107037652Y-70205087D01*
X106963557Y-70066467D01*
X106946384Y-70009853D01*
X106912037Y-69896627D01*
X106894641Y-69720000D01*
X106912037Y-69543373D01*
X106963557Y-69373534D01*
X106963557Y-69373533D01*
X107047221Y-69217011D01*
X107047222Y-69217009D01*
X107076552Y-69181271D01*
X107159814Y-69079814D01*
X107261271Y-68996552D01*
X107297009Y-68967222D01*
X107314913Y-68957652D01*
X107453533Y-68883557D01*
X107510147Y-68866384D01*
X107623373Y-68832037D01*
X107689558Y-68825518D01*
X107755740Y-68819000D01*
X107844260Y-68819000D01*
X107910442Y-68825518D01*
X107910442Y-68825518D01*
G37*
G36*
X160771000Y-70621000D02*
X158969000Y-70621000D01*
X158969000Y-68819000D01*
X160771000Y-68819000D01*
X160771000Y-70621000D01*
X160771000Y-70621000D01*
G37*
G36*
X154900442Y-68825518D02*
X154966627Y-68832037D01*
X155079853Y-68866384D01*
X155136467Y-68883557D01*
X155275087Y-68957652D01*
X155292991Y-68967222D01*
X155328729Y-68996552D01*
X155430186Y-69079814D01*
X155513448Y-69181271D01*
X155542778Y-69217009D01*
X155542779Y-69217011D01*
X155626443Y-69373533D01*
X155626443Y-69373534D01*
X155677963Y-69543373D01*
X155695359Y-69720000D01*
X155677963Y-69896627D01*
X155643616Y-70009853D01*
X155626443Y-70066467D01*
X155552348Y-70205087D01*
X155542778Y-70222991D01*
X155513448Y-70258729D01*
X155430186Y-70360186D01*
X155328729Y-70443448D01*
X155292991Y-70472778D01*
X155292989Y-70472779D01*
X155136467Y-70556443D01*
X155079853Y-70573616D01*
X154966627Y-70607963D01*
X154900442Y-70614482D01*
X154834260Y-70621000D01*
X154745740Y-70621000D01*
X154679558Y-70614482D01*
X154613373Y-70607963D01*
X154500147Y-70573616D01*
X154443533Y-70556443D01*
X154287011Y-70472779D01*
X154287009Y-70472778D01*
X154251271Y-70443448D01*
X154149814Y-70360186D01*
X154066552Y-70258729D01*
X154037222Y-70222991D01*
X154027652Y-70205087D01*
X153953557Y-70066467D01*
X153936384Y-70009853D01*
X153902037Y-69896627D01*
X153884641Y-69720000D01*
X153902037Y-69543373D01*
X153953557Y-69373534D01*
X153953557Y-69373533D01*
X154037221Y-69217011D01*
X154037222Y-69217009D01*
X154066552Y-69181271D01*
X154149814Y-69079814D01*
X154251271Y-68996552D01*
X154287009Y-68967222D01*
X154304913Y-68957652D01*
X154443533Y-68883557D01*
X154500147Y-68866384D01*
X154613373Y-68832037D01*
X154679558Y-68825518D01*
X154745740Y-68819000D01*
X154834260Y-68819000D01*
X154900442Y-68825518D01*
X154900442Y-68825518D01*
G37*
G36*
X149341000Y-70621000D02*
X147539000Y-70621000D01*
X147539000Y-68819000D01*
X149341000Y-68819000D01*
X149341000Y-70621000D01*
X149341000Y-70621000D01*
G37*
G36*
X146010442Y-68825518D02*
X146076627Y-68832037D01*
X146189853Y-68866384D01*
X146246467Y-68883557D01*
X146385087Y-68957652D01*
X146402991Y-68967222D01*
X146438729Y-68996552D01*
X146540186Y-69079814D01*
X146623448Y-69181271D01*
X146652778Y-69217009D01*
X146652779Y-69217011D01*
X146736443Y-69373533D01*
X146736443Y-69373534D01*
X146787963Y-69543373D01*
X146805359Y-69720000D01*
X146787963Y-69896627D01*
X146753616Y-70009853D01*
X146736443Y-70066467D01*
X146662348Y-70205087D01*
X146652778Y-70222991D01*
X146623448Y-70258729D01*
X146540186Y-70360186D01*
X146438729Y-70443448D01*
X146402991Y-70472778D01*
X146402989Y-70472779D01*
X146246467Y-70556443D01*
X146189853Y-70573616D01*
X146076627Y-70607963D01*
X146010442Y-70614482D01*
X145944260Y-70621000D01*
X145855740Y-70621000D01*
X145789558Y-70614482D01*
X145723373Y-70607963D01*
X145610147Y-70573616D01*
X145553533Y-70556443D01*
X145397011Y-70472779D01*
X145397009Y-70472778D01*
X145361271Y-70443448D01*
X145259814Y-70360186D01*
X145176552Y-70258729D01*
X145147222Y-70222991D01*
X145137652Y-70205087D01*
X145063557Y-70066467D01*
X145046384Y-70009853D01*
X145012037Y-69896627D01*
X144994641Y-69720000D01*
X145012037Y-69543373D01*
X145063557Y-69373534D01*
X145063557Y-69373533D01*
X145147221Y-69217011D01*
X145147222Y-69217009D01*
X145176552Y-69181271D01*
X145259814Y-69079814D01*
X145361271Y-68996552D01*
X145397009Y-68967222D01*
X145414913Y-68957652D01*
X145553533Y-68883557D01*
X145610147Y-68866384D01*
X145723373Y-68832037D01*
X145789558Y-68825518D01*
X145855740Y-68819000D01*
X145944260Y-68819000D01*
X146010442Y-68825518D01*
X146010442Y-68825518D01*
G37*
G36*
X143470442Y-68825518D02*
X143536627Y-68832037D01*
X143649853Y-68866384D01*
X143706467Y-68883557D01*
X143845087Y-68957652D01*
X143862991Y-68967222D01*
X143898729Y-68996552D01*
X144000186Y-69079814D01*
X144083448Y-69181271D01*
X144112778Y-69217009D01*
X144112779Y-69217011D01*
X144196443Y-69373533D01*
X144196443Y-69373534D01*
X144247963Y-69543373D01*
X144265359Y-69720000D01*
X144247963Y-69896627D01*
X144213616Y-70009853D01*
X144196443Y-70066467D01*
X144122348Y-70205087D01*
X144112778Y-70222991D01*
X144083448Y-70258729D01*
X144000186Y-70360186D01*
X143898729Y-70443448D01*
X143862991Y-70472778D01*
X143862989Y-70472779D01*
X143706467Y-70556443D01*
X143649853Y-70573616D01*
X143536627Y-70607963D01*
X143470442Y-70614482D01*
X143404260Y-70621000D01*
X143315740Y-70621000D01*
X143249558Y-70614482D01*
X143183373Y-70607963D01*
X143070147Y-70573616D01*
X143013533Y-70556443D01*
X142857011Y-70472779D01*
X142857009Y-70472778D01*
X142821271Y-70443448D01*
X142719814Y-70360186D01*
X142636552Y-70258729D01*
X142607222Y-70222991D01*
X142597652Y-70205087D01*
X142523557Y-70066467D01*
X142506384Y-70009853D01*
X142472037Y-69896627D01*
X142454641Y-69720000D01*
X142472037Y-69543373D01*
X142523557Y-69373534D01*
X142523557Y-69373533D01*
X142607221Y-69217011D01*
X142607222Y-69217009D01*
X142636552Y-69181271D01*
X142719814Y-69079814D01*
X142821271Y-68996552D01*
X142857009Y-68967222D01*
X142874913Y-68957652D01*
X143013533Y-68883557D01*
X143070147Y-68866384D01*
X143183373Y-68832037D01*
X143249558Y-68825518D01*
X143315740Y-68819000D01*
X143404260Y-68819000D01*
X143470442Y-68825518D01*
X143470442Y-68825518D01*
G37*
G36*
X132831000Y-70621000D02*
X131029000Y-70621000D01*
X131029000Y-68819000D01*
X132831000Y-68819000D01*
X132831000Y-70621000D01*
X132831000Y-70621000D01*
G37*
G36*
X110450442Y-68825518D02*
X110516627Y-68832037D01*
X110629853Y-68866384D01*
X110686467Y-68883557D01*
X110825087Y-68957652D01*
X110842991Y-68967222D01*
X110878729Y-68996552D01*
X110980186Y-69079814D01*
X111063448Y-69181271D01*
X111092778Y-69217009D01*
X111092779Y-69217011D01*
X111176443Y-69373533D01*
X111176443Y-69373534D01*
X111227963Y-69543373D01*
X111245359Y-69720000D01*
X111227963Y-69896627D01*
X111193616Y-70009853D01*
X111176443Y-70066467D01*
X111102348Y-70205087D01*
X111092778Y-70222991D01*
X111063448Y-70258729D01*
X110980186Y-70360186D01*
X110878729Y-70443448D01*
X110842991Y-70472778D01*
X110842989Y-70472779D01*
X110686467Y-70556443D01*
X110629853Y-70573616D01*
X110516627Y-70607963D01*
X110450442Y-70614482D01*
X110384260Y-70621000D01*
X110295740Y-70621000D01*
X110229558Y-70614482D01*
X110163373Y-70607963D01*
X110050147Y-70573616D01*
X109993533Y-70556443D01*
X109837011Y-70472779D01*
X109837009Y-70472778D01*
X109801271Y-70443448D01*
X109699814Y-70360186D01*
X109616552Y-70258729D01*
X109587222Y-70222991D01*
X109577652Y-70205087D01*
X109503557Y-70066467D01*
X109486384Y-70009853D01*
X109452037Y-69896627D01*
X109434641Y-69720000D01*
X109452037Y-69543373D01*
X109503557Y-69373534D01*
X109503557Y-69373533D01*
X109587221Y-69217011D01*
X109587222Y-69217009D01*
X109616552Y-69181271D01*
X109699814Y-69079814D01*
X109801271Y-68996552D01*
X109837009Y-68967222D01*
X109854913Y-68957652D01*
X109993533Y-68883557D01*
X110050147Y-68866384D01*
X110163373Y-68832037D01*
X110229558Y-68825518D01*
X110295740Y-68819000D01*
X110384260Y-68819000D01*
X110450442Y-68825518D01*
X110450442Y-68825518D01*
G37*
G36*
X157440442Y-68825518D02*
X157506627Y-68832037D01*
X157619853Y-68866384D01*
X157676467Y-68883557D01*
X157815087Y-68957652D01*
X157832991Y-68967222D01*
X157868729Y-68996552D01*
X157970186Y-69079814D01*
X158053448Y-69181271D01*
X158082778Y-69217009D01*
X158082779Y-69217011D01*
X158166443Y-69373533D01*
X158166443Y-69373534D01*
X158217963Y-69543373D01*
X158235359Y-69720000D01*
X158217963Y-69896627D01*
X158183616Y-70009853D01*
X158166443Y-70066467D01*
X158092348Y-70205087D01*
X158082778Y-70222991D01*
X158053448Y-70258729D01*
X157970186Y-70360186D01*
X157868729Y-70443448D01*
X157832991Y-70472778D01*
X157832989Y-70472779D01*
X157676467Y-70556443D01*
X157619853Y-70573616D01*
X157506627Y-70607963D01*
X157440442Y-70614482D01*
X157374260Y-70621000D01*
X157285740Y-70621000D01*
X157219558Y-70614482D01*
X157153373Y-70607963D01*
X157040147Y-70573616D01*
X156983533Y-70556443D01*
X156827011Y-70472779D01*
X156827009Y-70472778D01*
X156791271Y-70443448D01*
X156689814Y-70360186D01*
X156606552Y-70258729D01*
X156577222Y-70222991D01*
X156567652Y-70205087D01*
X156493557Y-70066467D01*
X156476384Y-70009853D01*
X156442037Y-69896627D01*
X156424641Y-69720000D01*
X156442037Y-69543373D01*
X156493557Y-69373534D01*
X156493557Y-69373533D01*
X156577221Y-69217011D01*
X156577222Y-69217009D01*
X156606552Y-69181271D01*
X156689814Y-69079814D01*
X156791271Y-68996552D01*
X156827009Y-68967222D01*
X156844913Y-68957652D01*
X156983533Y-68883557D01*
X157040147Y-68866384D01*
X157153373Y-68832037D01*
X157219558Y-68825518D01*
X157285740Y-68819000D01*
X157374260Y-68819000D01*
X157440442Y-68825518D01*
X157440442Y-68825518D01*
G37*
G36*
X106161000Y-70621000D02*
X104359000Y-70621000D01*
X104359000Y-68819000D01*
X106161000Y-68819000D01*
X106161000Y-70621000D01*
X106161000Y-70621000D01*
G37*
G36*
X125211000Y-70621000D02*
X123409000Y-70621000D01*
X123409000Y-68819000D01*
X125211000Y-68819000D01*
X125211000Y-70621000D01*
X125211000Y-70621000D01*
G37*
G36*
X121880442Y-68825518D02*
X121946627Y-68832037D01*
X122059853Y-68866384D01*
X122116467Y-68883557D01*
X122255087Y-68957652D01*
X122272991Y-68967222D01*
X122308729Y-68996552D01*
X122410186Y-69079814D01*
X122493448Y-69181271D01*
X122522778Y-69217009D01*
X122522779Y-69217011D01*
X122606443Y-69373533D01*
X122606443Y-69373534D01*
X122657963Y-69543373D01*
X122675359Y-69720000D01*
X122657963Y-69896627D01*
X122623616Y-70009853D01*
X122606443Y-70066467D01*
X122532348Y-70205087D01*
X122522778Y-70222991D01*
X122493448Y-70258729D01*
X122410186Y-70360186D01*
X122308729Y-70443448D01*
X122272991Y-70472778D01*
X122272989Y-70472779D01*
X122116467Y-70556443D01*
X122059853Y-70573616D01*
X121946627Y-70607963D01*
X121880442Y-70614482D01*
X121814260Y-70621000D01*
X121725740Y-70621000D01*
X121659558Y-70614482D01*
X121593373Y-70607963D01*
X121480147Y-70573616D01*
X121423533Y-70556443D01*
X121267011Y-70472779D01*
X121267009Y-70472778D01*
X121231271Y-70443448D01*
X121129814Y-70360186D01*
X121046552Y-70258729D01*
X121017222Y-70222991D01*
X121007652Y-70205087D01*
X120933557Y-70066467D01*
X120916384Y-70009853D01*
X120882037Y-69896627D01*
X120864641Y-69720000D01*
X120882037Y-69543373D01*
X120933557Y-69373534D01*
X120933557Y-69373533D01*
X121017221Y-69217011D01*
X121017222Y-69217009D01*
X121046552Y-69181271D01*
X121129814Y-69079814D01*
X121231271Y-68996552D01*
X121267009Y-68967222D01*
X121284913Y-68957652D01*
X121423533Y-68883557D01*
X121480147Y-68866384D01*
X121593373Y-68832037D01*
X121659558Y-68825518D01*
X121725740Y-68819000D01*
X121814260Y-68819000D01*
X121880442Y-68825518D01*
X121880442Y-68825518D01*
G37*
G36*
X134580442Y-68825518D02*
X134646627Y-68832037D01*
X134759853Y-68866384D01*
X134816467Y-68883557D01*
X134955087Y-68957652D01*
X134972991Y-68967222D01*
X135008729Y-68996552D01*
X135110186Y-69079814D01*
X135193448Y-69181271D01*
X135222778Y-69217009D01*
X135222779Y-69217011D01*
X135306443Y-69373533D01*
X135306443Y-69373534D01*
X135357963Y-69543373D01*
X135375359Y-69720000D01*
X135357963Y-69896627D01*
X135323616Y-70009853D01*
X135306443Y-70066467D01*
X135232348Y-70205087D01*
X135222778Y-70222991D01*
X135193448Y-70258729D01*
X135110186Y-70360186D01*
X135008729Y-70443448D01*
X134972991Y-70472778D01*
X134972989Y-70472779D01*
X134816467Y-70556443D01*
X134759853Y-70573616D01*
X134646627Y-70607963D01*
X134580442Y-70614482D01*
X134514260Y-70621000D01*
X134425740Y-70621000D01*
X134359558Y-70614482D01*
X134293373Y-70607963D01*
X134180147Y-70573616D01*
X134123533Y-70556443D01*
X133967011Y-70472779D01*
X133967009Y-70472778D01*
X133931271Y-70443448D01*
X133829814Y-70360186D01*
X133746552Y-70258729D01*
X133717222Y-70222991D01*
X133707652Y-70205087D01*
X133633557Y-70066467D01*
X133616384Y-70009853D01*
X133582037Y-69896627D01*
X133564641Y-69720000D01*
X133582037Y-69543373D01*
X133633557Y-69373534D01*
X133633557Y-69373533D01*
X133717221Y-69217011D01*
X133717222Y-69217009D01*
X133746552Y-69181271D01*
X133829814Y-69079814D01*
X133931271Y-68996552D01*
X133967009Y-68967222D01*
X133984913Y-68957652D01*
X134123533Y-68883557D01*
X134180147Y-68866384D01*
X134293373Y-68832037D01*
X134359558Y-68825518D01*
X134425740Y-68819000D01*
X134514260Y-68819000D01*
X134580442Y-68825518D01*
X134580442Y-68825518D01*
G37*
G36*
X137120442Y-68825518D02*
X137186627Y-68832037D01*
X137299853Y-68866384D01*
X137356467Y-68883557D01*
X137495087Y-68957652D01*
X137512991Y-68967222D01*
X137548729Y-68996552D01*
X137650186Y-69079814D01*
X137733448Y-69181271D01*
X137762778Y-69217009D01*
X137762779Y-69217011D01*
X137846443Y-69373533D01*
X137846443Y-69373534D01*
X137897963Y-69543373D01*
X137915359Y-69720000D01*
X137897963Y-69896627D01*
X137863616Y-70009853D01*
X137846443Y-70066467D01*
X137772348Y-70205087D01*
X137762778Y-70222991D01*
X137733448Y-70258729D01*
X137650186Y-70360186D01*
X137548729Y-70443448D01*
X137512991Y-70472778D01*
X137512989Y-70472779D01*
X137356467Y-70556443D01*
X137299853Y-70573616D01*
X137186627Y-70607963D01*
X137120442Y-70614482D01*
X137054260Y-70621000D01*
X136965740Y-70621000D01*
X136899558Y-70614482D01*
X136833373Y-70607963D01*
X136720147Y-70573616D01*
X136663533Y-70556443D01*
X136507011Y-70472779D01*
X136507009Y-70472778D01*
X136471271Y-70443448D01*
X136369814Y-70360186D01*
X136286552Y-70258729D01*
X136257222Y-70222991D01*
X136247652Y-70205087D01*
X136173557Y-70066467D01*
X136156384Y-70009853D01*
X136122037Y-69896627D01*
X136104641Y-69720000D01*
X136122037Y-69543373D01*
X136173557Y-69373534D01*
X136173557Y-69373533D01*
X136257221Y-69217011D01*
X136257222Y-69217009D01*
X136286552Y-69181271D01*
X136369814Y-69079814D01*
X136471271Y-68996552D01*
X136507009Y-68967222D01*
X136524913Y-68957652D01*
X136663533Y-68883557D01*
X136720147Y-68866384D01*
X136833373Y-68832037D01*
X136899558Y-68825518D01*
X136965740Y-68819000D01*
X137054260Y-68819000D01*
X137120442Y-68825518D01*
X137120442Y-68825518D01*
G37*
G36*
X116800442Y-68825518D02*
X116866627Y-68832037D01*
X116979853Y-68866384D01*
X117036467Y-68883557D01*
X117175087Y-68957652D01*
X117192991Y-68967222D01*
X117228729Y-68996552D01*
X117330186Y-69079814D01*
X117413448Y-69181271D01*
X117442778Y-69217009D01*
X117442779Y-69217011D01*
X117526443Y-69373533D01*
X117526443Y-69373534D01*
X117577963Y-69543373D01*
X117595359Y-69720000D01*
X117577963Y-69896627D01*
X117543616Y-70009853D01*
X117526443Y-70066467D01*
X117452348Y-70205087D01*
X117442778Y-70222991D01*
X117413448Y-70258729D01*
X117330186Y-70360186D01*
X117228729Y-70443448D01*
X117192991Y-70472778D01*
X117192989Y-70472779D01*
X117036467Y-70556443D01*
X116979853Y-70573616D01*
X116866627Y-70607963D01*
X116800442Y-70614482D01*
X116734260Y-70621000D01*
X116645740Y-70621000D01*
X116579558Y-70614482D01*
X116513373Y-70607963D01*
X116400147Y-70573616D01*
X116343533Y-70556443D01*
X116187011Y-70472779D01*
X116187009Y-70472778D01*
X116151271Y-70443448D01*
X116049814Y-70360186D01*
X115966552Y-70258729D01*
X115937222Y-70222991D01*
X115927652Y-70205087D01*
X115853557Y-70066467D01*
X115836384Y-70009853D01*
X115802037Y-69896627D01*
X115784641Y-69720000D01*
X115802037Y-69543373D01*
X115853557Y-69373534D01*
X115853557Y-69373533D01*
X115937221Y-69217011D01*
X115937222Y-69217009D01*
X115966552Y-69181271D01*
X116049814Y-69079814D01*
X116151271Y-68996552D01*
X116187009Y-68967222D01*
X116204913Y-68957652D01*
X116343533Y-68883557D01*
X116400147Y-68866384D01*
X116513373Y-68832037D01*
X116579558Y-68825518D01*
X116645740Y-68819000D01*
X116734260Y-68819000D01*
X116800442Y-68825518D01*
X116800442Y-68825518D01*
G37*
G36*
X119340442Y-68825518D02*
X119406627Y-68832037D01*
X119519853Y-68866384D01*
X119576467Y-68883557D01*
X119715087Y-68957652D01*
X119732991Y-68967222D01*
X119768729Y-68996552D01*
X119870186Y-69079814D01*
X119953448Y-69181271D01*
X119982778Y-69217009D01*
X119982779Y-69217011D01*
X120066443Y-69373533D01*
X120066443Y-69373534D01*
X120117963Y-69543373D01*
X120135359Y-69720000D01*
X120117963Y-69896627D01*
X120083616Y-70009853D01*
X120066443Y-70066467D01*
X119992348Y-70205087D01*
X119982778Y-70222991D01*
X119953448Y-70258729D01*
X119870186Y-70360186D01*
X119768729Y-70443448D01*
X119732991Y-70472778D01*
X119732989Y-70472779D01*
X119576467Y-70556443D01*
X119519853Y-70573616D01*
X119406627Y-70607963D01*
X119340442Y-70614482D01*
X119274260Y-70621000D01*
X119185740Y-70621000D01*
X119119558Y-70614482D01*
X119053373Y-70607963D01*
X118940147Y-70573616D01*
X118883533Y-70556443D01*
X118727011Y-70472779D01*
X118727009Y-70472778D01*
X118691271Y-70443448D01*
X118589814Y-70360186D01*
X118506552Y-70258729D01*
X118477222Y-70222991D01*
X118467652Y-70205087D01*
X118393557Y-70066467D01*
X118376384Y-70009853D01*
X118342037Y-69896627D01*
X118324641Y-69720000D01*
X118342037Y-69543373D01*
X118393557Y-69373534D01*
X118393557Y-69373533D01*
X118477221Y-69217011D01*
X118477222Y-69217009D01*
X118506552Y-69181271D01*
X118589814Y-69079814D01*
X118691271Y-68996552D01*
X118727009Y-68967222D01*
X118744913Y-68957652D01*
X118883533Y-68883557D01*
X118940147Y-68866384D01*
X119053373Y-68832037D01*
X119119558Y-68825518D01*
X119185740Y-68819000D01*
X119274260Y-68819000D01*
X119340442Y-68825518D01*
X119340442Y-68825518D01*
G37*
M02*
