M48
;DRILL file {KiCad (5.0.1)-4} date 2021.03.19. 14:51:59
;FORMAT={-:-/ absolute / inch / decimal}
FMAT,2
INCH,TZ
T1C0.0157
T2C0.0236
T3C0.0394
%
G90
G05
M72
T1
X3.7402Y-2.7559
X6.6142Y-2.7559
X6.6142Y-5.4921
T2
X4.0441Y-3.1449
X4.0441Y-3.8949
X4.0441Y-4.3699
X4.1691Y-3.2449
X4.4441Y-2.8268
X4.4441Y-2.8949
X5.0191Y-2.8949
X5.0787Y-3.4646
X5.1191Y-2.874
X5.1191Y-3.2449
X5.7441Y-3.0449
X6.2191Y-3.0449
X6.3191Y-3.3949
X6.3191Y-3.7199
X6.3191Y-4.1199
X6.3191Y-4.5199
T3
X4.1441Y-2.7449
X4.2441Y-2.7449
X4.3441Y-2.7449
X4.5941Y-2.7449
X4.6941Y-2.7449
X4.7941Y-2.7449
X4.8941Y-2.7449
X3.7441Y-3.4949
X3.7441Y-3.5949
X3.7441Y-3.6949
X4.2441Y-5.4949
X4.3441Y-5.4949
X3.7441Y-4.3949
X3.7441Y-4.4949
X3.7441Y-4.5949
X6.0941Y-2.7449
X6.1941Y-2.7449
X6.2941Y-2.7449
X3.7441Y-3.9449
X3.7441Y-4.0449
X3.7441Y-4.1449
X6.5941Y-3.4949
X6.5941Y-3.5949
X6.5941Y-3.6949
X5.1941Y-2.7449
X5.2941Y-2.7449
X5.3941Y-2.7449
X4.2441Y-3.2699
X4.2441Y-3.3699
X4.2441Y-3.4699
X4.2441Y-3.5699
X4.2441Y-3.6699
X4.2441Y-3.7699
X4.2441Y-3.9699
X4.2441Y-4.0699
X4.2441Y-4.1699
X4.2441Y-4.2699
X4.2441Y-4.3699
X4.2441Y-4.4699
X4.2441Y-4.5699
X6.1441Y-3.2699
X6.1441Y-3.3699
X6.1441Y-3.4699
X6.1441Y-3.5699
X6.1441Y-3.6699
X6.1441Y-3.7699
X6.1441Y-3.8699
X6.1441Y-3.9699
X6.1441Y-4.1299
X6.1441Y-4.2299
X6.1441Y-4.3299
X6.1441Y-4.4299
X6.1441Y-4.5299
X6.1441Y-4.6299
X6.1441Y-4.7299
X6.1441Y-4.8299
X6.1441Y-4.9299
X6.1441Y-5.0299
X3.7441Y-3.0449
X3.7441Y-3.1449
X3.7441Y-3.2449
X5.7843Y-5.4949
X5.8843Y-5.4949
X5.9843Y-5.4949
X6.0843Y-5.4949
X6.1843Y-5.4949
X6.2843Y-5.4949
X5.6441Y-2.7449
X5.7441Y-2.7449
X5.8441Y-2.7449
X6.5941Y-3.9449
X6.5941Y-4.0449
X6.5941Y-4.1449
X6.5941Y-3.0449
X6.5941Y-3.1449
X6.5941Y-3.2449
X6.5941Y-4.3949
X6.5941Y-4.4949
X6.5941Y-4.5949
T0
M30
